<svg xmlns:xlink="http://www.w3.org/1999/xlink" version="1.1" id="Layer_1" xmlns="http://www.w3.org/2000/svg" x="0px" y="0px"
	 width="100%" viewBox="0 0 592 448" enable-background="new 0 0 592 448" xml:space="preserve">
<path fill="#000000" opacity="1.000000" stroke="none" 
	d="
M259.190613,210.581940 
	C257.819122,213.628677 258.159027,216.526077 258.481781,219.278458 
	C259.591949,228.745544 258.955536,238.245468 259.332275,247.721680 
	C259.591095,254.232376 262.873993,256.666138 269.222260,255.056824 
	C277.404907,252.982513 281.490692,248.310471 280.802887,241.814575 
	C280.410431,238.108231 280.209900,237.950684 275.703003,238.245987 
	C276.370880,232.833801 277.814545,228.020081 282.017914,224.020752 
	C285.309326,226.740402 286.217102,230.096771 286.266815,233.560547 
	C286.391144,242.222748 284.291412,250.399048 279.665222,257.761353 
	C276.468079,262.849426 271.643860,265.687836 265.657166,266.275024 
	C258.372986,266.989441 255.118179,264.436554 253.937180,257.236938 
	C253.649536,255.483353 253.626282,253.686401 253.370789,250.551315 
	C249.090424,259.512909 242.169495,263.955566 234.875259,268.025085 
	C229.345291,271.110291 225.428543,275.489166 222.848694,281.495728 
	C219.772690,288.657410 216.789917,295.918793 212.474380,302.518311 
	C207.301483,310.428955 200.042114,314.328125 190.691040,314.329651 
	C185.720413,314.330444 180.697983,314.925507 175.808273,313.368195 
	C174.254623,312.873413 172.697876,312.501495 171.366074,310.721619 
	C175.241150,308.838196 178.746933,311.019379 182.259140,310.493561 
	C195.430695,308.521820 204.805099,301.172913 211.888321,290.445679 
	C214.172012,286.987152 216.231964,283.303192 217.834366,279.487274 
	C222.412689,268.584381 230.050156,260.628723 240.215652,254.820724 
	C242.941910,253.263107 245.437210,251.252197 247.875488,249.250732 
	C251.830154,246.004517 253.696121,241.787537 253.757965,236.588531 
	C253.846512,229.145966 252.927536,221.675446 254.439728,214.340530 
	C252.383896,212.608002 250.585022,215.549362 248.003708,213.900101 
	C257.079224,206.550110 267.129364,200.717850 274.000031,191.198532 
	C280.674774,181.950653 285.092865,171.356003 292.165222,162.262070 
	C287.552094,174.794022 281.118774,186.550613 278.490509,199.714249 
	C276.144714,198.973160 277.131592,197.042084 275.863220,196.042130 
	C270.381256,200.783600 264.897858,205.526321 259.190613,210.581940 
z"/>
<path fill="#000000" opacity="1.000000" stroke="none" 
	d="
M345.326569,282.206604 
	C344.797638,283.093903 344.438019,283.654175 344.080872,284.215973 
	C331.377869,304.195831 318.947296,308.898773 293.172577,303.221771 
	C291.509125,302.855408 289.515717,302.634888 288.621552,299.473541 
	C307.157562,302.637238 322.414459,296.287079 335.689850,284.364594 
	C339.487000,280.954437 343.361237,277.470703 344.742371,272.218353 
	C344.459686,272.056549 344.317444,271.902344 344.182831,271.908722 
	C340.808014,272.068207 336.847961,273.869385 334.467560,270.354675 
	C332.221222,267.037933 334.467651,263.589447 335.904205,260.466064 
	C340.151733,251.230957 343.921814,250.467880 351.218903,257.474670 
	C352.771790,258.965759 353.882050,258.232056 355.211182,257.708282 
	C361.798798,255.112274 366.636017,247.575394 365.736847,241.365875 
	C365.241547,237.945297 365.241577,237.945297 360.722626,238.230515 
	C361.214142,232.752716 363.031921,228.105713 367.056580,223.789474 
	C371.752808,228.517960 371.697327,233.938080 371.130890,239.359711 
	C370.308289,247.233170 366.366241,254.181198 364.134277,261.645111 
	C363.387970,264.140961 360.921295,265.087799 358.819397,265.839905 
	C352.908539,267.954895 349.004486,271.668427 347.536530,277.897430 
	C347.204346,279.306946 346.194763,280.556854 345.326569,282.206604 
z"/>
<path fill="#000000" opacity="1.000000" stroke="none" 
	d="
M405.659149,219.490509 
	C404.947784,218.026123 404.681671,216.614777 403.012146,216.193512 
	C400.829041,221.450027 402.411591,227.490921 399.420990,232.621490 
	C395.772095,217.888779 397.501068,203.427277 400.366730,189.096924 
	C402.789886,188.900253 403.188446,190.171326 403.674683,191.126633 
	C412.475769,208.417130 418.286041,226.432831 417.279724,246.175034 
	C416.483459,261.796600 409.814117,270.775940 395.276428,275.304230 
	C394.369873,275.586639 393.431427,276.192810 392.089630,275.256287 
	C391.697968,272.851837 393.532257,271.264862 394.976349,269.612885 
	C398.373016,265.727325 401.938538,261.989166 405.326752,258.096466 
	C411.894989,250.550415 413.649994,241.999924 410.345306,232.506622 
	C408.868347,228.263794 407.290802,224.056000 405.659149,219.490509 
z"/>
<path fill="#000000" opacity="1.000000" stroke="none" 
	d="
M387.260742,189.338120 
	C385.006744,185.196823 386.741028,181.877121 389.211853,178.844543 
	C391.016144,176.630081 392.773132,173.840942 396.476227,175.347351 
	C396.899536,178.283401 395.088226,179.701508 392.979614,181.113403 
	C397.452637,182.912842 396.803467,185.587067 394.389832,188.472153 
	C391.067383,192.443542 382.232727,195.417816 377.551300,193.846542 
	C380.536041,191.447327 384.111298,191.114136 387.260742,189.338120 
z"/>
<path fill="#000000" opacity="1.000000" stroke="none" 
	d="
M271.110107,278.815094 
	C271.442291,278.228180 271.562988,277.896606 271.788483,277.668671 
	C273.500549,275.938232 273.809814,272.310852 277.419647,273.153839 
	C278.980072,273.518219 280.813995,274.282227 281.022888,276.153107 
	C281.395172,279.487610 278.730347,281.435181 276.963165,283.732819 
	C276.168182,284.766479 274.955475,284.873138 273.866119,284.060883 
	C272.217377,282.831604 269.817871,282.003418 271.110107,278.815094 
z"/>
<path fill="#000000" opacity="1.000000" stroke="none" 
	d="
M358.317230,283.663208 
	C353.615021,280.858459 356.539215,278.297485 358.113617,275.750671 
	C359.410370,273.653015 360.863525,271.951355 363.676025,273.569000 
	C365.384064,274.551422 367.121185,276.023376 365.850494,277.803741 
	C364.032837,280.350403 364.024841,285.540924 358.317230,283.663208 
z"/>
</svg>