<svg xmlns:xlink="http://www.w3.org/1999/xlink" version="1.1" id="Layer_1" xmlns="http://www.w3.org/2000/svg" x="0px" y="0px"
	 width="100%" viewBox="0 0 592 448" enable-background="new 0 0 592 448" xml:space="preserve">
<path fill="#000000" opacity="1.000000" stroke="none" 
	d="
M274.356934,253.307327 
	C276.028595,248.840164 276.924377,244.460175 279.701080,240.041794 
	C280.844421,243.006989 280.234894,245.167252 279.621124,247.353928 
	C276.515778,258.417358 270.891754,268.166687 264.218384,277.416260 
	C258.955566,284.710724 253.750336,292.082367 251.877625,301.154999 
	C250.706589,306.828339 250.758545,312.227203 256.198364,315.900208 
	C261.466949,319.457520 266.782440,319.191193 272.043854,315.688934 
	C278.360626,311.484161 283.727051,306.302795 287.992523,300.045807 
	C290.974823,295.671143 290.452637,294.269318 285.594147,292.290802 
	C279.090729,289.642487 277.671173,286.534882 278.184570,279.432709 
	C278.864532,270.027496 282.691254,263.002106 291.106262,258.392395 
	C295.323059,256.082428 299.172485,253.099457 303.175598,250.402344 
	C307.888885,247.226761 310.727142,242.964493 310.723694,237.113876 
	C310.719788,230.450211 310.618103,223.785889 310.687408,217.123199 
	C310.725281,213.482132 311.267609,209.926819 314.115387,206.827225 
	C315.885101,208.483353 315.276764,210.404495 315.319733,212.078979 
	C315.622681,223.895676 315.821198,235.715042 316.119568,247.531891 
	C316.295074,254.483170 318.804504,255.998062 324.874817,252.786987 
	C330.314423,249.909561 335.334595,246.469772 339.387695,241.058517 
	C336.418152,239.925659 333.752563,240.552185 331.188965,240.333771 
	C323.905334,239.713226 321.497284,236.072098 323.885254,229.258698 
	C327.343170,219.392380 335.985626,213.099579 346.555206,212.691010 
	C350.924652,212.522125 353.032959,214.771896 353.293701,218.921310 
	C353.436584,221.194870 353.319275,223.484772 353.319275,226.051422 
	C360.031830,223.773132 363.908325,216.742722 371.362335,214.631454 
	C371.643250,219.566345 370.348938,223.622925 366.846680,225.622116 
	C352.700775,233.696991 347.159424,246.341095 346.275085,261.831390 
	C346.149628,264.029022 345.343597,266.187836 344.852600,268.364594 
	C344.366791,268.283508 343.881012,268.202454 343.395233,268.121368 
	C344.545135,260.319489 345.695038,252.517624 346.844971,244.715759 
	C346.318359,244.328018 345.791748,243.940277 345.265137,243.552551 
	C341.529053,247.693939 337.911865,251.951401 334.019348,255.940125 
	C330.888824,259.148041 327.571167,262.188202 323.312103,263.994507 
	C315.425415,267.339294 310.964203,264.630219 310.663879,256.178528 
	C310.613098,254.749786 310.656738,253.317673 310.273743,251.718109 
	C306.190460,258.902374 300.014008,263.485199 293.055481,267.228485 
	C291.303436,268.170990 289.647491,269.330902 288.070312,270.549957 
	C286.010803,272.141846 282.701782,273.278229 282.895996,276.162689 
	C283.121674,279.513458 286.506195,280.681488 289.337585,281.663818 
	C293.280457,283.031708 294.911407,285.699432 294.310333,289.723450 
	C291.879272,305.998199 283.529358,318.566772 269.710938,327.228210 
	C264.567200,330.452332 258.446350,330.802399 253.133728,327.110535 
	C247.205460,322.990845 246.918137,316.435699 247.070099,310.023438 
	C247.392487,296.420074 253.768234,285.191711 261.271973,274.398621 
	C265.924896,267.706024 270.901276,261.198059 274.356934,253.307327 
M336.214447,229.535126 
	C339.058899,229.953537 341.791656,229.113953 344.569061,228.785507 
	C345.869843,228.631683 347.428314,228.645508 347.438263,226.796387 
	C347.446686,225.229340 346.130188,224.640427 344.902649,224.086533 
	C341.539398,222.568893 334.964142,224.367142 332.093903,227.610413 
	C332.817780,228.966980 334.346252,228.807236 336.214447,229.535126 
z"/>
<path fill="#000000" opacity="1.000000" stroke="none" 
	d="
M254.251343,346.985229 
	C254.107574,341.864319 256.073212,338.076477 260.589447,336.008575 
	C263.810699,334.533600 266.554321,331.911163 270.369537,331.563507 
	C270.300415,338.964203 263.953979,345.135590 254.251343,346.985229 
z"/>
</svg>