<svg xmlns:xlink="http://www.w3.org/1999/xlink" version="1.1" id="Layer_1" xmlns="http://www.w3.org/2000/svg" x="0px" y="0px"
	 width="100%" viewBox="0 0 592 448" enable-background="new 0 0 592 448" xml:space="preserve">
<path fill="#000000" opacity="1.000000" stroke="none" 
	d="
M364.895264,288.305054 
	C361.013580,288.155670 357.542603,288.871094 354.101196,287.827179 
	C354.633667,285.872620 356.150055,285.928894 357.373016,285.837524 
	C366.803833,285.132660 374.970490,281.168854 382.698608,276.094635 
	C387.340759,273.046631 388.294281,269.267242 385.562195,264.414948 
	C384.344452,262.252167 382.740204,260.304901 381.287720,258.276764 
	C375.525787,250.231400 377.590240,237.972214 385.847321,232.326996 
	C391.087646,228.744247 396.774445,225.954300 402.935059,224.285629 
	C410.366669,222.272705 415.096466,225.572739 415.397400,233.323303 
	C415.956085,247.711761 409.539673,259.658417 401.710846,271.067963 
	C392.924835,283.872437 379.952637,287.764252 364.895264,288.305054 
M392.506409,268.536163 
	C399.087402,262.093140 404.748199,254.941086 408.928864,246.709839 
	C410.445801,243.723145 410.634460,240.586914 408.271667,237.828201 
	C406.486938,235.744385 404.330566,233.977875 401.384430,234.716827 
	C396.034088,236.058838 390.982300,238.201416 386.375885,241.284744 
	C384.726288,242.388916 383.361847,243.866470 385.066284,245.775711 
	C391.372498,252.839767 392.465088,260.987030 390.016846,270.462280 
	C391.049530,269.674988 391.549652,269.293732 392.506409,268.536163 
z"/>
<path fill="#000000" opacity="1.000000" stroke="none" 
	d="
M211.793732,280.785858 
	C214.580185,279.214722 217.099243,277.910706 219.465408,276.371643 
	C224.563599,273.055511 225.396332,268.558655 221.996689,263.333252 
	C221.453247,262.497955 220.819031,261.721802 220.229095,260.916626 
	C211.088181,248.441254 213.789444,236.578369 227.593903,229.387283 
	C231.411591,227.398560 235.447937,225.732315 239.537628,224.384338 
	C246.911850,221.953796 252.144989,225.607224 252.388962,233.429947 
	C252.848465,248.163757 246.353958,260.389526 238.008041,271.885193 
	C226.226608,288.113037 209.064621,288.568481 191.410889,287.602112 
	C197.970245,285.025208 205.221115,284.466797 211.793732,280.785858 
M238.583878,258.096832 
	C241.673798,253.966568 245.018906,249.974579 246.653229,244.971436 
	C248.243530,240.103027 244.500183,234.053177 239.666077,234.669632 
	C233.405472,235.467972 227.468704,237.875397 222.565506,242.168213 
	C221.254547,243.315948 221.011826,244.696777 222.266144,246.101456 
	C228.423462,252.996994 229.474503,261.023560 227.034973,270.210541 
	C231.775955,266.728058 235.021988,262.755951 238.583878,258.096832 
z"/>
<path fill="#000000" opacity="1.000000" stroke="none" 
	d="
M353.524902,190.935028 
	C362.300690,208.023026 367.895447,225.553055 367.318665,244.729675 
	C366.886719,259.090454 361.315552,269.745972 347.090881,274.676880 
	C345.568451,275.204590 344.121979,276.243958 342.160217,275.310364 
	C341.691071,272.665588 343.617706,271.153015 345.083862,269.479889 
	C348.810242,265.227386 352.730988,261.137207 356.313507,256.768524 
	C361.887451,249.971466 363.432098,242.274750 360.671997,233.833618 
	C358.615326,227.543854 356.801849,221.154480 352.843109,214.174316 
	C352.027557,221.053741 351.352081,226.751709 350.679565,232.424576 
	C348.173737,232.331207 347.888855,230.935074 347.794739,229.667618 
	C346.855804,217.025864 347.156830,204.433929 349.803040,191.991043 
	C350.168121,190.274567 350.700134,187.198837 353.524902,190.935028 
z"/>
<path fill="#000000" opacity="1.000000" stroke="none" 
	d="
M324.756317,240.516266 
	C321.437012,241.618958 318.447388,242.072525 316.061310,239.509430 
	C313.680847,236.952332 315.263000,234.137985 316.052399,231.501877 
	C316.572784,229.763947 317.477966,228.139099 318.234985,226.474594 
	C319.560608,223.559784 321.389221,221.372940 325.024475,221.711655 
	C328.589783,222.043839 330.878845,224.066254 331.982086,227.295868 
	C334.575653,234.888275 333.649170,242.458435 330.936707,249.752487 
	C327.119598,260.016968 321.284485,269.075867 313.251587,276.598724 
	C303.070709,286.133148 290.366455,286.025665 277.642853,285.690430 
	C277.062836,285.675171 276.496521,285.139160 275.709991,284.736115 
	C277.186371,281.926178 279.923645,282.166138 282.151978,281.606110 
	C300.212372,277.067230 314.569733,267.355194 324.524384,251.457916 
	C326.204285,248.775146 327.737549,245.996597 327.910004,242.714325 
	C328.015961,240.697662 327.604584,239.278885 324.756317,240.516266 
z"/>
<path fill="#000000" opacity="1.000000" stroke="none" 
	d="
M286.747131,221.764023 
	C293.081635,223.386475 293.669189,228.432495 294.234772,233.209457 
	C294.909180,238.905441 293.919342,244.470291 291.882935,249.859818 
	C288.726868,258.212708 283.992462,265.573853 278.384613,272.483093 
	C268.280487,284.931946 254.301697,286.034973 239.882751,285.954773 
	C238.800812,285.948761 237.544388,285.718292 236.880920,284.170593 
	C238.423172,282.248169 240.834839,282.165100 242.996994,281.619812 
	C261.412292,276.975250 276.102631,267.138336 285.961395,250.664856 
	C287.879700,247.459442 289.738373,244.095596 289.062012,239.881424 
	C286.255676,239.413345 284.257751,241.527451 281.704865,241.375412 
	C277.365662,241.117004 275.204132,238.757858 276.170593,234.555237 
	C276.957428,231.133820 278.341003,227.914963 280.090332,224.864777 
	C281.476837,222.447128 283.533447,221.335861 286.747131,221.764023 
z"/>
</svg>