<svg xmlns:xlink="http://www.w3.org/1999/xlink" version="1.1" id="Layer_1" xmlns="http://www.w3.org/2000/svg" x="0px" y="0px"
	 width="100%" viewBox="0 0 592 448" enable-background="new 0 0 592 448" xml:space="preserve">
<path fill="#000000" opacity="1.000000" stroke="none" 
	d="
M259.170013,264.573242 
	C251.546661,267.428284 244.750946,267.487152 239.152390,261.157074 
	C237.461807,259.245605 235.920822,259.402893 233.995972,260.906616 
	C232.308533,262.224854 230.417007,263.361664 228.464890,264.245789 
	C223.307816,266.581482 220.384552,265.676331 215.462799,260.165314 
	C214.252365,263.063019 213.187485,265.753357 212.014328,268.395599 
	C207.606262,278.323761 200.766861,285.588104 189.972473,288.586731 
	C178.289169,291.832306 167.021042,282.688110 167.937103,270.637756 
	C169.496185,250.128830 180.088776,237.753235 200.310333,232.820343 
	C200.633011,232.741608 200.971832,232.728989 201.294373,232.649887 
	C217.701492,228.625931 213.527878,231.753571 212.176071,215.738098 
	C211.520218,207.968018 210.984207,207.181091 214.420181,200.045364 
	C217.085281,202.703110 216.735168,206.149551 217.219223,209.190506 
	C218.002731,214.112885 218.603882,219.082382 218.340363,224.101715 
	C218.189468,226.976089 219.293076,228.134720 222.272400,227.122787 
	C228.719330,224.933075 235.314743,223.152267 241.868851,219.906677 
	C237.224197,215.353226 241.625137,212.504242 243.804306,209.405304 
	C245.225800,207.383804 247.127930,208.896957 248.656723,209.816284 
	C250.297318,210.802856 250.915100,212.255157 249.952728,214.067749 
	C247.973083,217.796295 245.693314,221.236938 241.540527,222.930374 
	C234.912369,225.633209 228.315155,228.412292 221.675919,231.087311 
	C220.071899,231.733597 218.186172,232.286942 218.541931,234.349213 
	C219.415314,239.412048 218.704987,244.720047 220.845062,249.576035 
	C222.138092,252.509995 224.094727,254.905243 227.615845,254.240967 
	C230.790329,253.642059 232.478531,251.736404 232.813293,248.001328 
	C233.474716,240.621490 237.637772,234.981705 243.665939,230.862076 
	C247.104858,228.511948 249.377609,229.771179 250.426620,233.981812 
	C251.717087,239.161606 249.649719,243.446808 247.039780,247.606491 
	C245.988525,249.281967 244.785599,250.862274 243.771149,252.314865 
	C244.309097,254.202286 245.686401,254.461288 246.927734,254.879196 
	C257.689026,258.502228 272.250458,248.477859 272.709198,237.181976 
	C273.018280,229.571777 271.833679,221.925858 273.515656,214.475494 
	C271.439514,212.804916 269.546326,215.514664 267.047119,213.875168 
	C276.146240,206.501465 286.234772,200.658371 293.111511,191.057037 
	C299.725861,181.822098 304.130005,171.249878 310.533142,161.915756 
	C311.007721,162.157104 311.482330,162.398468 311.956909,162.639816 
	C309.220520,168.569748 306.370453,174.450516 303.779541,180.443344 
	C301.158936,186.504929 298.819611,192.685974 297.842346,199.111450 
	C294.904449,199.438278 296.388092,196.541718 294.829590,196.173065 
	C289.655029,200.583405 284.533417,205.051712 279.277435,209.355942 
	C277.631683,210.703690 277.266876,212.272308 277.325745,214.182602 
	C277.679810,225.668716 277.917938,237.159515 278.402771,248.639969 
	C278.633331,254.099915 282.154388,256.409851 287.731720,255.201202 
	C304.748260,251.513657 314.514404,231.878632 308.151672,214.066437 
	C307.674469,212.730560 307.534424,211.133881 305.891632,210.163620 
	C303.574982,215.781616 304.114136,222.162155 301.072968,227.842148 
	C298.675629,222.448868 303.067627,198.493393 307.118866,193.466568 
	C309.111786,193.522583 309.881561,195.117325 310.671783,196.525711 
	C320.326813,213.733673 315.821594,251.848862 292.421112,263.669647 
	C291.093292,264.340393 289.710663,264.946167 288.293152,265.388916 
	C278.555817,268.430389 273.448853,265.010986 272.685486,254.971146 
	C272.610260,253.981506 272.675415,252.981186 272.675415,251.135361 
	C268.468719,256.439514 265.421356,261.907013 259.170013,264.573242 
M201.638107,273.177399 
	C212.033524,263.848969 213.944489,251.590714 213.662582,238.543472 
	C213.603378,235.803711 212.508469,235.029739 209.886963,235.747406 
	C200.854935,238.219940 192.024124,241.193665 184.156982,246.410126 
	C178.086563,250.435242 174.067886,255.869354 172.739044,263.267670 
	C170.852524,273.770691 178.005539,281.059540 188.411911,279.141815 
	C193.110474,278.275940 197.356918,276.604950 201.638107,273.177399 
M238.035950,246.338455 
	C241.791306,247.867325 243.230377,244.905884 244.970459,242.675491 
	C245.665222,241.784943 245.532913,240.528625 244.406296,240.172119 
	C241.332397,239.199387 240.072311,241.894058 238.343552,243.532837 
	C237.738831,244.106110 237.426178,244.916977 238.035950,246.338455 
z"/>
<path fill="#000000" opacity="1.000000" stroke="none" 
	d="
M450.676086,235.025757 
	C449.030212,252.524841 441.886780,266.840820 429.470428,278.719666 
	C421.184937,286.646484 410.683472,287.175995 400.306580,288.236572 
	C396.725372,288.602600 393.075287,288.294800 389.020050,288.294800 
	C389.994446,285.782867 391.773895,285.885620 393.259064,285.747894 
	C403.201874,284.826172 411.614868,280.259369 419.675629,274.815399 
	C423.813690,272.020691 421.651123,268.294037 420.850616,265.015137 
	C420.407013,263.198181 418.808258,261.631195 417.620117,260.033356 
	C409.520081,249.139938 412.392822,236.354538 424.488617,230.052933 
	C428.018005,228.214218 431.640045,226.473572 435.378967,225.132278 
	C445.153961,221.625626 449.322662,224.292053 450.676086,235.025757 
M427.941559,268.097107 
	C430.178589,265.644104 432.554993,263.302429 434.622559,260.714050 
	C438.453827,255.917740 442.387177,251.118774 444.530518,245.273712 
	C446.491547,239.925903 442.336670,233.876389 436.950806,234.719803 
	C431.046783,235.644379 425.455872,237.966919 420.753754,241.914352 
	C419.486603,242.978149 418.814484,244.387894 420.071838,245.819061 
	C426.260132,252.862961 427.568726,260.977478 424.966980,270.698029 
	C426.309296,269.553101 426.912994,269.038208 427.941559,268.097107 
z"/>
<path fill="#000000" opacity="1.000000" stroke="none" 
	d="
M323.241699,273.483032 
	C327.621033,268.225616 331.788483,263.260040 336.062531,258.388031 
	C342.932709,250.556839 344.769958,241.803375 341.201935,231.954712 
	C339.171783,226.350952 337.399261,220.643646 333.868073,214.166733 
	C333.074158,221.043243 332.418732,226.720123 331.716919,232.798996 
	C326.527618,228.430664 327.484222,198.003632 332.653320,188.726028 
	C337.043152,193.871902 339.032623,200.061859 341.288483,206.046661 
	C347.547791,222.652802 350.841034,239.613571 346.244293,257.274414 
	C344.086700,265.563904 333.284332,274.720154 324.939880,275.665466 
	C323.334045,275.847412 322.718536,275.423218 323.241699,273.483032 
z"/>
<path fill="#000000" opacity="1.000000" stroke="none" 
	d="
M389.210815,260.197937 
	C393.953522,253.936722 399.157715,248.266006 399.328491,240.065018 
	C396.452637,239.240524 394.753448,241.171951 392.600952,241.315308 
	C387.528046,241.653198 384.987701,238.885849 386.370514,233.984634 
	C387.089355,231.436646 388.130371,228.961594 389.219482,226.540695 
	C390.503448,223.686783 392.234528,221.357635 395.955811,221.691269 
	C399.788879,222.034897 402.078888,224.208237 403.127991,227.671524 
	C404.803589,233.202972 404.909058,238.828934 403.393280,244.427826 
	C399.578918,258.517090 392.315887,270.503143 380.641541,279.343201 
	C371.439301,286.311371 360.290344,285.732422 349.474884,285.885223 
	C348.552063,285.898254 347.489807,285.553528 346.435120,283.319489 
	C362.973389,279.952087 377.665894,273.162689 389.210815,260.197937 
z"/>
<path fill="#000000" opacity="1.000000" stroke="none" 
	d="
M438.434692,205.239990 
	C436.784973,207.102036 436.116180,210.276703 432.985321,208.495178 
	C431.118774,207.433105 428.056030,206.260986 430.317902,203.391403 
	C432.146545,201.071411 432.251373,195.721481 437.518219,198.046539 
	C441.207031,199.674988 440.454102,202.268539 438.434692,205.239990 
z"/>
</svg>