<svg xmlns:xlink="http://www.w3.org/1999/xlink" version="1.1" id="Layer_1" xmlns="http://www.w3.org/2000/svg" x="0px" y="0px"
	 width="100%" viewBox="0 0 592 448" enable-background="new 0 0 592 448" xml:space="preserve">
<path fill="#000000" opacity="1.000000" stroke="none" 
	d="
M393.527008,244.555969 
	C388.953125,250.948563 384.054321,256.557190 377.898926,260.958740 
	C376.009033,262.310181 374.128448,263.749298 372.052368,264.752625 
	C363.306854,268.979218 356.341309,265.377106 354.825012,255.788101 
	C354.203186,251.855774 353.913208,247.850739 353.763824,243.867859 
	C353.358154,233.052109 353.110962,222.230423 352.795532,211.411255 
	C352.661835,206.825363 353.712372,202.585831 356.383759,198.386429 
	C358.399475,200.334885 357.971436,202.547501 358.060974,204.570816 
	C358.597900,216.705154 357.675842,228.889511 359.314026,240.987701 
	C359.425323,241.809738 359.257629,242.687317 359.462402,243.476044 
	C360.712097,248.289764 361.314667,254.063080 367.268463,255.142487 
	C372.904236,256.164246 376.706848,251.835251 380.473175,248.308640 
	C381.849457,247.019974 381.414917,245.223114 381.478882,243.576477 
	C381.704803,237.762741 383.619385,232.492462 386.877472,227.728088 
	C388.396301,225.507111 390.216705,223.132385 393.309357,223.928741 
	C396.166779,224.664520 396.287994,227.678741 397.031860,229.993393 
	C397.308350,230.853745 397.076538,231.877487 397.076538,233.228806 
	C400.145325,230.740555 401.049988,227.866150 400.730469,224.554230 
	C400.357422,220.687729 398.938232,217.179688 395.051270,215.870758 
	C391.531433,214.685471 389.103790,217.366852 386.955963,219.655396 
	C383.076965,223.788422 380.981934,228.806335 380.320953,234.433456 
	C380.135986,236.008392 380.448578,237.838440 378.451935,238.661819 
	C376.000031,229.044083 382.179749,212.376114 390.143982,207.019196 
	C398.251709,201.565765 405.400696,204.988586 406.292786,214.775879 
	C407.392792,226.844528 402.900574,236.567001 393.527008,244.555969 
M388.728943,234.828598 
	C387.228271,235.781204 386.141846,236.964996 387.479797,238.716751 
	C388.328247,239.827576 389.588257,239.600418 390.422943,238.663849 
	C391.997925,236.896698 390.711548,235.805450 388.728943,234.828598 
z"/>
<path fill="#000000" opacity="1.000000" stroke="none" 
	d="
M215.964584,270.850952 
	C216.229813,254.144623 224.867920,241.898071 235.179550,230.452560 
	C243.286285,221.454376 252.782852,213.646042 258.817535,202.865524 
	C259.005981,202.528915 259.597992,202.418243 260.369476,202.005615 
	C261.090393,205.730072 259.041229,208.145844 257.305054,210.582947 
	C251.004990,219.426422 242.737930,226.557037 235.942139,234.972397 
	C229.115616,243.425812 222.732193,252.070404 220.826202,263.222626 
	C220.212372,266.814209 221.145386,269.384491 223.799698,271.577728 
	C226.549484,273.849823 229.551727,274.046478 232.638245,272.448517 
	C238.698441,269.311005 243.546982,264.811920 246.824768,258.823944 
	C248.297028,256.134399 250.253098,253.061462 246.383347,250.530518 
	C243.007111,248.322388 239.924820,249.418472 236.730515,254.309341 
	C242.288956,255.065552 241.496124,258.249908 239.792633,261.927856 
	C238.137589,265.501099 235.940826,266.982147 231.894577,265.458588 
	C229.295609,264.479980 228.335632,263.291351 229.449249,260.675964 
	C231.728180,255.323776 233.880707,249.915146 236.282242,244.619064 
	C237.243515,242.499176 238.917709,240.765381 240.826431,239.378769 
	C245.941818,235.662643 251.656738,237.691086 253.247314,243.812302 
	C253.874222,246.224930 254.225845,248.646088 253.590012,251.193375 
	C251.129501,261.050720 246.448090,269.788971 240.141388,277.639404 
	C237.136017,281.380432 232.969482,283.598236 228.167160,284.239563 
	C221.162186,285.174988 217.883392,282.682892 216.658508,275.726410 
	C216.399033,274.252747 216.206161,272.767334 215.964584,270.850952 
z"/>
<path fill="#000000" opacity="1.000000" stroke="none" 
	d="
M288.563873,262.479309 
	C285.586365,267.137848 282.537018,271.250000 278.938080,275.002289 
	C272.993988,281.199615 265.691437,284.314270 257.329651,285.223938 
	C253.366272,285.655151 249.379791,285.904968 245.397430,286.117828 
	C243.438446,286.222534 241.387939,286.312073 239.763260,284.360382 
	C241.413757,282.072876 244.041962,282.127747 246.347229,281.547455 
	C264.220184,277.048462 278.475494,267.428741 288.360046,251.723999 
	C290.537628,248.264252 292.651825,244.647980 291.881866,240.137253 
	C289.264679,239.400085 287.410614,241.463165 285.051880,241.376465 
	C280.466278,241.207886 278.262024,238.791840 279.189758,234.370575 
	C279.845367,231.246246 281.170929,228.392868 282.711182,225.615692 
	C284.105499,223.101608 285.926208,221.395935 289.047363,221.707413 
	C292.327484,222.034760 294.729370,223.601913 295.820709,226.757660 
	C298.249298,233.780243 297.846985,240.813156 295.592773,247.792236 
	C293.949219,252.880600 291.646973,257.667877 288.563873,262.479309 
z"/>
<path fill="#000000" opacity="1.000000" stroke="none" 
	d="
M284.032166,281.808472 
	C300.237030,279.539856 311.959137,271.373230 319.537323,257.424530 
	C322.632416,251.727539 325.201202,245.746323 328.078888,239.928772 
	C329.479614,237.097000 330.925171,234.274307 332.566345,231.578949 
	C333.763489,229.612839 335.203003,227.222717 337.954773,228.025116 
	C340.816132,228.859451 341.240448,231.673141 341.032928,234.195343 
	C340.836517,236.582611 340.745087,239.396515 336.723450,238.544083 
	C334.714569,238.118286 334.050018,240.328110 333.422974,241.767670 
	C330.300415,248.936081 327.304688,256.159912 324.278412,263.370117 
	C317.697845,279.048553 307.006073,287.688629 290.230347,286.368866 
	C285.592255,286.003967 280.634308,287.498932 275.844879,283.975067 
	C278.467957,282.004028 281.271942,282.684113 284.032166,281.808472 
z"/>
</svg>