<svg xmlns:xlink="http://www.w3.org/1999/xlink" version="1.1" id="Layer_1" xmlns="http://www.w3.org/2000/svg" x="0px" y="0px"
	 width="100%" viewBox="0 0 592 448" enable-background="new 0 0 592 448" xml:space="preserve">
<path fill="#000000" opacity="1.000000" stroke="none" 
	d="
M354.444275,216.612839 
	C356.772308,212.059692 359.383759,208.248077 363.775146,206.022934 
	C371.020905,202.351486 377.032776,205.175064 378.104645,213.156418 
	C379.700409,225.038483 375.983185,235.190781 367.091888,243.305832 
	C361.211884,248.672485 356.802368,255.346375 350.981750,260.857758 
	C347.715393,263.950592 344.249359,266.082214 340.508911,267.991699 
	C337.786438,269.381500 336.112976,271.066925 335.094727,273.990875 
	C331.964874,282.978607 326.457458,290.533173 319.647858,297.029449 
	C310.624054,305.638062 299.360718,306.376007 287.820557,304.821747 
	C283.365051,304.221619 278.526215,304.118774 274.695190,299.942078 
	C286.042145,301.579193 296.670135,299.746307 306.724518,294.697205 
	C316.902313,289.586121 325.311127,282.611877 331.304382,272.364471 
	C330.403564,272.094727 329.973480,271.817078 329.596741,271.876648 
	C326.469208,272.371368 322.934418,273.463257 320.677216,270.644531 
	C318.252045,267.616089 320.189697,264.264221 321.615112,261.269257 
	C322.611542,259.175598 323.694214,257.052307 325.128082,255.252777 
	C327.779297,251.925507 331.448059,251.882278 334.806519,254.502853 
	C336.416870,255.759369 336.754150,259.098969 339.463959,258.308990 
	C342.779236,257.342499 346.085480,255.894470 348.441223,253.168747 
	C351.576569,249.540955 353.874084,245.746765 353.837463,240.451355 
	C353.805389,235.811157 356.223114,231.498062 358.913910,227.622223 
	C360.352173,225.550583 362.038116,223.369965 364.915558,223.874252 
	C368.187897,224.447708 368.325623,227.598816 369.096161,230.063736 
	C369.359741,230.906952 369.138000,231.901886 369.138000,233.208832 
	C372.455353,230.368286 373.222137,227.112518 372.596954,223.483658 
	C372.003540,220.039185 370.509583,216.944290 366.949615,215.860947 
	C363.835907,214.913422 361.586853,217.160522 359.564789,219.097504 
	C355.311310,223.171997 353.084930,228.300003 352.363129,234.107697 
	C352.163269,235.715652 352.382904,237.468552 349.987793,239.121246 
	C348.988007,230.869568 350.986877,223.802017 354.444275,216.612839 
M361.864166,235.199402 
	C359.590240,234.857880 358.818848,236.295807 358.932159,238.108109 
	C358.996613,239.139160 360.217346,239.686417 361.270813,239.339310 
	C363.420227,238.631134 363.610382,237.241013 361.864166,235.199402 
z"/>
<path fill="#000000" opacity="1.000000" stroke="none" 
	d="
M294.764099,229.565582 
	C296.648865,237.380951 294.855743,244.390625 292.320496,251.335587 
	C289.677002,258.577057 285.878601,265.140747 281.433319,271.429596 
	C272.594025,283.934753 259.829926,287.822815 245.452087,288.265350 
	C241.701965,288.380768 237.886185,288.859283 234.102676,287.867615 
	C234.538773,285.897186 236.062332,285.926361 237.285126,285.838104 
	C246.712128,285.157379 254.856644,281.144104 262.603455,276.143372 
	C267.425110,273.030914 268.321320,269.089813 265.367462,264.082794 
	C264.105408,261.943512 262.498291,260.008789 261.062805,257.970612 
	C255.732605,250.402710 257.645294,238.142136 265.260498,232.698792 
	C270.695740,228.813644 276.716125,225.938614 283.195862,224.191879 
	C289.033081,222.618347 291.462494,223.756424 294.764099,229.565582 
M280.369324,259.874603 
	C283.410980,255.732483 286.545227,251.646408 288.800629,246.995071 
	C290.350433,243.798981 290.663696,240.611160 288.168610,237.696426 
	C285.607422,234.704483 282.458405,233.938690 278.784241,235.441483 
	C276.638306,236.319199 274.441162,237.084244 272.342499,238.061905 
	C269.507996,239.382370 266.058777,240.294174 264.755768,243.323593 
	C263.445221,246.370560 267.213318,247.590286 268.309631,249.895248 
	C271.381348,256.353363 272.226776,262.949188 269.892029,270.667664 
	C274.215088,267.259094 277.046265,263.821991 280.369324,259.874603 
z"/>
</svg>