<svg xmlns:xlink="http://www.w3.org/1999/xlink" version="1.1" id="Layer_1" xmlns="http://www.w3.org/2000/svg" x="0px" y="0px"
	 width="100%" viewBox="0 0 592 448" enable-background="new 0 0 592 448" xml:space="preserve">
<path fill="#000000" opacity="1.000000" stroke="none" 
	d="
M197.035126,308.068604 
	C196.024216,309.421783 195.176193,310.461884 194.493118,311.600891 
	C190.534058,318.202362 191.693573,322.521179 198.764435,325.621216 
	C209.792847,330.456238 221.509888,329.912933 233.177078,329.378754 
	C235.275345,329.282715 237.411957,328.381317 239.675659,329.842499 
	C238.970474,332.563568 236.438370,332.508820 234.608276,332.834656 
	C223.891830,334.742767 213.110031,335.303345 202.368546,333.071869 
	C189.111115,330.317719 184.507904,321.337585 189.882645,308.920227 
	C193.625900,300.272156 199.646881,293.463379 207.312378,288.128510 
	C210.088043,286.196747 211.536163,284.176086 211.855927,280.508881 
	C212.456039,273.626373 216.075714,267.820404 221.384155,263.504303 
	C229.450775,256.945648 239.529282,253.040329 246.207413,243.895828 
	C248.848526,248.861298 245.151657,252.044785 244.392654,255.977951 
	C248.760651,256.925171 251.785629,254.502014 255.078033,252.847534 
	C259.792572,250.478424 262.961304,247.608521 262.733246,241.502380 
	C262.546600,236.504486 264.972778,231.808472 267.906250,227.670944 
	C269.440979,225.506302 271.276886,223.025452 274.368927,223.988632 
	C277.344086,224.915405 277.521606,228.026825 278.034271,230.599899 
	C278.208527,231.474548 277.763184,232.472656 277.446594,234.310394 
	C280.243896,231.383652 281.909790,228.947357 281.759888,225.559860 
	C281.579712,221.488342 280.395508,217.785797 276.421265,216.131149 
	C272.417419,214.464172 269.891724,217.577194 267.545715,220.082382 
	C263.905487,223.969528 262.072906,228.774323 261.383545,234.017227 
	C261.168671,235.651382 261.166565,237.331635 259.786835,238.756958 
	C258.312653,238.157928 258.685486,236.861160 258.693848,235.856720 
	C258.774109,226.200974 261.836273,217.576019 267.779816,209.970963 
	C269.029541,208.371872 270.557739,207.124466 272.373169,206.195587 
	C280.181396,202.200439 286.480194,205.566055 287.261658,214.248444 
	C288.103943,223.606049 286.366394,232.490097 279.606995,239.239517 
	C272.568024,246.268097 267.505280,255.132950 259.103607,260.879669 
	C256.615692,262.581390 254.098755,264.143768 251.400803,265.460388 
	C249.187683,266.540405 246.171097,267.265381 244.659943,266.069672 
	C236.763977,259.821930 232.232986,267.231689 226.798187,269.616180 
	C227.758301,278.539764 225.177063,285.615906 218.433411,291.089233 
	C211.454376,296.753632 203.726578,301.470032 197.035126,308.068604 
M269.655945,239.539886 
	C271.452332,239.199310 273.072388,238.660873 271.887756,236.334763 
	C271.306152,235.192749 270.217926,234.501022 269.055725,235.508850 
	C267.670288,236.710266 266.848785,238.142334 269.655945,239.539886 
z"/>
<path fill="#000000" opacity="1.000000" stroke="none" 
	d="
M356.492065,238.306931 
	C355.820374,232.559006 358.153656,228.130402 362.046722,223.923477 
	C366.328583,228.008316 366.764832,232.778259 366.239014,237.574448 
	C365.548981,243.868607 363.982727,249.986969 360.968597,255.661606 
	C358.450714,260.401886 354.686218,263.749786 349.952454,266.144318 
	C342.403015,269.963165 336.936066,275.526154 333.801056,283.638580 
	C331.353546,289.971893 328.458435,296.178650 324.808685,301.996216 
	C319.563568,310.356781 312.015442,314.333618 302.293335,314.334442 
	C297.488373,314.334839 292.623322,314.924011 287.919647,313.354828 
	C286.415253,312.852936 284.619232,312.801208 283.793243,310.573578 
	C287.370026,308.948853 290.882782,310.994629 294.399902,310.477234 
	C307.401764,308.564453 316.569611,301.219299 323.726868,290.798737 
	C325.227753,288.613586 326.627716,286.285461 327.624237,283.839874 
	C333.029449,270.575165 341.721558,260.380829 354.304810,253.265823 
	C360.419189,249.808563 361.876221,245.590027 360.688324,240.452774 
	C360.141602,238.088638 359.021759,237.346695 356.492065,238.306931 
z"/>
<path fill="#000000" opacity="1.000000" stroke="none" 
	d="
M305.023376,231.207397 
	C303.415436,233.299576 302.229156,232.215485 302.089722,230.834076 
	C300.666809,216.737503 300.938019,202.743668 304.621094,189.127228 
	C306.809601,188.873474 307.196167,190.164917 307.680420,191.119263 
	C316.463135,208.427979 322.237427,226.452179 321.288116,246.207230 
	C320.619659,260.118500 314.617737,269.999176 301.066650,274.624695 
	C299.965424,275.000580 298.864655,275.393311 297.736633,275.666931 
	C297.312805,275.769745 296.812103,275.555603 296.116882,275.451660 
	C295.907928,272.543610 297.889984,270.906464 299.461609,269.111298 
	C303.081787,264.976288 306.919769,261.021332 310.374542,256.754547 
	C315.770782,250.089905 317.431671,242.520462 314.782257,234.240433 
	C312.791260,228.018005 311.086426,221.656952 307.079529,214.833282 
	C305.750580,221.007263 305.308777,225.894821 305.023376,231.207397 
z"/>
<path fill="#000000" opacity="1.000000" stroke="none" 
	d="
M391.264465,219.720947 
	C391.683441,209.090622 391.484406,198.812332 394.884644,188.916656 
	C397.100128,189.562332 397.591888,191.088364 398.242920,192.374252 
	C406.617889,208.917038 411.916382,226.195496 411.320465,245.010788 
	C410.871033,259.200714 405.256927,269.657867 391.294220,274.580566 
	C390.198090,274.967041 389.113617,275.394073 387.998962,275.716644 
	C387.558350,275.844177 387.049957,275.737579 386.290253,275.737579 
	C385.523773,273.138885 387.229950,271.687408 388.593994,270.131012 
	C392.540527,265.628021 396.649139,261.257996 400.426422,256.617859 
	C405.847870,249.958008 407.404755,242.400970 404.779633,234.122910 
	C402.775299,227.802307 400.834381,221.452591 397.243805,214.882629 
	C395.251221,221.020721 395.867920,226.938385 394.607513,232.921722 
	C392.190857,230.670624 392.190857,230.670624 391.264465,219.720947 
z"/>
<path fill="#000000" opacity="1.000000" stroke="none" 
	d="
M391.970337,286.813354 
	C393.858734,285.384155 395.453766,284.132782 397.694092,285.387054 
	C397.777100,288.059479 396.476410,289.742493 393.805511,290.990753 
	C397.403534,292.417206 398.256500,294.665253 396.170746,297.807800 
	C393.459503,301.892700 384.198730,305.383118 378.771210,304.107697 
	C379.920837,302.036743 382.075989,302.110229 383.753967,301.413147 
	C385.563446,300.661469 387.405945,299.989258 389.353943,299.236023 
	C384.925720,293.928558 389.339478,290.719604 391.970337,286.813354 
z"/>
<path fill="#000000" opacity="1.000000" stroke="none" 
	d="
M238.430527,276.405640 
	C242.119736,274.982941 244.786118,272.205841 248.459213,271.618225 
	C250.884659,278.021362 242.050491,284.314026 231.967316,287.403809 
	C233.292542,282.958282 233.686218,278.768158 238.430527,276.405640 
z"/>
<path fill="#000000" opacity="1.000000" stroke="none" 
	d="
M352.589050,276.429871 
	C354.400726,273.348969 356.362701,271.763428 359.507782,274.138367 
	C362.692841,276.543518 360.762787,278.782227 359.177704,280.880798 
	C357.720032,282.810638 356.854614,285.984497 353.148132,283.653595 
	C349.719971,281.497742 350.427399,279.275970 352.589050,276.429871 
z"/>
</svg>