<svg xmlns:xlink="http://www.w3.org/1999/xlink" version="1.1" id="Layer_1" xmlns="http://www.w3.org/2000/svg" x="0px" y="0px"
	 width="100%" viewBox="0 0 592 448" enable-background="new 0 0 592 448" xml:space="preserve">
<path fill="#000000" opacity="1.000000" stroke="none" 
	d="
M340.598450,264.870514 
	C337.187958,266.423218 334.023529,267.133881 330.630920,267.412781 
	C319.441071,268.332581 314.665558,258.425995 314.957764,250.343842 
	C315.003693,249.074249 315.990540,247.845810 314.976685,246.219727 
	C310.113770,249.776550 305.049500,253.179993 301.419006,257.844513 
	C297.852478,262.426819 300.285828,268.958984 297.975555,275.457642 
	C295.688812,270.491302 297.403259,266.430054 296.343384,262.405975 
	C294.364105,263.446289 292.569366,264.590881 290.628784,265.374023 
	C283.150360,268.392029 277.348541,265.546722 275.326202,257.673004 
	C274.463593,254.314331 273.979523,250.793015 273.843048,247.325150 
	C273.371490,235.342865 273.130920,223.351501 272.797668,211.363724 
	C272.670319,206.782242 273.702454,202.551331 276.330597,198.591003 
	C278.482025,200.250061 277.943939,202.374695 278.035217,204.255447 
	C278.623901,216.388702 277.730347,228.566132 279.245728,240.682526 
	C279.557800,243.177841 279.865417,245.637070 280.664886,247.997711 
	C281.950195,251.793015 283.888306,255.161713 288.426819,255.425568 
	C292.573578,255.666641 297.403931,251.639221 298.664398,247.211563 
	C299.802673,243.213104 300.594696,239.096085 302.000763,235.197739 
	C305.716980,224.894440 313.374908,220.893570 324.095734,223.294464 
	C326.850800,223.911453 329.619904,224.584686 332.418854,224.853119 
	C335.206818,225.120483 338.040436,224.911713 340.894836,224.911713 
	C341.757812,230.526749 339.813782,233.630127 334.341217,235.369522 
	C331.807709,236.174759 329.281433,237.071426 326.872803,238.187607 
	C320.634277,241.078568 318.816742,244.512054 320.474670,249.843887 
	C321.785156,254.058380 327.593292,257.173279 332.730896,256.453247 
	C343.105347,254.999298 350.503510,249.473648 355.153137,240.148773 
	C355.664062,239.124176 356.263855,238.143875 356.802521,237.178741 
	C359.244110,237.053970 357.574127,240.037018 359.778259,240.230774 
	C364.965332,237.943924 364.825897,232.018417 367.106628,227.720535 
	C369.652222,228.123276 368.660095,230.545944 370.013153,231.899414 
	C376.093262,228.801422 374.961853,221.649597 378.378296,216.266632 
	C379.920624,219.095856 379.598267,221.629349 379.151184,223.828232 
	C377.292786,232.968155 373.953552,240.954086 365.634125,246.755630 
	C357.308411,252.561539 349.602783,259.290161 340.598450,264.870514 
M311.254395,238.713303 
	C313.448578,237.162216 315.642731,235.611130 318.172516,233.822815 
	C310.154510,230.951538 303.851807,235.858261 303.094635,245.165207 
	C305.790344,243.009933 308.229248,241.060013 311.254395,238.713303 
z"/>
<path fill="#000000" opacity="1.000000" stroke="none" 
	d="
M224.613159,231.639191 
	C233.502075,220.630081 245.037262,212.701233 254.246353,201.831558 
	C249.276184,201.237808 245.131027,204.535080 240.675888,202.733093 
	C242.848969,192.945679 248.997589,191.217529 262.637024,192.122192 
	C262.494629,196.436447 259.718536,199.417328 257.340790,202.502594 
	C252.341019,208.990158 246.338837,214.541595 240.298416,220.025024 
	C230.101318,229.281815 221.437607,239.753876 214.992493,251.946335 
	C212.247925,257.138306 210.192902,262.589081 211.962906,268.687317 
	C214.323532,276.820312 221.030563,280.325256 229.031570,277.546997 
	C238.892120,274.123047 251.316010,257.636353 251.841553,247.236771 
	C251.940048,245.288132 252.207886,243.254944 250.605026,241.711411 
	C248.117462,241.841644 247.277817,244.035355 245.628754,245.048492 
	C243.164810,246.562225 240.568497,247.024353 238.099075,245.465164 
	C235.694122,243.946716 235.323196,241.362137 235.929718,238.788269 
	C236.614899,235.880722 237.392731,232.963455 238.483841,230.189484 
	C241.021378,223.738220 247.774536,222.539124 252.487259,227.672653 
	C256.499176,232.042770 257.359680,237.734009 256.923950,243.110779 
	C255.538010,260.213654 247.983231,274.218384 234.134155,284.614380 
	C231.976883,286.233765 229.509689,287.202789 226.895248,287.846497 
	C217.253525,290.220306 210.959015,286.396179 208.668686,276.747864 
	C205.196121,262.119324 211.159576,250.051071 219.102051,238.554718 
	C220.706558,236.232254 222.612488,234.118011 224.613159,231.639191 
z"/>
<path fill="#000000" opacity="1.000000" stroke="none" 
	d="
M401.148865,196.002914 
	C408.331360,211.958801 413.084015,228.050858 412.284149,245.451157 
	C411.566376,261.063995 405.708984,269.705505 391.892242,274.717285 
	C390.411591,275.254395 388.924683,276.273163 387.157990,275.410919 
	C386.559082,272.997040 388.339508,271.712067 389.571106,270.272430 
	C393.245026,265.977753 397.069336,261.811523 400.734009,257.509186 
	C406.964203,250.194870 408.582886,241.944382 405.475525,232.815552 
	C403.456726,226.884628 401.435516,220.953552 397.933289,214.073471 
	C397.061523,221.162323 396.360260,226.864761 395.658997,232.567215 
	C394.898254,232.495529 394.137543,232.423843 393.376801,232.352158 
	C390.945587,217.822983 392.392944,203.426041 395.709625,188.344971 
	C398.942047,190.500961 399.625580,193.329269 401.148865,196.002914 
z"/>
<path fill="#000000" opacity="1.000000" stroke="none" 
	d="
M390.550110,289.608154 
	C392.771240,286.948029 394.633972,284.285400 398.918427,285.172363 
	C397.953705,288.429047 396.263885,291.467133 398.156494,294.815613 
	C398.762634,295.888000 397.558594,297.331207 396.617340,298.286469 
	C392.218109,302.750854 386.752777,304.409637 379.643951,304.869446 
	C382.691254,300.945068 386.921936,301.444244 389.842041,298.927704 
	C387.267883,295.856323 388.555695,292.866882 390.550110,289.608154 
z"/>
</svg>