<svg xmlns:xlink="http://www.w3.org/1999/xlink" version="1.1" id="Layer_1" xmlns="http://www.w3.org/2000/svg" x="0px" y="0px"
	 width="100%" viewBox="0 0 592 448" enable-background="new 0 0 592 448" xml:space="preserve">
<path fill="#000000" opacity="1.000000" stroke="none" 
	d="
M199.913849,246.986389 
	C208.460876,238.132401 218.801346,233.670944 230.374939,231.441040 
	C237.854385,229.999954 237.468048,229.788635 236.990723,222.348053 
	C236.543610,215.378006 233.302795,208.233353 237.594833,201.377731 
	C237.844513,200.978882 238.113098,200.591858 238.771255,199.597458 
	C241.516174,205.742706 241.798645,211.858673 242.180191,217.831741 
	C242.855042,228.396057 242.656799,228.428406 252.653534,225.031586 
	C257.779053,223.289978 262.876312,221.465134 268.752228,219.410004 
	C267.911530,222.350266 266.119110,222.802094 264.560394,223.442261 
	C258.250092,226.033829 251.934097,228.612473 245.595078,231.132614 
	C243.978775,231.775177 242.152176,232.394165 242.543732,234.459137 
	C243.441544,239.193665 242.779922,244.126068 244.505081,248.746002 
	C246.806564,254.909348 251.653015,256.090576 256.443054,251.525406 
	C258.792175,249.286545 260.414276,246.291321 263.430267,244.301666 
	C265.921844,248.927689 261.676239,252.027145 261.510498,256.766815 
	C271.905182,254.025284 280.383057,249.351562 287.577789,241.211212 
	C284.485657,239.863007 281.813660,240.561615 279.256989,240.348328 
	C271.984039,239.741531 269.552124,236.125549 271.872742,229.310913 
	C275.264709,219.350067 283.782379,213.135284 294.533539,212.693436 
	C298.628326,212.525131 300.812408,214.592392 301.234558,218.457397 
	C301.500122,220.888855 301.284058,223.372910 301.284058,226.149261 
	C304.934998,225.260773 307.243561,222.253143 310.190613,220.260101 
	C312.978271,218.374878 315.018738,215.137054 319.576599,215.061569 
	C319.295013,219.769806 317.846436,223.475754 314.201904,226.327881 
	C310.928528,228.889481 307.950165,231.860733 304.530304,234.195145 
	C298.702209,238.173447 297.207794,244.038010 296.299225,250.465759 
	C295.450378,256.471191 294.111847,262.407440 292.988831,268.374146 
	C292.463837,268.308044 291.938873,268.241943 291.413879,268.175842 
	C292.543762,260.334198 293.673676,252.492554 294.803558,244.650909 
	C294.233276,244.264908 293.663025,243.878922 293.092743,243.492920 
	C288.648285,248.373245 284.266724,253.312866 279.739075,258.114746 
	C276.249542,261.815613 271.921387,264.338318 267.110474,265.891602 
	C262.956665,267.232727 259.670868,264.869995 255.916183,263.542084 
	C252.744736,262.420441 248.766022,266.580292 244.564957,264.810822 
	C242.456055,263.922577 241.403534,261.959686 239.530914,260.335693 
	C237.769974,264.216705 236.223480,268.017975 234.358734,271.656158 
	C229.967712,280.223328 223.240036,286.049011 213.841736,288.629822 
	C202.742538,291.677673 191.659058,283.533386 191.965454,272.064667 
	C192.202805,263.180450 193.815018,254.501236 199.913849,246.986389 
M237.649414,242.437256 
	C236.476837,240.171585 240.524841,234.440353 233.825577,235.923523 
	C224.871216,237.905960 216.317963,241.196182 208.532837,246.179565 
	C202.059647,250.323181 197.907776,256.109192 196.559036,263.772400 
	C195.071930,272.221710 201.408508,280.154266 209.446396,279.548981 
	C215.515076,279.092041 221.045868,277.109863 225.778214,272.947540 
	C234.775635,265.033875 237.155350,254.592224 237.649414,242.437256 
M283.470032,229.378738 
	C286.647125,230.117630 289.707458,229.119476 292.809113,228.746155 
	C293.958862,228.607773 295.267822,228.562164 295.424591,227.035553 
	C295.590637,225.418747 294.351593,224.773621 293.134369,224.170959 
	C289.984741,222.611511 283.481354,224.201324 280.037079,227.416306 
	C280.434387,228.789413 281.779083,228.703033 283.470032,229.378738 
z"/>
<path fill="#000000" opacity="1.000000" stroke="none" 
	d="
M329.262421,216.998291 
	C329.089264,225.829163 329.470856,234.136627 330.361481,242.420639 
	C330.467621,243.408066 330.616608,244.398743 330.847229,245.363647 
	C332.478119,252.187271 335.883453,255.911758 340.080322,255.505463 
	C345.999268,254.932465 352.138855,248.380753 352.719757,242.620651 
	C353.670502,233.193665 357.651245,225.015961 364.320068,218.336395 
	C368.188751,214.461456 371.153900,214.859970 374.380219,219.279007 
	C377.090118,222.990692 379.502930,221.206512 381.839233,219.093170 
	C382.922150,218.113602 383.612701,216.699142 384.475922,215.478165 
	C385.331665,214.267715 386.180817,213.052612 386.840607,212.113235 
	C389.014771,211.328903 388.780853,214.007217 390.353149,213.862930 
	C392.916626,212.767395 392.824280,209.235962 395.408264,208.061493 
	C397.197845,213.773575 394.532501,221.629669 389.146484,225.480408 
	C385.650330,227.979980 381.876007,230.123383 378.090027,232.174866 
	C374.768921,233.974411 371.633026,234.092743 369.930389,229.830917 
	C369.201782,228.007156 368.037445,226.816269 366.158264,228.150589 
	C362.667358,230.629333 359.464661,233.429337 358.428467,237.994965 
	C361.701355,239.525955 363.848114,237.214417 366.291718,236.567139 
	C368.495453,235.983368 370.190521,236.210159 370.071198,238.770432 
	C369.925476,241.896820 369.753967,245.417450 366.699646,247.226990 
	C359.902954,251.253662 354.337616,256.817505 348.101685,261.533569 
	C344.903687,263.952148 341.568420,266.052429 337.332245,266.350952 
	C332.062622,266.722229 328.691742,264.328156 326.912415,259.600708 
	C325.374573,255.514755 324.948547,251.155884 324.850220,246.842346 
	C324.584442,235.187637 324.722412,223.524292 323.805145,211.886780 
	C323.428741,207.111633 324.814423,202.764313 327.783478,198.709076 
	C329.730042,204.532730 328.958252,210.570251 329.262421,216.998291 
z"/>
<path fill="#000000" opacity="1.000000" stroke="none" 
	d="
M426.068237,221.299561 
	C428.279144,231.866348 429.101776,242.039841 427.372681,252.389343 
	C425.285034,264.885010 416.461243,273.680817 403.315399,275.677124 
	C402.316925,273.341187 404.100098,271.999756 405.293762,270.603271 
	C408.967865,266.304962 412.792572,262.135651 416.480896,257.849213 
	C422.862335,250.432999 424.698608,242.068176 421.453735,232.739120 
	C419.390991,226.808685 417.528778,220.789459 413.872803,214.282608 
	C413.067322,221.029587 412.384094,226.752563 411.634460,233.031662 
	C406.660156,228.016754 407.473877,199.528900 412.573669,188.321396 
	C419.554932,198.547501 422.772186,209.714218 426.068237,221.299561 
z"/>
<path fill="#000000" opacity="1.000000" stroke="none" 
	d="
M412.573730,298.347321 
	C407.919434,302.791046 402.606537,304.409027 395.741608,304.869385 
	C398.664520,300.908356 402.900848,301.453827 405.542999,299.219452 
	C403.019287,292.096130 407.842865,284.722534 415.812744,285.528351 
	C410.339386,289.126343 416.233429,294.229645 412.573730,298.347321 
z"/>
<path fill="#000000" opacity="1.000000" stroke="none" 
	d="
M251.073029,281.135834 
	C253.265015,277.177399 258.256927,273.975708 265.337372,271.757660 
	C266.800720,278.249298 259.392700,285.457916 249.571182,287.002106 
	C248.813553,284.860046 250.399048,283.282623 251.073029,281.135834 
z"/>
</svg>