<svg version="1.1" id="Layer_1" xmlns="http://www.w3.org/2000/svg" x="0px" y="0px"
     width="100%" viewBox="0 0 592 448" enable-background="new 0 0 592 448" xml:space="preserve">
<path fill="#000000" opacity="1.000000" stroke="none" 
	d="
M289.874390,268.898315 
	C288.478180,270.114624 287.443085,271.262329 286.175140,272.020935 
	C279.712738,275.887268 274.279846,280.426605 273.870209,288.763245 
	C273.828461,289.612091 273.305573,290.721649 271.678986,290.833221 
	C269.243469,288.309509 272.014313,285.324188 271.325653,282.034027 
	C258.810822,286.377197 246.179581,289.131744 232.230545,288.123077 
	C234.255035,285.510620 236.592682,285.218506 238.718872,284.611542 
	C250.108612,281.360077 261.276031,277.580109 271.425415,271.281006 
	C272.997894,270.305084 274.532715,269.408997 275.143585,267.465729 
	C279.170990,254.653305 285.620911,242.595444 287.249817,229.040390 
	C288.122772,221.775940 290.256317,214.416809 286.304657,206.705627 
	C281.066467,214.389328 280.178680,223.436554 275.264282,230.690079 
	C277.737030,215.069672 282.350983,200.211197 290.770325,186.437805 
	C297.457520,203.654449 294.034241,220.547775 289.476135,238.145157 
	C297.642090,231.217361 305.732666,225.141739 316.826691,220.964386 
	C314.130859,241.465210 303.251465,255.672302 289.874390,268.898315 
M296.602112,244.139969 
	C287.576843,250.733963 282.768402,257.067657 281.899933,263.877563 
	C291.094879,256.134033 299.953003,248.575363 305.447754,237.731598 
	C302.684418,239.720596 299.921082,241.709595 296.602112,244.139969 
z"/>
<path fill="#000000" opacity="1.000000" stroke="none" 
	d="
M374.901489,213.387024 
	C374.326172,212.026077 373.877899,210.994690 373.239258,209.525314 
	C370.695953,215.518021 371.113983,221.714920 368.514130,227.087936 
	C368.419952,227.282562 367.943054,227.291992 366.796539,227.659714 
	C367.176544,215.656769 369.478790,204.435501 373.351501,193.003448 
	C377.171783,194.417343 378.380219,197.229233 379.217010,199.970398 
	C385.527954,220.643616 382.647888,239.563950 368.887299,256.759857 
	C364.626648,262.084137 360.217804,266.675507 353.768860,269.014862 
	C351.563812,269.814728 350.982635,271.734833 350.336517,273.617554 
	C347.747345,281.162384 343.176025,287.487091 338.137604,293.524506 
	C328.751434,304.771698 316.293549,306.700500 302.784515,304.814880 
	C298.316132,304.191162 293.481598,304.173126 288.230896,299.731781 
	C314.237488,302.568665 332.590515,292.520782 346.647705,272.434113 
	C345.376526,272.059235 345.075073,271.878845 344.788330,271.899811 
	C341.555298,272.135834 337.733673,273.787170 335.520996,270.448212 
	C333.211487,266.963257 335.450012,263.324371 337.040527,260.090912 
	C341.437500,251.151947 345.169373,250.548431 352.219421,257.386902 
	C353.926178,259.042419 360.025269,257.365051 361.868561,254.032181 
	C363.801697,250.536880 366.734344,248.195404 369.420502,245.517624 
	C378.739838,236.227310 379.487427,225.432800 374.901489,213.387024 
z"/>
</svg>