<svg version="1.1" id="Layer_1" xmlns="http://www.w3.org/2000/svg" x="0px" y="0px"
     width="100%" viewBox="0 0 592 448" enable-background="new 0 0 592 448" xml:space="preserve">
<path fill="#000000" opacity="1.000000" stroke="none" 
	d="
M351.296387,214.260147 
	C355.485901,210.965942 359.796295,208.261856 359.061584,202.116180 
	C358.887512,200.660126 359.582245,198.452789 361.149933,197.784546 
	C366.283997,195.596085 370.311920,192.003128 374.074249,187.709732 
	C376.705933,189.817307 376.200836,192.098068 375.699310,194.325714 
	C373.374237,204.653717 366.432434,211.805450 358.906586,218.518311 
	C354.703491,222.267349 350.389954,225.892593 345.208466,230.365921 
	C351.760284,229.427338 356.049377,225.539261 361.360535,224.708878 
	C362.826447,226.749268 361.414246,228.377853 360.781616,229.923935 
	C355.883789,241.893112 347.894073,251.593323 338.407562,260.202576 
	C334.345612,263.888916 329.826996,264.268738 325.011139,262.329285 
	C323.289307,261.635834 322.153748,261.413422 320.583282,262.803802 
	C315.770660,267.064545 315.694122,266.974823 311.300171,261.999115 
	C310.755341,261.382141 310.182129,260.790192 309.404114,259.951752 
	C306.299194,261.901825 303.378418,264.043976 300.196686,265.677948 
	C289.859070,270.986816 286.213623,269.073914 284.301453,257.058441 
	C280.861145,260.470428 279.356140,264.680481 277.084045,268.363892 
	C272.789307,275.326355 268.713715,282.544586 260.689758,285.960938 
	C251.785049,289.752258 242.790115,288.986420 233.766098,286.225952 
	C236.010223,283.988007 238.913452,284.316956 241.470444,283.965759 
	C255.130463,282.089325 264.978912,274.395844 272.775787,263.684937 
	C276.787262,258.174255 280.185699,252.220963 284.014221,246.571426 
	C285.367584,244.574341 286.835663,242.439224 289.985413,242.057434 
	C290.776001,244.579346 290.139221,246.967880 289.801849,249.370407 
	C288.877991,255.949753 292.628601,258.974945 298.679718,256.303284 
	C303.758087,254.061066 308.114502,250.632462 311.870300,246.566818 
	C314.405334,243.822693 316.724579,243.392670 319.396027,246.198700 
	C327.791779,255.017426 334.849518,254.113312 343.677887,245.161850 
	C345.197113,243.621445 346.726532,242.144302 348.018677,239.821808 
	C342.626892,241.023590 338.105347,244.252182 332.030090,244.149353 
	C333.587616,230.730682 342.348877,222.639206 351.296387,214.260147 
z"/>
</svg>