<svg version="1.1" id="Layer_1" xmlns="http://www.w3.org/2000/svg" x="0px" y="0px"
     width="100%" viewBox="0 0 592 448" enable-background="new 0 0 592 448" xml:space="preserve">
<path fill="#000000" opacity="1.000000" stroke="none" 
	d="
M295.115845,229.658096 
	C297.279724,227.715500 297.279724,227.715500 298.959045,231.911560 
	C305.078369,228.701614 303.998444,221.555603 307.121857,216.423798 
	C310.404755,225.246719 303.993561,240.142380 295.945312,246.001862 
	C283.806488,254.839432 271.955017,264.063141 259.513672,272.500031 
	C255.348450,275.324615 255.800247,277.672791 260.240997,280.324493 
	C269.252991,285.705811 270.111328,287.557343 266.736328,297.702881 
	C263.130737,308.541534 256.705414,317.578644 247.885056,324.845673 
	C245.012619,327.212250 241.622971,328.762482 237.926163,329.200928 
	C225.089935,330.723389 220.488373,322.763611 221.034943,309.380615 
	C221.399384,300.457306 224.099854,292.005524 228.919952,284.401764 
	C233.466431,277.229675 238.068054,270.081818 242.940613,263.130188 
	C247.877731,256.086456 250.038376,247.847610 253.433365,239.041931 
	C255.059494,242.398056 254.339447,244.745499 253.714310,247.024460 
	C250.903564,257.271210 245.892212,266.410126 239.854919,275.101105 
	C234.266815,283.145447 228.086151,290.909210 225.937256,300.857697 
	C224.702362,306.574738 224.803558,311.878204 229.987305,315.737427 
	C235.030716,319.492218 240.203125,319.387146 246.215973,315.430298 
	C252.832687,311.076080 258.480774,305.710327 262.640106,298.900665 
	C263.989197,296.691925 264.586884,294.466919 261.604919,293.065002 
	C258.350037,291.534790 254.325607,291.068115 252.921951,287.012695 
	C251.208511,282.062256 252.332748,277.119110 253.456421,272.266052 
	C254.590042,267.370117 257.350830,263.596558 261.654846,260.784943 
	C266.668396,257.509827 271.551819,254.008835 276.285553,250.339828 
	C280.797577,246.842636 283.683350,241.982208 285.773346,236.856750 
	C287.991241,237.447540 286.709625,239.634842 288.653351,240.252762 
	C292.759033,238.281876 293.951599,234.187775 295.115845,229.658096 
z"/>
<path fill="#000000" opacity="1.000000" stroke="none" 
	d="
M327.765747,297.838928 
	C315.676910,306.701843 290.899536,308.006287 282.554413,299.002991 
	C295.083771,301.829529 305.741669,299.636597 315.812347,294.662781 
	C325.964722,289.648529 334.392273,282.649323 340.156219,272.647675 
	C339.470245,272.200867 339.212128,271.885590 338.979706,271.903564 
	C335.742340,272.153442 332.007355,273.755798 329.636078,270.605621 
	C327.169952,267.329468 329.513885,263.895813 330.814789,260.734467 
	C331.564301,258.913025 332.639526,257.159088 333.869934,255.615295 
	C336.835510,251.894409 340.758087,251.766251 344.250366,254.855042 
	C345.634155,256.078918 345.899841,259.227753 348.476685,258.342194 
	C351.542847,257.288422 354.733643,256.204315 356.647675,253.047729 
	C360.306183,247.014145 365.148560,241.687897 366.562286,234.383560 
	C367.282501,230.662521 369.845306,229.747574 373.356812,231.534668 
	C374.814972,232.276779 376.556091,232.440338 378.091675,233.058136 
	C380.531769,234.039825 384.510498,234.083603 383.149719,238.233063 
	C382.068604,241.529816 381.571136,246.251633 375.700989,244.542877 
	C373.106049,243.787506 370.838501,245.433685 368.921051,247.054443 
	C365.320282,250.098038 361.974091,253.744995 360.589691,258.089539 
	C359.008728,263.050873 355.781982,265.525543 351.490601,267.128510 
	C347.460114,268.634003 345.123199,271.126495 343.585205,275.269196 
	C340.355408,283.968872 334.815369,291.267578 327.765747,297.838928 
z"/>
</svg>