<svg version="1.1" id="Layer_1" xmlns="http://www.w3.org/2000/svg" x="0px" y="0px"
     width="100%" viewBox="0 0 592 448" enable-background="new 0 0 592 448" xml:space="preserve">
<path fill="#000000" opacity="1.000000" stroke="none" 
	d="
M270.005371,291.042969 
	C282.569885,294.653961 294.938507,296.565948 308.269775,294.633179 
	C306.988708,297.864227 304.459747,297.782806 302.709381,297.914886 
	C289.014526,298.948181 275.474060,298.909546 262.797913,292.224152 
	C248.995941,284.944977 244.514252,273.027802 251.020493,258.837494 
	C256.367371,247.175842 264.114136,237.252029 274.187134,229.218704 
	C276.790192,227.142746 279.379211,225.047516 282.027618,223.030685 
	C283.753845,221.716156 284.431915,220.427887 283.955322,217.981247 
	C282.478302,210.398849 286.830017,202.174393 293.743591,198.465042 
	C299.034241,195.626450 304.448242,193.044189 310.180817,191.258347 
	C314.587494,189.885544 316.565674,191.877762 315.498657,196.323105 
	C313.415497,205.001419 308.997528,212.212143 302.267456,218.128311 
	C293.624390,225.726135 283.843231,231.832428 275.042877,239.208298 
	C267.726440,245.340454 261.154327,252.187363 256.425537,260.548309 
	C249.375748,273.013092 251.995087,281.764465 264.644287,288.650787 
	C266.244324,289.521820 267.972534,290.157379 270.005371,291.042969 
M295.747345,206.249756 
	C288.462708,209.689926 288.462708,209.689926 291.521576,216.322678 
	C297.582245,212.633820 303.292358,208.637650 308.507172,202.403427 
	C303.531769,202.829239 299.975830,204.377884 295.747345,206.249756 
z"/>
<path fill="#000000" opacity="1.000000" stroke="none" 
	d="
M360.584991,240.053406 
	C359.902527,236.846466 357.640137,238.519806 355.663696,238.159775 
	C356.479034,232.772675 357.754974,227.868240 362.145508,223.972168 
	C366.487610,228.204407 366.678162,233.165161 366.251190,238.144577 
	C365.496948,246.940567 361.643158,254.750565 357.689423,262.421844 
	C356.293030,265.131165 352.954742,266.061493 350.221588,267.156403 
	C346.230377,268.755280 343.936462,271.321991 342.458160,275.443481 
	C339.372040,284.047363 333.880005,291.257874 327.225037,297.405609 
	C318.240753,305.705109 307.129913,306.318420 295.778229,304.820435 
	C291.320801,304.232239 286.623383,303.816742 282.731781,300.208252 
	C294.040192,301.342804 304.720276,299.820435 314.760437,294.663727 
	C324.856628,289.478241 333.472687,282.757080 339.241455,272.345459 
	C338.406525,272.085632 337.975250,271.797485 337.602203,271.859528 
	C334.476044,272.379364 330.953979,273.452545 328.692108,270.639099 
	C326.254700,267.607422 328.215546,264.266998 329.634613,261.275665 
	C330.627747,259.182281 331.705658,257.058289 333.136566,255.258774 
	C335.778351,251.936432 339.471375,251.860275 342.803650,254.512527 
	C344.327209,255.725143 344.711487,258.616241 346.991272,258.357117 
	C350.158173,257.997192 353.343933,256.409363 355.328186,254.164078 
	C358.662415,250.391281 362.239288,246.275391 360.584991,240.053406 
z"/>
<path fill="#000000" opacity="1.000000" stroke="none" 
	d="
M352.606750,214.557236 
	C350.318176,210.306656 354.132141,208.495193 355.603729,205.837921 
	C356.278564,204.619385 357.528076,204.809570 358.665863,205.372177 
	C360.152679,206.107361 362.067963,206.865448 362.023468,208.633392 
	C361.950104,211.547256 360.025970,213.815811 358.030212,215.766281 
	C356.052704,217.698898 354.450562,215.850769 352.606750,214.557236 
z"/>
</svg>