<svg version="1.1" id="Layer_1" xmlns="http://www.w3.org/2000/svg" x="0px" y="0px"
     width="100%" viewBox="0 0 592 448" enable-background="new 0 0 592 448" xml:space="preserve">
<path fill="#000000" opacity="1.000000" stroke="none" 
	d="
M274.258575,217.270508 
	C276.939728,214.511200 279.458557,212.078659 281.780670,209.470917 
	C286.418793,204.262314 286.876678,201.173676 284.142090,194.074493 
	C281.296051,197.520294 283.083710,202.358368 279.653381,205.419327 
	C278.765686,195.689651 280.431183,186.344879 283.827209,177.043137 
	C295.425537,183.518616 293.058807,211.843735 271.597321,230.552078 
	C278.609802,227.353912 283.636566,222.763306 289.597198,220.387100 
	C291.202148,222.263260 290.308807,223.484024 289.953491,224.702896 
	C284.870880,242.138641 275.154785,256.082001 259.684387,266.010681 
	C254.550583,269.305511 249.638672,273.181274 246.183899,278.451447 
	C241.728912,285.247375 242.829697,289.259552 250.187973,292.661346 
	C261.376892,297.834106 273.220184,296.899170 285.025146,296.257416 
	C287.080261,296.145660 289.233307,295.131134 291.487335,296.945282 
	C290.246124,299.470215 287.691681,299.588104 285.648193,299.956879 
	C274.238953,302.015930 262.809296,302.150940 251.497070,299.286926 
	C240.512390,296.505859 236.438248,288.650879 240.392944,278.068573 
	C242.894348,271.375183 247.003647,265.825317 252.492844,261.235413 
	C260.021851,254.939850 268.389099,249.664719 275.267944,242.585571 
	C276.995056,240.808197 278.532410,238.846405 281.168213,235.800934 
	C272.671722,239.358017 266.813690,244.885986 258.476715,247.303772 
	C260.145111,234.941345 265.489807,225.423050 274.258575,217.270508 
z"/>
<path fill="#000000" opacity="1.000000" stroke="none" 
	d="
M302.818451,214.046326 
	C302.395172,208.001938 303.356781,202.793137 306.529663,197.912994 
	C308.571228,199.737671 307.968689,201.865265 308.036041,203.768051 
	C308.483368,216.404709 307.866699,229.077942 309.345612,241.678329 
	C309.518616,243.152390 309.788971,244.622635 310.127136,246.068237 
	C311.117157,250.299805 312.804230,254.464157 317.460785,255.263214 
	C321.694702,255.989777 324.911163,253.221436 327.572266,249.974579 
	C328.905151,248.348328 330.079468,246.435257 332.530029,245.571808 
	C334.686890,248.882919 331.852325,251.862122 331.761780,254.941833 
	C340.675720,254.920364 344.756866,251.984863 347.075409,244.075607 
	C350.871704,231.125290 362.618439,222.103973 376.180511,221.467957 
	C379.904846,221.293274 379.620483,223.664200 379.006287,225.669144 
	C375.806335,236.114700 370.434631,245.168488 361.191376,251.442566 
	C358.720337,253.119827 356.080963,254.624756 353.350372,255.825592 
	C349.537476,257.502411 345.321655,258.571442 345.731781,264.054291 
	C342.836151,263.712830 344.424988,260.932526 342.283264,259.984070 
	C335.746918,260.903351 328.739410,260.101318 321.979980,264.619354 
	C314.067047,269.908417 306.373047,265.470367 304.844879,255.888885 
	C304.192078,251.796051 303.903564,247.625778 303.734283,243.479065 
	C303.340515,233.832687 303.119690,224.179214 302.818451,214.046326 
M354.019653,246.353546 
	C360.041290,242.559097 366.128601,238.847656 371.916199,232.950256 
	C357.842133,235.576385 348.979248,240.601791 349.812500,247.827896 
	C351.202881,248.083801 352.283264,247.270447 354.019653,246.353546 
z"/>
</svg>