<svg version="1.1" id="Layer_1" xmlns="http://www.w3.org/2000/svg" x="0px" y="0px"
     width="100%" viewBox="0 0 592 448" enable-background="new 0 0 592 448" xml:space="preserve">
<path fill="#000000" opacity="1.000000" stroke="none" 
	d="
M240.231598,234.117401 
	C247.159149,229.649490 254.446533,227.485931 262.288696,227.718353 
	C274.374969,228.076538 286.243408,227.292725 297.569275,222.567032 
	C298.282745,222.269348 299.086426,221.780136 299.909393,222.438843 
	C300.412384,223.460373 299.755707,224.027206 298.994171,224.352448 
	C290.736969,227.878937 282.572449,231.316833 273.246155,231.485703 
	C260.733185,231.712280 248.153381,232.553482 237.653641,240.758011 
	C225.818298,250.006195 221.956345,266.829254 236.669281,277.555115 
	C243.197556,282.314301 250.280289,282.141846 257.623444,280.001953 
	C267.499054,277.124023 275.453918,271.133850 282.855194,264.327698 
	C290.211884,257.562531 297.392609,250.606186 304.662384,243.746246 
	C305.961792,242.520111 307.124603,241.016006 309.357452,240.977280 
	C310.822113,243.251312 309.197662,245.154449 308.740936,247.094330 
	C308.217255,249.318481 307.912231,251.410110 310.015228,252.981995 
	C312.026855,254.485611 314.141968,254.821640 316.569885,253.764664 
	C319.437775,252.516129 321.496155,250.428116 323.413452,248.088531 
	C324.541901,246.711563 325.604156,245.214874 327.546814,244.460602 
	C329.858765,248.898148 325.893372,252.055099 325.504120,256.195801 
	C331.230927,256.071014 335.486176,253.755280 339.102417,250.217361 
	C338.320404,247.575775 335.807678,249.213074 334.811127,247.775482 
	C335.542084,237.282303 345.421997,231.649567 355.001404,236.205673 
	C357.143860,237.224686 357.722076,238.923340 357.463745,241.139328 
	C357.198944,243.410568 355.927856,245.194931 354.626556,246.895660 
	C353.122955,248.860764 351.764404,250.626129 353.878601,253.011734 
	C355.874512,255.263885 358.139374,256.176300 360.962952,254.726944 
	C367.125885,251.563477 372.582123,247.625122 375.821106,241.216095 
	C376.546417,239.780807 376.699341,237.947952 378.335724,237.092575 
	C380.038727,237.467514 378.714325,239.773438 380.528503,240.164841 
	C386.053680,237.968887 385.879883,231.985794 388.138855,227.715652 
	C390.557098,228.244278 389.675598,230.675674 391.081299,231.797073 
	C397.237549,228.899857 395.801056,221.686920 399.151764,217.008621 
	C402.636963,225.536880 396.183868,241.126328 388.000885,246.160385 
	C382.179230,249.741760 376.935150,254.264893 371.455048,258.396606 
	C369.862061,259.597626 368.394073,260.966583 366.783600,262.141815 
	C357.096313,269.210907 350.798981,267.767029 345.068939,256.954956 
	C341.024780,258.855713 338.674835,263.042603 334.378540,264.704315 
	C329.744080,266.496796 325.439575,267.457886 321.244568,264.055115 
	C320.230896,263.232910 319.426392,263.018463 318.116425,263.408234 
	C307.658752,266.519867 305.146545,264.838837 303.448090,253.571823 
	C299.737305,257.090698 295.966187,260.394440 292.509766,263.999847 
	C284.764984,272.078491 276.762390,279.832428 267.164795,285.727905 
	C259.687836,290.320709 251.658615,292.770264 242.863480,290.900024 
	C227.875534,287.712982 219.293900,271.485260 224.180466,255.593307 
	C226.914383,246.702103 232.191757,239.572891 240.231598,234.117401 
z"/>
<path fill="#000000" opacity="1.000000" stroke="none" 
	d="
M392.902954,193.328232 
	C395.741089,192.571930 398.459229,191.875107 399.825348,194.758987 
	C401.248535,197.763199 399.145081,200.124191 397.513611,202.407516 
	C396.038239,204.472382 394.450745,205.008560 392.091644,203.296661 
	C389.864044,201.680222 388.103546,203.766647 386.369690,204.896347 
	C382.109253,207.672211 380.513458,212.742096 376.919678,216.396378 
	C375.883728,210.143402 384.062073,198.374390 392.902954,193.328232 
z"/>
<path fill="#000000" opacity="1.000000" stroke="none" 
	d="
M330.097046,272.635651 
	C328.837189,282.519836 320.492401,283.884399 313.741730,287.852936 
	C313.639618,279.259247 321.767212,271.866760 330.097046,272.635651 
z"/>
<path fill="#000000" opacity="1.000000" stroke="none" 
	d="
M261.152130,311.232727 
	C255.879395,308.366974 255.901184,303.058563 260.855591,300.033417 
	C262.617737,298.957458 263.995300,299.950348 265.364075,300.852509 
	C266.904572,301.867828 267.757385,303.275452 266.685852,305.021027 
	C265.261169,307.341888 264.386383,310.171143 261.152130,311.232727 
z"/>
</svg>