<svg version="1.1" id="Layer_1" xmlns="http://www.w3.org/2000/svg" x="0px" y="0px"
     width="100%" viewBox="0 0 592 448" enable-background="new 0 0 592 448" xml:space="preserve">
<path fill="#000000" opacity="1.000000" stroke="none" 
	d="
M281.973755,248.815765 
	C286.135590,256.553680 290.202759,257.357269 296.864197,252.164215 
	C300.127258,249.620438 302.385468,244.968536 306.452820,244.555557 
	C310.403564,244.154419 312.860718,248.813110 316.335205,250.721298 
	C321.158295,253.370071 324.486176,252.954041 328.456543,249.049469 
	C330.054047,247.478394 331.067902,245.184769 333.634155,244.572357 
	C335.996948,248.898071 331.650879,251.988449 331.602295,255.800232 
	C343.257751,256.197632 353.574951,246.707108 353.721802,235.529190 
	C353.804932,229.200790 353.673950,222.869781 353.670868,216.539932 
	C353.669220,213.153580 354.396240,210.004196 356.787476,207.338486 
	C359.172729,208.534103 358.246338,210.615585 358.294983,212.235107 
	C358.645020,223.883377 358.857910,235.535721 359.150208,247.185867 
	C359.216370,249.823029 358.839447,252.937698 361.997131,254.027649 
	C364.964264,255.051788 367.450012,253.353912 369.561859,251.346573 
	C373.914581,247.209259 377.614441,242.575333 379.588287,236.977386 
	C382.116119,237.237076 380.774872,239.467865 382.443909,240.266739 
	C388.134766,238.229614 387.664551,231.895111 390.199310,227.687332 
	C392.529633,228.220215 391.625214,230.648743 393.133148,231.844849 
	C398.990326,228.609238 398.039703,221.525375 401.243378,216.422836 
	C403.910645,224.498627 398.895142,238.855667 391.857635,244.518036 
	C384.294373,250.603363 375.965912,255.684265 368.731110,262.203064 
	C367.758972,263.078979 366.586884,263.811523 365.389252,264.345612 
	C358.824677,267.273254 354.187531,264.427826 353.698212,257.188385 
	C353.579376,255.430084 353.680511,253.656921 353.680511,250.499420 
	C349.765320,256.987793 346.067261,261.771912 340.347626,264.609253 
	C336.001495,266.765228 331.801453,267.306122 327.631470,264.381195 
	C326.340607,263.475739 324.997131,262.977692 323.426880,263.198822 
	C319.877197,263.698761 316.494904,263.305054 313.670044,261.101410 
	C307.241943,267.146271 307.241943,267.146271 300.319458,260.180054 
	C298.187836,260.423920 297.001953,262.165680 295.462341,263.368866 
	C287.000977,269.981140 277.129181,266.247894 275.800110,255.698105 
	C273.841309,240.149292 274.659515,224.455414 273.866180,208.838821 
	C273.683716,205.246918 275.227173,201.745117 277.386383,198.198029 
	C279.544800,200.064163 279.053375,202.303177 279.134308,204.269104 
	C279.620178,216.069031 278.751678,227.901764 280.208130,239.690186 
	C280.576508,242.671326 280.830963,245.620453 281.973755,248.815765 
z"/>
<path fill="#000000" opacity="1.000000" stroke="none" 
	d="
M262.283203,209.164093 
	C255.702026,218.690475 247.246033,226.117584 240.167038,234.738052 
	C233.260239,243.148773 226.929642,251.836212 224.883408,262.947754 
	C224.185699,266.736481 225.268478,269.518555 228.028259,271.774872 
	C230.782303,274.026520 233.877029,273.940460 236.914215,272.318298 
	C242.782257,269.184265 247.498398,264.765686 250.744476,258.964630 
	C252.243484,256.285706 254.241119,253.225006 250.508743,250.599487 
	C247.219421,248.285614 244.125290,249.339844 240.768051,254.126053 
	C246.968567,255.398636 245.162155,258.967407 243.407990,262.744537 
	C241.479706,266.896576 238.464569,266.443146 235.056320,265.180084 
	C233.098618,264.454590 232.535873,263.198242 233.260651,261.271790 
	C235.660980,254.891769 237.772232,248.368408 241.600082,242.646210 
	C244.243423,238.694733 248.045258,236.394150 252.719513,238.131409 
	C257.283234,239.827545 258.590271,244.479324 257.871613,248.561234 
	C255.689926,260.953033 250.488693,272.099762 240.876953,280.528320 
	C236.438675,284.420258 230.492416,286.221222 225.052170,283.243896 
	C219.480484,280.194611 219.854706,273.860138 220.106003,268.457550 
	C220.678192,256.156403 226.006332,245.676422 233.969498,236.549118 
	C240.098068,229.524582 246.429214,222.659760 252.964828,216.013565 
	C257.129883,211.778015 260.098846,206.656830 264.025635,201.192123 
	C265.371094,204.929581 263.514679,206.794022 262.283203,209.164093 
z"/>
<path fill="#000000" opacity="1.000000" stroke="none" 
	d="
M335.382904,276.209290 
	C331.971985,283.016022 325.499542,284.664307 319.324463,287.944031 
	C319.687469,276.547333 328.393890,274.997925 335.211395,271.427399 
	C336.824951,273.113495 335.966614,274.486481 335.382904,276.209290 
z"/>
</svg>