<svg version="1.1" id="Layer_1" xmlns="http://www.w3.org/2000/svg" x="0px" y="0px"
     width="100%" viewBox="0 0 592 448" enable-background="new 0 0 592 448" xml:space="preserve">
<path fill="#000000" opacity="1.000000" stroke="none" 
	d="
M363.576904,217.455704 
	C365.361206,216.242599 366.736267,214.970993 369.448639,215.059052 
	C369.653809,219.600952 368.052795,223.093567 364.766235,225.883499 
	C361.468811,228.682678 358.214691,231.565445 354.692688,234.060150 
	C349.028778,238.071945 347.160950,243.786804 346.308655,250.275940 
	C345.483154,256.561096 344.390228,262.830933 342.529419,268.899750 
	C342.090851,268.832001 341.652252,268.764252 341.213684,268.696472 
	C342.428864,260.735413 343.644043,252.774353 345.102081,243.222214 
	C338.966705,249.180008 334.022675,254.154633 328.886536,258.922302 
	C323.106232,264.287842 318.657013,264.815613 311.741150,261.331665 
	C310.431152,261.516449 309.847504,262.645905 309.129974,263.499725 
	C306.414703,266.730896 303.839905,266.548767 301.395538,263.279205 
	C299.118042,260.232849 296.796783,259.689941 294.222412,262.891754 
	C294.121887,263.016724 293.968750,263.120514 293.818756,263.181641 
	C279.618347,268.968414 273.344513,281.151550 267.884155,294.362823 
	C263.982849,303.802032 258.213531,312.082611 246.913071,313.785431 
	C239.981491,314.829926 232.994644,314.990936 226.113281,313.227997 
	C224.761841,312.881775 223.069168,312.743835 222.813492,310.413635 
	C226.532593,309.253601 230.202652,311.068268 233.940521,310.422546 
	C248.683014,307.875885 258.224945,298.781128 265.234467,286.359985 
	C268.339905,280.857117 270.779114,275.002502 274.237915,269.667786 
	C276.735748,265.815247 279.754486,262.568329 283.547394,260.065399 
	C289.943451,255.844711 296.373413,251.674301 301.579956,245.952454 
	C303.542206,243.796021 305.435303,243.675217 307.567719,245.653793 
	C308.417725,246.442459 309.489380,246.993362 310.333038,247.787491 
	C317.410187,254.449188 323.316772,253.394043 331.170685,247.356644 
	C333.368652,245.666992 335.642670,243.950760 337.290527,241.112320 
	C334.595184,239.946442 332.097351,240.508362 329.697998,240.366028 
	C322.087402,239.914551 319.522308,236.299438 321.871399,229.278610 
	C325.214874,219.285797 334.400238,212.744202 345.016205,212.667145 
	C348.957214,212.638550 350.857635,214.766541 351.242615,218.352829 
	C351.503540,220.783249 351.292419,223.264343 351.292419,226.084320 
	C356.179871,224.580200 359.274750,220.435974 363.576904,217.455704 
M335.062317,224.436432 
	C333.338684,225.223755 331.046204,225.043365 329.992035,227.559265 
	C334.589264,231.127533 339.579315,229.409470 344.221741,228.328918 
	C346.713074,227.749008 345.438110,225.794830 343.962738,224.666519 
	C341.343109,222.663132 338.558685,223.822937 335.062317,224.436432 
z"/>
</svg>