<svg version="1.1" id="Layer_1" xmlns="http://www.w3.org/2000/svg" x="0px" y="0px"
     width="100%" viewBox="0 0 592 448" enable-background="new 0 0 592 448" xml:space="preserve">
<path fill="#000000" opacity="1.000000" stroke="none" 
	d="
M374.491089,244.900574 
	C370.234344,246.396805 368.048737,250.310974 364.942505,253.191071 
	C360.060028,257.718140 355.553162,262.679749 349.156952,265.213989 
	C345.027557,266.850098 341.048981,267.059174 337.377991,264.122009 
	C336.309082,263.266785 335.321106,262.434967 333.807373,262.888367 
	C330.070984,264.007477 326.611725,263.257202 323.605072,261.025574 
	C317.190857,267.003601 317.190857,267.003601 310.304199,260.201355 
	C308.135040,260.376923 306.982910,262.170868 305.445007,263.370972 
	C297.166748,269.830963 287.697906,266.384491 285.874542,256.127167 
	C285.207153,252.372757 284.895721,248.527908 284.755280,244.712067 
	C284.338745,233.395813 284.096802,222.073212 283.768524,210.753601 
	C283.639404,206.300522 284.976868,202.316971 287.400146,198.210739 
	C289.576141,200.160233 289.028046,202.422806 289.100220,204.406845 
	C289.541931,216.547791 288.733398,228.729446 290.315216,240.834747 
	C290.465790,241.987000 290.360321,243.180801 290.582672,244.314331 
	C292.905182,256.155823 299.538513,258.450775 308.664490,250.597870 
	C308.790802,250.489182 308.914124,250.377029 309.039124,250.266800 
	C316.441803,243.739685 316.441803,243.739685 324.599609,249.562119 
	C330.719788,253.930237 335.057587,253.374374 340.215576,247.578842 
	C340.877441,246.835205 341.557831,246.095581 342.314880,245.454849 
	C342.649536,245.171570 343.197083,245.139801 343.706543,244.974869 
	C345.802643,249.174744 341.864349,252.145004 341.400452,256.890320 
	C351.937225,254.164703 360.245575,249.209869 367.628906,241.363281 
	C364.551727,239.785507 361.878876,240.558380 359.347107,240.352676 
	C352.051025,239.759918 349.560242,236.139526 351.854095,229.374420 
	C355.246552,219.369278 363.702637,213.159500 374.485046,212.695923 
	C378.850006,212.508255 381.013885,214.761032 381.268585,218.893188 
	C381.409546,221.180115 381.109344,223.494217 380.991669,226.167587 
	C384.938812,225.275635 387.252899,222.289322 390.143372,220.234482 
	C392.902161,218.273285 395.048492,215.236237 399.520996,214.958054 
	C399.522278,219.794754 397.839050,223.405151 394.271851,226.268250 
	C391.026672,228.872849 388.003967,231.787689 384.591736,234.143631 
	C378.814667,238.132401 377.186768,243.941147 376.296783,250.401184 
	C375.470398,256.399414 374.115387,262.324799 372.993134,268.282257 
	C372.489685,268.211273 371.986237,268.140320 371.482788,268.069336 
	C372.526428,260.428497 373.570068,252.787659 374.491089,244.900574 
M367.388214,229.582001 
	C369.018158,229.323425 370.650360,229.078339 372.277283,228.801910 
	C373.522675,228.590271 375.175903,228.863770 375.403748,227.073074 
	C375.641418,225.204727 374.081879,224.579727 372.714020,223.995499 
	C369.357574,222.561890 362.464020,224.651596 360.089386,227.847900 
	C362.017120,229.343903 364.252869,229.633118 367.388214,229.582001 
z"/>
<path fill="#000000" opacity="1.000000" stroke="none" 
	d="
M271.075836,210.979492 
	C264.524872,219.656097 256.734833,226.760803 250.064087,234.845413 
	C243.146301,243.229446 236.760986,251.902115 234.827179,263.045258 
	C234.177124,266.790955 235.228271,269.618225 238.071014,271.838867 
	C240.871552,274.026520 243.943192,273.913330 246.969147,272.283752 
	C252.663254,269.217255 257.269470,264.929169 260.561127,259.373596 
	C262.220001,256.573792 264.470978,253.431076 260.486633,250.649857 
	C257.132935,248.308899 254.100891,249.355835 250.708893,254.148361 
	C256.936707,255.367554 255.215500,258.865326 253.395630,262.704834 
	C251.431168,266.849396 248.468475,266.410828 245.067612,265.153503 
	C243.139557,264.440704 242.511688,263.260651 243.256271,261.281311 
	C245.656296,254.901291 247.762115,248.376617 251.592621,242.658646 
	C254.228378,238.724152 257.915619,236.676758 262.733398,238.044342 
	C266.027283,238.979355 268.811340,244.371979 267.900909,249.021561 
	C265.617920,260.680695 260.428345,270.967285 252.171387,279.613159 
	C251.829361,279.971313 251.418991,280.273041 251.009750,280.556732 
	C245.964584,284.054443 240.253906,286.389435 234.722641,282.989990 
	C229.446579,279.747437 229.792725,273.515717 230.127609,268.041779 
	C231.032516,253.250290 238.864227,241.802536 248.478226,231.312866 
	C253.426086,225.914322 258.375183,220.512650 263.474487,215.258698 
	C266.513214,212.127777 269.277710,208.871109 271.223267,204.930298 
	C271.838989,203.683151 272.406799,202.072144 274.648926,202.286575 
	C275.085999,205.731857 272.847168,208.086533 271.075836,210.979492 
z"/>
<path fill="#000000" opacity="1.000000" stroke="none" 
	d="
M339.511536,212.492111 
	C341.978699,209.955948 344.236420,207.671341 347.444794,206.906448 
	C349.426636,206.434006 351.645386,206.368256 352.764282,208.491302 
	C354.242676,211.296494 352.675201,213.669922 350.966095,215.752502 
	C349.789154,217.186691 348.562286,219.563919 346.176239,217.751221 
	C343.087402,215.404648 341.195801,217.662033 339.274872,219.321213 
	C337.526825,220.831085 336.031616,222.664078 334.581726,224.479813 
	C333.248840,226.149002 332.124878,227.985016 330.814026,229.884979 
	C329.365692,225.823593 332.172424,220.285034 339.511536,212.492111 
z"/>
</svg>