<svg version="1.1" id="Layer_1" xmlns="http://www.w3.org/2000/svg" x="0px" y="0px"
     width="100%" viewBox="0 0 592 448" enable-background="new 0 0 592 448" xml:space="preserve">
<path fill="#000000" opacity="1.000000" stroke="none" 
	d="
M338.661316,221.664185 
	C335.822327,223.983521 333.238678,226.060440 330.941437,229.334961 
	C337.170776,228.581390 341.794830,224.592361 347.923859,223.393738 
	C347.774658,227.493698 346.316803,230.615433 344.752594,233.623917 
	C338.578583,245.498276 330.034058,255.411316 319.290344,263.352234 
	C314.887878,266.606171 310.007202,267.977997 304.952850,264.519958 
	C303.538635,263.552399 302.269073,263.324677 300.826630,264.284424 
	C296.669128,267.050720 292.336731,269.589569 288.395264,272.634827 
	C284.618835,275.552521 285.018829,277.715118 289.254822,280.177032 
	C289.971375,280.593475 290.753204,280.901276 291.515625,281.234558 
	C293.025421,281.894470 294.542755,282.537201 296.548645,283.398041 
	C299.182648,275.629333 306.718201,274.940979 312.844727,270.594025 
	C313.265533,275.851349 311.588837,278.907227 308.571808,281.227875 
	C306.735962,282.639984 304.698761,283.848175 302.614380,284.866180 
	C299.245331,286.511536 297.760376,288.785065 296.932953,292.745422 
	C294.110229,306.255188 286.727173,317.203979 275.770416,325.612793 
	C272.693024,327.974548 269.026794,329.173737 265.077179,329.326874 
	C256.965576,329.641388 252.218033,325.896759 250.742035,317.948364 
	C248.703568,306.970886 251.174500,296.708740 256.439697,287.190704 
	C260.300232,280.212006 264.788452,273.552643 269.352966,266.998932 
	C274.065216,260.233215 277.867523,253.111847 280.116821,245.162735 
	C280.603180,243.443863 281.452484,241.827698 282.447205,239.402023 
	C284.042328,242.534012 283.264343,244.865524 282.652527,247.168671 
	C279.473083,259.137177 273.069672,269.423065 265.902405,279.322845 
	C261.099701,285.956543 256.702118,292.795197 254.895813,300.985779 
	C253.418106,307.686401 254.789932,312.939697 259.043365,315.847168 
	C264.294708,319.436829 269.459381,319.408051 275.325317,315.463806 
	C281.460266,311.338745 286.756989,306.283051 290.973480,300.183350 
	C293.888397,295.966553 293.326660,294.184540 288.728882,292.256561 
	C281.895721,289.391235 280.601654,286.504883 281.229065,279.017609 
	C281.981720,270.036011 285.478424,263.132904 293.621765,258.760651 
	C300.126953,255.267960 305.109802,249.889694 310.161499,243.986115 
	C313.094025,248.813858 308.815399,252.136307 308.568878,256.914368 
	C319.324005,254.507523 326.342224,247.847260 333.709412,240.140228 
	C328.253906,240.923996 324.357422,244.037476 318.953430,244.007065 
	C318.953644,239.185699 320.342377,234.932144 322.833344,231.316467 
	C329.905670,221.050827 338.820251,212.587479 349.508942,206.126007 
	C352.244843,204.472122 355.450073,203.271881 358.030090,206.570236 
	C360.080231,209.191086 359.134888,214.725357 356.464783,217.168701 
	C355.668121,217.897736 354.720856,218.535385 353.810333,217.863464 
	C347.384918,213.121750 343.465363,218.480621 338.661316,221.664185 
z"/>
<path fill="#000000" opacity="1.000000" stroke="none" 
	d="
M344.543518,244.606964 
	C348.988129,242.020752 353.177826,239.711197 357.417938,237.373840 
	C360.267426,244.640381 350.526154,251.419113 341.213837,253.675797 
	C341.128967,250.267120 342.867188,247.624847 344.543518,244.606964 
z"/>
</svg>