<svg version="1.1" id="Layer_1" xmlns="http://www.w3.org/2000/svg" x="0px" y="0px"
     width="100%" viewBox="0 0 592 448" enable-background="new 0 0 592 448" xml:space="preserve">
<path fill="#000000" opacity="1.000000" stroke="none" 
	d="
M270.865631,248.971024 
	C260.888123,254.703674 250.507278,259.067261 241.893066,266.352539 
	C233.203415,273.701599 226.557739,282.103088 227.290756,294.422913 
	C227.852402,303.862213 235.779297,309.782898 244.635956,306.534607 
	C256.140686,302.315094 263.044891,293.725128 265.512482,281.747803 
	C266.002014,279.371643 266.387360,276.520569 264.794952,274.442535 
	C260.617157,268.990662 264.546631,264.743835 266.580933,260.219727 
	C267.243713,258.745697 268.449188,258.666443 269.907043,259.506866 
	C275.879608,262.949921 279.281555,262.096466 283.100739,256.299225 
	C284.375671,254.363998 285.580902,252.382690 286.867889,250.455780 
	C286.989136,250.274246 287.469452,250.332535 287.828369,250.271774 
	C290.053070,251.626999 287.542664,253.724701 288.925018,255.539078 
	C293.013062,254.065948 291.830078,248.626938 295.286652,246.125977 
	C297.158142,249.043472 295.717804,251.797791 295.643188,254.437622 
	C303.228699,253.706604 308.214874,248.583084 307.809631,242.239273 
	C307.614960,239.192200 307.051453,236.841690 302.639679,238.636398 
	C303.294250,232.734558 304.860657,227.940643 309.152710,223.845428 
	C313.976410,228.687164 313.596527,234.304092 313.058655,239.905411 
	C312.885254,241.711304 312.218597,243.463989 311.903839,245.263107 
	C309.525177,258.859406 299.765564,265.729523 288.291656,270.831482 
	C285.484436,272.079742 282.521301,273.136627 279.363708,273.768127 
	C274.846069,274.671631 272.133850,277.174011 270.801880,282.566711 
	C267.526733,295.826508 259.713562,306.710327 249.250931,315.464355 
	C244.044540,319.820526 237.953552,322.254944 231.204102,318.999817 
	C224.222351,315.632690 221.963379,309.248779 221.718246,302.063751 
	C221.155136,285.558960 228.163437,272.451782 240.354370,261.833588 
	C245.925354,256.981323 252.351868,253.467804 258.979218,250.261566 
	C266.481567,246.632034 273.922546,242.862656 280.228760,237.257431 
	C280.839569,236.714539 281.510193,236.222687 283.138153,236.700638 
	C280.501678,242.307999 276.057343,245.744110 270.865631,248.971024 
z"/>
<path fill="#000000" opacity="1.000000" stroke="none" 
	d="
M317.909607,305.337708 
	C306.699524,305.323151 299.356537,303.725983 294.406616,299.556885 
	C320.247223,302.825439 338.398499,292.327301 352.671631,272.507782 
	C351.389221,272.096893 351.093597,271.907837 350.811554,271.926239 
	C347.581970,272.136932 343.788483,273.773376 341.549713,270.437744 
	C339.200592,266.937744 341.538727,263.359344 343.018799,260.090515 
	C344.318665,257.219727 345.892487,254.292221 349.049835,253.052078 
	C351.576019,252.059814 354.507812,252.523270 355.865112,254.732742 
	C359.780945,261.107208 363.897156,257.499207 367.206848,254.818573 
	C371.156830,251.619278 374.521057,247.614441 373.826935,241.693451 
	C373.465332,238.608932 372.529419,236.951645 368.607849,238.718063 
	C369.321594,232.723389 370.932648,227.963058 375.138245,223.866455 
	C379.673889,228.427139 379.708038,233.723785 379.183929,238.991684 
	C378.344910,247.424850 374.403778,254.845169 370.795471,262.309601 
	C369.592010,264.799194 366.692352,265.728882 364.267395,266.658386 
	C359.593170,268.450104 356.911469,271.468292 355.171417,276.278381 
	C352.728973,283.030212 348.324921,288.784241 343.539276,294.174622 
	C336.835602,301.725250 328.438049,305.371002 317.909607,305.337708 
z"/>
<path fill="#000000" opacity="1.000000" stroke="none" 
	d="
M372.066650,281.092621 
	C368.304169,283.389557 365.343964,286.500031 360.953308,286.897461 
	C360.172119,279.301819 366.767303,272.894409 377.414276,270.876099 
	C377.987183,275.419739 375.648010,278.374878 372.066650,281.092621 
z"/>
<path fill="#000000" opacity="1.000000" stroke="none" 
	d="
M309.031586,208.201294 
	C309.065125,210.891739 307.496857,212.515182 306.395599,214.337097 
	C305.156158,216.387512 303.701904,217.623489 301.148590,215.854309 
	C298.658813,214.129181 297.979340,212.479523 299.700562,209.663681 
	C303.206360,203.928329 304.276764,203.605530 309.031586,208.201294 
z"/>
</svg>