<svg version="1.1" id="Layer_1" xmlns="http://www.w3.org/2000/svg" x="0px" y="0px"
     width="100%" viewBox="0 0 592 448" enable-background="new 0 0 592 448" xml:space="preserve">
<path fill="#000000" opacity="1.000000" stroke="none" 
	d="
M231.379303,243.897034 
	C216.919357,242.581116 203.908661,244.847244 193.543243,255.213806 
	C182.360489,266.397766 184.658478,280.254639 198.918686,286.917084 
	C216.761765,295.253448 235.378952,295.002441 254.082687,290.508911 
	C270.024628,286.678894 285.180664,280.696777 299.485077,272.616516 
	C302.469635,270.930573 304.659241,269.202057 305.183563,265.203918 
	C305.922394,259.569977 308.716797,254.484833 312.021515,249.810867 
	C313.811066,247.279831 315.926331,244.894989 319.417175,245.958939 
	C322.701996,246.960098 322.886902,250.102692 323.240448,252.914551 
	C323.381958,254.040237 323.263733,255.198578 323.263733,257.090485 
	C333.371368,252.956436 339.936401,246.225861 343.711273,237.044952 
	C345.079559,237.019760 345.182953,237.668884 345.324554,238.330231 
	C345.457336,238.950378 345.663513,239.554825 345.927704,240.483719 
	C352.103027,238.161942 351.710724,231.892136 354.178894,227.599289 
	C356.471191,228.191971 355.738251,230.476730 357.035126,231.884338 
	C362.954071,228.632996 362.021301,221.565781 365.149353,216.514221 
	C367.969543,224.006683 363.473633,238.325607 356.218903,244.055328 
	C347.046631,251.299484 337.536652,258.116486 328.155823,265.095490 
	C327.224213,265.788544 326.252167,266.571411 325.173248,266.900269 
	C312.854340,270.654846 303.291412,279.335602 292.192230,285.258575 
	C269.465454,297.386475 245.486984,304.573700 219.454605,303.286377 
	C209.293152,302.783936 199.749405,299.888641 191.264297,294.216248 
	C179.034195,286.040283 177.168869,271.159210 186.746475,257.723633 
	C195.968414,244.786972 208.811356,238.196930 224.603912,237.722305 
	C235.914108,237.382401 247.186783,238.630951 258.467072,239.229584 
	C273.242554,240.013687 287.083008,235.994751 297.603546,223.571121 
	C292.192749,219.797791 294.240173,216.573608 297.745483,213.408783 
	C299.309235,211.996902 300.591492,209.717102 303.035980,212.153015 
	C305.082947,214.192856 307.061829,215.994186 304.781799,219.359009 
	C294.098785,235.124710 279.124023,243.294022 260.324921,244.200302 
	C250.856750,244.656738 241.337952,244.062912 231.379303,243.897034 
M311.777527,258.839600 
	C311.044586,259.888885 310.523163,261.314880 312.327545,261.272980 
	C314.125732,261.231201 316.449524,261.275757 317.397797,259.070831 
	C317.902283,257.897858 317.441559,256.659668 316.193085,256.227722 
	C314.197845,255.537430 313.386810,257.421783 311.777527,258.839600 
z"/>
<path fill="#000000" opacity="1.000000" stroke="none" 
	d="
M374.468994,294.502441 
	C384.377411,289.023285 392.604248,282.306702 398.177155,272.629730 
	C397.500732,272.174133 397.241486,271.848328 397.015015,271.869720 
	C393.764557,272.176849 390.016632,273.707184 387.640442,270.623474 
	C385.137695,267.375641 387.657990,263.946930 388.798706,260.746063 
	C389.348450,259.203461 390.266998,257.753937 391.212830,256.397766 
	C394.590363,251.555008 399.599426,251.195709 403.055908,256.043549 
	C405.081543,258.884583 406.709534,258.599915 409.220520,257.296967 
	C416.603882,253.465698 420.574249,247.571655 419.731598,241.423386 
	C419.260986,237.989731 419.179016,237.929550 414.744507,238.224564 
	C415.182373,232.729523 416.995697,228.087723 421.033569,223.818817 
	C425.863617,228.396973 425.709412,233.872803 425.138458,239.244263 
	C424.262360,247.487305 420.598053,254.862137 416.850098,262.074951 
	C415.105560,265.432281 411.144287,266.539551 407.803040,267.945892 
	C404.992645,269.128815 403.232178,270.820740 402.234314,273.783020 
	C399.754608,281.144318 395.321808,287.396271 390.352783,293.275513 
	C379.313263,306.337250 364.960602,307.011292 349.722839,303.908295 
	C346.949249,303.343475 343.648773,303.566345 340.741333,299.275909 
	C353.115570,301.650574 363.888367,299.583466 374.468994,294.502441 
z"/>
<path fill="#000000" opacity="1.000000" stroke="none" 
	d="
M410.710693,285.815186 
	C409.326721,286.367340 408.339447,287.137360 407.099731,286.669800 
	C406.157440,279.621582 411.222839,274.481842 422.671082,270.863190 
	C423.933807,276.629303 421.855438,279.266510 410.710693,285.815186 
z"/>
</svg>