<svg version="1.1" id="Layer_1" xmlns="http://www.w3.org/2000/svg" x="0px" y="0px"
     width="100%" viewBox="0 0 592 448" enable-background="new 0 0 592 448" xml:space="preserve">
<path fill="#000000" opacity="1.000000" stroke="none" 
	d="
M357.401398,191.383087 
	C363.246063,186.288071 367.368225,180.024292 373.351990,175.222260 
	C367.661591,188.065964 361.239441,200.446625 355.963684,213.414917 
	C355.160522,207.300903 358.769745,202.222275 359.306580,195.542816 
	C351.058075,202.317139 343.475861,208.985626 333.642395,212.395248 
	C334.448547,215.728973 335.214325,218.582855 335.823334,221.469818 
	C338.145569,232.478165 336.431549,242.934555 331.297668,252.863037 
	C328.786133,257.720093 325.202972,261.731934 320.267029,264.089691 
	C309.621155,269.174896 302.532898,277.149963 298.736176,288.345825 
	C297.031403,293.372803 294.352051,298.042786 291.441803,302.532684 
	C286.424866,310.272736 279.268127,314.195404 270.120972,314.315247 
	C264.983032,314.382568 259.777954,314.964783 254.733109,313.361633 
	C253.240173,312.887207 251.383423,312.956024 250.808105,311.000244 
	C251.500565,309.416656 252.792679,309.843445 253.857178,310.010010 
	C266.846588,312.042572 276.811951,306.422150 285.373108,297.461365 
	C289.780457,292.848328 293.076935,287.443420 295.686737,281.618286 
	C300.553497,270.755585 307.011322,261.361969 318.025085,255.659134 
	C322.117493,253.540115 325.801544,250.529999 328.668671,246.716537 
	C332.738800,241.303040 332.985199,234.278915 329.165039,228.087799 
	C326.626495,229.295715 327.872803,233.346939 323.995361,234.305450 
	C322.805969,227.024429 327.371399,221.314987 328.773285,214.721359 
	C324.910095,214.173080 321.444275,217.085480 317.284485,215.023666 
	C332.610596,210.521545 345.751587,202.507675 357.401398,191.383087 
z"/>
<path fill="#000000" opacity="1.000000" stroke="none" 
	d="
M276.413910,229.128387 
	C278.551208,242.152893 275.427490,253.281265 266.423523,262.429565 
	C262.671417,266.241852 257.684967,267.461487 252.571503,265.759521 
	C247.640594,264.118347 246.281006,259.566040 245.735275,254.996902 
	C243.917221,239.775314 244.747391,224.430328 243.861481,209.157104 
	C243.642624,205.384171 245.147873,201.739120 247.462952,198.232437 
	C249.532776,200.238144 249.017929,202.492783 249.097061,204.511856 
	C249.572327,216.637497 248.721497,228.807907 250.329651,240.895477 
	C250.569275,242.696594 250.733795,244.526398 251.187622,246.276947 
	C252.886810,252.831192 256.321533,256.116028 260.547363,255.393616 
	C267.352570,254.230209 272.402405,247.943619 271.810425,241.688354 
	C271.518036,238.599106 270.434235,237.038635 266.594360,238.538651 
	C267.445251,232.621185 268.863586,227.774384 272.977539,224.111832 
	C275.298370,225.176270 275.570587,227.103256 276.413910,229.128387 
z"/>
<path fill="#000000" opacity="1.000000" stroke="none" 
	d="
M368.129669,273.018188 
	C358.881500,285.704803 333.703339,291.810364 325.660645,283.507080 
	C327.478607,281.953979 329.806244,282.445648 331.820679,282.182709 
	C352.022522,279.545624 364.642090,267.500671 372.776276,249.702316 
	C375.676971,243.355209 377.985352,236.720337 381.727722,230.779495 
	C383.032288,228.708542 384.338593,225.978546 387.429047,227.068726 
	C390.227203,228.055786 390.456177,230.832062 390.240784,233.399765 
	C390.028198,235.934021 389.873932,238.260315 385.896240,237.668640 
	C383.424622,237.300995 382.967346,240.415451 382.103424,242.308121 
	C377.483398,252.429916 374.205658,263.159912 368.129669,273.018188 
z"/>
<path fill="#000000" opacity="1.000000" stroke="none" 
	d="
M275.424622,272.349762 
	C274.054565,279.033722 266.991974,285.113678 258.885223,286.720154 
	C257.951782,282.885223 259.722900,279.442169 262.150452,277.457825 
	C265.662262,274.587250 270.143646,272.885803 274.272339,270.806610 
	C274.848480,270.516479 275.409668,271.258209 275.424622,272.349762 
z"/>
<path fill="#000000" opacity="1.000000" stroke="none" 
	d="
M384.664795,203.480270 
	C383.560730,205.171066 382.587280,206.506149 381.696381,207.894211 
	C380.200989,210.224091 378.550507,210.245422 376.326599,208.732651 
	C373.999847,207.149918 373.705780,205.392731 375.376831,203.381195 
	C376.939087,201.500641 377.282349,197.819717 380.777832,198.553513 
	C382.852539,198.989090 385.430756,199.916458 384.664795,203.480270 
z"/>
</svg>