<svg width="12" height="12" viewBox="0 0 12 12" fill="none" xmlns="http://www.w3.org/2000/svg">
<path d="M0 6C0 6.3682 0.29848 6.66667 0.666667 6.66667H4.66667C5.03487 6.66667 5.33333 6.3682 5.33333 6V0.666667C5.33333 0.29848 5.03487 0 4.66667 0H0.666667C0.29848 0 0 0.29848 0 0.666667V6ZM0 11.3333C0 11.7015 0.29848 12 0.666667 12H4.66667C5.03487 12 5.33333 11.7015 5.33333 11.3333V8.66667C5.33333 8.29847 5.03487 8 4.66667 8H0.666667C0.29848 8 0 8.29847 0 8.66667V11.3333ZM6.66667 11.3333C6.66667 11.7015 6.96513 12 7.33333 12H11.3333C11.7015 12 12 11.7015 12 11.3333V6C12 5.6318 11.7015 5.33333 11.3333 5.33333H7.33333C6.96513 5.33333 6.66667 5.6318 6.66667 6V11.3333ZM7.33333 0C6.96513 0 6.66667 0.29848 6.66667 0.666667V3.33333C6.66667 3.70152 6.96513 4 7.33333 4H11.3333C11.7015 4 12 3.70152 12 3.33333V0.666667C12 0.29848 11.7015 0 11.3333 0H7.33333Z" fill="#518D88"/>
</svg>
