<svg width="13" height="13" viewBox="0 0 13 13" fill="none" xmlns="http://www.w3.org/2000/svg">
<path d="M0.282715 6.46887C0.282715 6.83707 0.581195 7.13554 0.949382 7.13554H4.94938C5.31758 7.13554 5.61605 6.83707 5.61605 6.46887V1.13554C5.61605 0.767352 5.31758 0.468872 4.94938 0.468872H0.949382C0.581195 0.468872 0.282715 0.767352 0.282715 1.13554V6.46887ZM0.282715 11.8022C0.282715 12.1704 0.581195 12.4689 0.949382 12.4689H4.94938C5.31758 12.4689 5.61605 12.1704 5.61605 11.8022V9.13554C5.61605 8.76734 5.31758 8.46887 4.94938 8.46887H0.949382C0.581195 8.46887 0.282715 8.76734 0.282715 9.13554V11.8022ZM6.94938 11.8022C6.94938 12.1704 7.24785 12.4689 7.61605 12.4689H11.616C11.9842 12.4689 12.2827 12.1704 12.2827 11.8022V6.46887C12.2827 6.10067 11.9842 5.80221 11.616 5.80221H7.61605C7.24785 5.80221 6.94938 6.10067 6.94938 6.46887V11.8022ZM7.61605 0.468872C7.24785 0.468872 6.94938 0.767352 6.94938 1.13554V3.80221C6.94938 4.17039 7.24785 4.46887 7.61605 4.46887H11.616C11.9842 4.46887 12.2827 4.17039 12.2827 3.80221V1.13554C12.2827 0.767352 11.9842 0.468872 11.616 0.468872H7.61605Z" fill="#216660"/>
</svg>
