<svg width="16" height="16" viewBox="0 0 16 16" fill="none" xmlns="http://www.w3.org/2000/svg">
<path d="M11.78 0C13.4031 0 14.72 1.31687 14.72 2.94V12.74C14.72 14.3631 13.4031 15.68 11.78 15.68H1.98C1.43794 15.68 1 15.2421 1 14.7C1 14.1579 1.43794 13.72 1.98 13.72V11.76C1.43794 11.76 1 11.3221 1 10.78V0.98C1 0.437939 1.43794 0 1.98 0H11.78ZM11.78 11.76H3.94V13.72H11.78C12.3221 13.72 12.76 13.2821 12.76 12.74C12.76 12.1979 12.3221 11.76 11.78 11.76ZM9.39431 4.59987L9.12175 5.25525L8.41431 5.31344C8.23975 5.32875 8.16931 5.54313 8.301 5.65644L8.84 6.11888L8.67462 6.811C8.63481 6.97944 8.81856 7.11419 8.96863 7.02231L9.575 6.65175L10.1814 7.02231C10.3314 7.11419 10.5152 6.97944 10.4754 6.811L10.31 6.11888L10.849 5.65644C10.9807 5.54313 10.9102 5.32569 10.7357 5.31344L10.0282 5.25525L9.75569 4.59987C9.68831 4.43756 9.46168 4.43756 9.39431 4.59987ZM3.94 5.88C3.94 8.04519 5.69481 9.8 7.86 9.8C8.644 9.8 9.37594 9.57031 9.98844 9.17219C10.0864 9.10788 10.1262 8.98231 10.0834 8.87512C10.0405 8.76794 9.92412 8.70363 9.80775 8.72813C9.62094 8.76488 9.42494 8.78631 9.22587 8.78631C7.62112 8.78631 6.31956 7.48475 6.31956 5.88C6.31956 4.27525 7.62112 2.97369 9.22587 2.97369C9.42494 2.97369 9.61787 2.99512 9.80775 3.03187C9.92412 3.05637 10.0374 2.99206 10.0834 2.88487C10.1293 2.77769 10.0895 2.65212 9.98844 2.58781C9.37594 2.18969 8.644 1.96 7.86 1.96C5.69481 1.96 3.94 3.71481 3.94 5.88Z" fill="#216660"/>
</svg>
