<svg width="16" height="16" viewBox="0 0 16 16" fill="none" xmlns="http://www.w3.org/2000/svg">
<g clip-path="url(#clip0_86_62)">
<path d="M8 8.33333C9.59733 8.33333 11.05 8.796 12.1187 9.448C12.652 9.77333 13.108 10.1573 13.4373 10.5747C13.7613 10.9847 14 11.4753 14 12C14 12.5633 13.726 13.0073 13.3313 13.324C12.958 13.624 12.4653 13.8227 11.942 13.9613C10.89 14.2393 9.486 14.3333 8 14.3333C6.514 14.3333 5.11 14.24 4.058 13.9613C3.53467 13.8227 3.042 13.624 2.66867 13.324C2.27333 13.0067 2 12.5633 2 12C2 11.4753 2.23867 10.9847 2.56267 10.574C2.892 10.1573 3.34733 9.774 3.88133 9.44733C4.95 8.79667 6.40333 8.33333 8 8.33333ZM8 1C8.88405 1 9.7319 1.35119 10.357 1.97631C10.9821 2.60143 11.3333 3.44928 11.3333 4.33333C11.3333 5.21739 10.9821 6.06523 10.357 6.69036C9.7319 7.31548 8.88405 7.66667 8 7.66667C7.11595 7.66667 6.2681 7.31548 5.64298 6.69036C5.01786 6.06523 4.66667 5.21739 4.66667 4.33333C4.66667 3.44928 5.01786 2.60143 5.64298 1.97631C6.2681 1.35119 7.11595 1 8 1Z" fill="#518D88"/>
</g>
<defs>
<clipPath id="clip0_86_62">
<rect width="16" height="16" fill="white"/>
</clipPath>
</defs>
</svg>
