<svg width="16" height="16" viewBox="0 0 16 16" fill="none" xmlns="http://www.w3.org/2000/svg">
<g clip-path="url(#clip0_87_122)">
<path d="M8 8.66659C9.59733 8.66659 11.05 9.12925 12.1187 9.78125C12.652 10.1066 13.108 10.4906 13.4373 10.9079C13.7613 11.3179 14 11.8086 14 12.3333C14 12.8966 13.726 13.3406 13.3313 13.6573C12.958 13.9573 12.4653 14.1559 11.942 14.2946C10.89 14.5726 9.486 14.6666 8 14.6666C6.514 14.6666 5.11 14.5733 4.058 14.2946C3.53467 14.1559 3.042 13.9573 2.66867 13.6573C2.27333 13.3399 2 12.8966 2 12.3333C2 11.8086 2.23867 11.3179 2.56267 10.9073C2.892 10.4906 3.34733 10.1073 3.88133 9.78059C4.95 9.12992 6.40333 8.66659 8 8.66659ZM8 1.33325C8.88405 1.33325 9.7319 1.68444 10.357 2.30956C10.9821 2.93468 11.3333 3.78253 11.3333 4.66658C11.3333 5.55064 10.9821 6.39849 10.357 7.02361C9.7319 7.64873 8.88405 7.99992 8 7.99992C7.11595 7.99992 6.2681 7.64873 5.64298 7.02361C5.01786 6.39849 4.66667 5.55064 4.66667 4.66658C4.66667 3.78253 5.01786 2.93468 5.64298 2.30956C6.2681 1.68444 7.11595 1.33325 8 1.33325Z" fill="white"/>
</g>
<defs>
<clipPath id="clip0_87_122">
<rect width="16" height="16" fill="white"/>
</clipPath>
</defs>
</svg>
