<svg xmlns:xlink="http://www.w3.org/1999/xlink" version="1.1" id="Layer_1" xmlns="http://www.w3.org/2000/svg" x="0px" y="0px"
	 width="100%" viewBox="0 0 592 448" enable-background="new 0 0 592 448" xml:space="preserve">
<path fill="#000000" opacity="1.000000" stroke="none" 
	d="
M224.473557,237.361938 
	C231.651306,232.220642 239.563766,230.195816 247.797333,229.886612 
	C258.447479,229.486664 269.121735,229.722351 279.785614,229.706772 
	C280.576385,229.705612 281.461548,229.630768 282.308228,231.137344 
	C278.352570,233.024155 274.129059,233.059082 270.011475,233.253860 
	C261.036774,233.678406 252.055054,234.026505 243.157150,235.324234 
	C235.223618,236.481323 228.142273,239.619553 222.262161,245.184204 
	C213.789932,253.201889 211.855469,264.575562 217.361740,273.748413 
	C222.555878,282.401276 232.989365,285.592957 244.178085,281.805450 
	C253.197800,278.752228 260.695343,273.184814 267.585876,266.827545 
	C279.108765,256.196350 289.531219,244.497971 299.938202,232.794647 
	C302.256470,230.187592 304.638062,227.675156 308.497253,226.560318 
	C310.213287,230.314041 308.901123,233.339661 306.416992,235.574356 
	C294.838074,245.990616 285.908813,258.764771 275.354187,270.085541 
	C266.621063,279.452606 257.105072,287.784088 244.635452,291.661530 
	C234.455551,294.826965 224.378906,294.799011 216.116180,286.803436 
	C208.015686,278.964874 207.760025,269.192963 210.267609,258.944397 
	C212.413147,250.175491 217.267075,243.216858 224.473557,237.361938 
z"/>
<path fill="#000000" opacity="1.000000" stroke="none" 
	d="
M338.239624,252.758545 
	C340.576569,252.552994 342.673676,252.923676 343.605377,254.497742 
	C347.455933,261.003265 351.884583,257.690033 355.358398,254.790131 
	C359.082581,251.681229 362.464966,247.803314 361.852142,242.101440 
	C361.528351,239.088669 361.049500,236.671906 356.573425,238.669754 
	C357.439667,232.698685 358.900116,227.865646 363.204651,223.873093 
	C367.510315,228.329208 367.701508,233.453064 367.224640,238.579956 
	C366.423737,247.190262 362.614624,254.852219 358.719086,262.359497 
	C357.256653,265.177826 353.787506,266.240723 350.859833,267.367004 
	C347.175903,268.784271 345.324890,271.290741 343.693054,274.922760 
	C338.162567,287.232300 331.297943,298.694611 317.542603,303.475037 
	C307.220795,307.062225 296.864471,305.369446 286.612885,302.743652 
	C285.829315,302.542999 285.076263,302.101227 284.405457,301.633270 
	C284.066711,301.396973 283.944122,300.850800 283.329071,299.717224 
	C308.294586,302.705414 326.434265,292.403931 340.392365,272.937592 
	C339.490967,272.223022 339.244781,271.864471 339.030884,271.882782 
	C335.789581,272.160370 332.062836,273.736359 329.672607,270.624390 
	C327.156250,267.348175 329.519135,263.890717 330.874664,260.779175 
	C332.322205,257.456543 333.850189,253.992752 338.239624,252.758545 
z"/>
<path fill="#000000" opacity="1.000000" stroke="none" 
	d="
M410.805542,216.449799 
	C413.927917,228.353790 415.411163,239.939255 413.462860,251.858536 
	C411.324097,264.942841 403.122559,273.330536 389.320404,275.729736 
	C388.331909,272.997253 390.306824,271.415527 391.779175,269.836884 
	C395.979462,265.333344 400.202332,260.865784 403.909607,255.925980 
	C408.860077,249.329803 410.207703,242.178909 407.819427,234.258530 
	C405.855011,227.743835 403.559021,221.377228 399.891632,213.847687 
	C399.046021,221.010696 398.371887,226.721085 397.649933,232.836777 
	C392.568909,228.330582 393.657349,196.535980 398.850250,188.622055 
	C404.649078,197.172562 407.727448,206.587845 410.805542,216.449799 
z"/>
<path fill="#000000" opacity="1.000000" stroke="none" 
	d="
M388.002380,191.165726 
	C383.727051,193.281555 379.766968,195.134125 374.063049,194.683441 
	C377.490143,191.144699 381.544830,191.461441 384.346375,189.375946 
	C382.017273,182.252411 386.485321,175.171310 393.449524,175.290085 
	C394.016693,178.029861 391.984772,179.335068 390.382507,180.859482 
	C394.680023,184.398987 394.262390,186.461563 388.002380,191.165726 
z"/>
<path fill="#000000" opacity="1.000000" stroke="none" 
	d="
M352.740540,276.694763 
	C356.972321,274.492340 360.885864,272.487457 364.993347,270.383240 
	C365.457336,277.733856 357.801727,285.226135 348.707550,286.714813 
	C348.214661,282.737366 350.322327,279.816193 352.740540,276.694763 
z"/>
<path fill="#000000" opacity="1.000000" stroke="none" 
	d="
M228.075607,310.344238 
	C224.308655,309.117065 221.884506,307.522034 224.801437,303.520599 
	C226.691895,300.927246 227.914749,297.085480 232.310287,300.227570 
	C233.879837,301.349548 234.668259,302.638611 233.424835,304.406311 
	C231.930038,306.531311 231.067856,309.205658 228.075607,310.344238 
z"/>
</svg>