<svg xmlns:xlink="http://www.w3.org/1999/xlink" version="1.1" id="Layer_1" xmlns="http://www.w3.org/2000/svg" x="0px" y="0px"
	 width="100%" viewBox="0 0 592 448" enable-background="new 0 0 592 448" xml:space="preserve">
<path fill="#000000" opacity="1.000000" stroke="none" 
	d="
M256.769531,251.908554 
	C256.632385,253.048828 256.477264,253.868698 256.429016,254.694839 
	C256.412842,254.971436 256.669434,255.263947 256.888031,255.736526 
	C260.856232,253.923264 259.972107,248.893890 263.161896,246.226746 
	C265.648132,249.043930 263.045532,252.066818 263.691772,254.762039 
	C272.294861,252.818680 276.294281,248.454941 275.827209,242.021271 
	C275.597504,238.857483 274.727997,236.881683 270.486053,238.538193 
	C271.587585,232.612045 272.795746,227.644424 277.305908,223.876663 
	C281.706421,228.568878 281.714813,233.900284 281.167297,239.227798 
	C279.484619,255.602020 269.957397,265.663269 255.019516,271.300110 
	C252.387619,272.293243 249.766861,273.162811 247.005066,273.818207 
	C242.641388,274.853760 240.154251,277.247894 238.843353,282.396942 
	C235.341095,296.153656 227.278168,307.432190 216.144577,316.256378 
	C211.070419,320.278015 205.133545,322.054657 198.866333,318.841370 
	C192.360764,315.505951 190.087067,309.420593 189.759293,302.659546 
	C188.949753,285.961914 195.985275,272.695526 208.304199,261.903259 
	C209.055710,261.244873 209.858994,260.645782 210.634521,260.014618 
	C216.773621,255.018234 223.933746,251.778473 230.951233,248.320679 
	C237.780655,244.955582 244.225449,240.993576 250.382416,236.306076 
	C250.419220,239.400726 248.420425,241.142639 246.669876,242.946579 
	C241.818787,247.945511 235.573868,250.829666 229.534454,254.013397 
	C218.585541,259.785187 207.845322,265.808502 200.533157,276.329590 
	C196.684921,281.866638 194.818298,287.860687 195.287369,294.663330 
	C195.931580,304.005341 204.100830,309.882996 212.851166,306.527893 
	C224.077133,302.223633 230.968796,293.813385 233.484436,282.052185 
	C234.026550,279.517670 233.998154,276.784302 232.807983,274.207886 
	C230.183640,268.526886 231.363007,263.598541 236.282791,258.971497 
	C244.013092,263.744537 247.379105,262.711029 252.419632,254.016830 
	C254.463242,250.491882 254.463242,250.491882 256.769531,251.908554 
z"/>
<path fill="#000000" opacity="1.000000" stroke="none" 
	d="
M376.407715,262.307922 
	C372.974548,268.291412 369.081177,273.437714 364.444519,278.069519 
	C355.793945,286.711090 344.568024,287.410553 333.432709,288.260284 
	C330.077240,288.516327 326.578796,288.904785 323.074493,287.770203 
	C324.087189,285.567352 325.935852,285.893707 327.478546,285.723541 
	C337.378479,284.631470 345.950562,280.317200 353.906464,274.672394 
	C357.817383,271.897552 355.616943,268.104156 354.751831,264.761719 
	C354.398438,263.396271 353.176514,262.240570 352.295258,261.029114 
	C342.960327,248.197189 345.766449,236.471664 360.048096,229.183777 
	C363.449615,227.447968 366.994965,225.927353 370.601166,224.672791 
	C379.067871,221.727295 384.777344,225.936661 384.624207,234.965240 
	C384.459198,244.697906 380.996521,253.491562 376.407715,262.307922 
M357.812195,251.032990 
	C360.576080,257.050049 361.056274,263.288818 358.972687,270.580841 
	C367.440796,262.884979 373.921631,255.012451 378.434998,245.611282 
	C379.795532,242.777222 379.510895,240.104645 377.292633,237.812241 
	C375.010620,235.453934 372.518555,233.632294 368.934601,235.103470 
	C366.482391,236.110046 363.940674,236.903305 361.508026,237.952057 
	C352.690613,241.753433 352.407867,242.675064 357.812195,251.032990 
z"/>
<path fill="#000000" opacity="1.000000" stroke="none" 
	d="
M403.172485,266.184204 
	C416.910980,253.960083 420.813507,240.050186 412.155487,223.489502 
	C410.784943,220.867996 410.242035,217.834564 408.091125,214.928543 
	C406.170959,220.905746 407.246918,227.082825 405.169922,233.199783 
	C400.668274,227.036377 401.955475,196.422531 406.455414,189.034714 
	C407.736664,189.352081 408.297455,190.442383 408.805267,191.451111 
	C418.472076,210.654129 424.810303,230.538300 421.382629,252.458908 
	C419.421295,265.002136 410.327576,273.886078 397.176697,275.623505 
	C396.759613,271.016449 400.868683,269.336853 403.172485,266.184204 
z"/>
<path fill="#000000" opacity="1.000000" stroke="none" 
	d="
M272.660065,282.649628 
	C279.643829,282.082520 286.543488,281.183868 293.073914,278.375366 
	C303.830994,273.749146 311.416534,265.884094 316.581787,255.546616 
	C319.111755,250.483261 321.424835,245.311737 323.938629,240.239990 
	C325.489166,237.111542 327.112793,234.005295 328.934265,231.030304 
	C330.054871,229.200058 331.564941,227.148468 334.110565,228.033813 
	C336.662659,228.921432 337.344635,231.406143 337.044098,233.804749 
	C336.760101,236.070923 337.018921,239.121841 332.950104,238.519241 
	C330.608307,238.172394 330.015228,240.487183 329.317596,242.056656 
	C326.546417,248.291214 323.758057,254.529404 321.314087,260.895996 
	C314.829071,277.789490 304.363861,288.155548 283.879211,286.369995 
	C279.836578,286.017639 275.467529,287.371613 272.062012,283.572021 
	C272.318665,282.905212 272.489349,282.777405 272.660065,282.649628 
z"/>
<path fill="#000000" opacity="1.000000" stroke="none" 
	d="
M393.846863,301.688354 
	C395.980011,300.809326 397.773132,300.016144 399.546478,299.231720 
	C396.951538,292.368317 401.896698,284.900360 408.867706,285.413910 
	C407.574097,288.556091 406.547455,291.707092 408.187103,294.973389 
	C408.404724,295.406952 407.975830,296.253967 407.693481,296.835297 
	C405.501587,301.348328 395.365784,305.512054 390.069214,304.043213 
	C390.473297,302.133026 392.382263,302.525635 393.846863,301.688354 
z"/>
<path fill="#000000" opacity="1.000000" stroke="none" 
	d="
M271.895813,283.229706 
	C268.542786,283.928955 266.454010,287.139130 262.994904,286.748871 
	C262.320343,279.305573 267.672211,273.965454 279.049316,270.805695 
	C280.510406,276.539368 276.223328,279.100098 272.800232,282.415894 
	C272.489349,282.777405 272.318665,282.905212 271.895813,283.229706 
z"/>
</svg>