<svg xmlns:xlink="http://www.w3.org/1999/xlink" version="1.1" id="Layer_1" xmlns="http://www.w3.org/2000/svg" x="0px" y="0px"
	 width="100%" viewBox="0 0 592 448" enable-background="new 0 0 592 448" xml:space="preserve">
<path fill="#000000" opacity="1.000000" stroke="none" 
	d="
M298.729675,198.763763 
	C299.822052,198.355392 300.561523,197.852875 301.751434,198.582062 
	C301.180969,201.410217 298.492615,201.922638 296.487030,202.954590 
	C281.095123,210.874222 264.858917,217.145004 250.232559,226.556305 
	C243.484482,230.898315 237.018341,235.618790 232.438202,242.399918 
	C226.298004,251.490829 223.483063,261.365143 226.436874,272.209290 
	C228.631195,280.265167 234.623291,283.178955 242.647324,280.622742 
	C253.556976,277.147217 263.195007,265.318024 262.882568,255.882553 
	C262.766235,252.368652 261.629944,249.445694 258.909454,247.086868 
	C255.932861,244.505981 256.205994,238.165314 259.330414,235.999832 
	C261.134216,234.749634 262.418518,236.077667 263.695099,237.166458 
	C266.098206,239.216049 267.645111,242.656815 272.004608,241.082947 
	C276.746277,239.371124 280.016571,236.469513 281.607849,231.704514 
	C282.211060,229.898193 282.731873,228.064346 283.434937,225.770996 
	C285.579315,227.855865 283.485565,230.144287 285.066589,231.994400 
	C288.899750,230.717606 289.266235,227.027145 290.310150,223.952072 
	C291.324036,220.965317 289.958984,217.292740 293.455536,214.034164 
	C295.250031,221.078796 294.167358,227.266281 292.525696,233.422058 
	C291.121094,238.688934 288.065430,242.417618 283.026093,244.938385 
	C278.366486,247.269196 274.979279,251.762756 269.362122,252.757889 
	C267.628326,253.065018 267.765808,255.818253 267.387390,257.573792 
	C265.089264,268.236053 260.565887,277.730927 252.626877,285.375397 
	C247.200378,290.600586 240.659790,292.924500 233.380478,290.679535 
	C225.995880,288.402100 222.895020,282.109222 221.858612,275.051819 
	C219.331192,257.841003 224.604568,243.262711 237.383316,231.371490 
	C248.461121,221.063065 261.988342,215.043121 275.604889,209.121048 
	C283.239227,205.800720 290.804993,202.322617 298.729675,198.763763 
z"/>
<path fill="#000000" opacity="1.000000" stroke="none" 
	d="
M310.329895,226.881348 
	C310.577484,234.003326 310.868744,240.649567 312.461884,247.126434 
	C313.361267,250.782944 314.958130,254.384644 319.065094,255.152405 
	C323.132050,255.912674 326.376984,253.730103 329.076233,250.745178 
	C331.033356,248.580872 332.653015,246.037247 335.476532,244.336533 
	C337.878998,248.915665 333.749542,252.036011 333.473816,256.732056 
	C343.919647,254.714081 351.203308,248.896118 357.008636,241.050034 
	C364.549042,230.858963 361.878143,220.435272 357.216614,209.475983 
	C354.673126,215.681747 355.099335,222.155869 351.628296,227.457291 
	C351.188843,215.580063 353.385315,204.258255 357.645691,192.312500 
	C363.817627,197.232452 365.237579,203.515701 365.818329,209.328415 
	C367.460999,225.770126 365.521393,241.649353 354.160217,254.860931 
	C351.795807,257.610474 349.012238,260.086426 346.104218,262.264343 
	C339.063568,267.537201 334.748627,267.621216 327.389221,263.061737 
	C326.433350,263.602875 325.447205,264.213715 324.416351,264.736481 
	C315.812347,269.099518 308.601776,265.648651 306.882782,256.203430 
	C306.260010,252.781509 305.911987,249.280167 305.786560,245.802505 
	C305.366913,234.167068 305.131897,222.525116 304.768127,210.887466 
	C304.628845,206.430252 305.892731,202.440384 308.824280,198.703873 
	C310.653778,207.874557 310.115204,217.162537 310.329895,226.881348 
z"/>
<path fill="#000000" opacity="1.000000" stroke="none" 
	d="
M379.688660,206.067749 
	C380.219940,199.909912 380.942780,194.265594 382.919861,188.895370 
	C384.928894,189.384888 385.414490,190.527145 385.919922,191.530548 
	C394.572021,208.706268 400.242706,226.594620 399.293579,246.150787 
	C398.621429,259.998962 392.668182,269.957489 379.162109,274.667236 
	C377.636383,275.199280 376.194977,276.231995 374.165100,275.366882 
	C373.650787,272.757080 375.536407,271.222351 376.999573,269.551453 
	C380.837830,265.168243 384.904541,260.971466 388.542969,256.430206 
	C393.910889,249.730377 395.382080,242.136856 392.676086,233.878204 
	C390.616516,227.592346 388.828339,221.193176 384.856476,214.262070 
	C384.017212,221.158371 383.321930,226.871536 382.626648,232.584717 
	C382.058777,232.554794 381.490906,232.524887 380.923035,232.494965 
	C378.042267,224.040924 379.717773,215.218033 379.688660,206.067749 
z"/>
<path fill="#000000" opacity="1.000000" stroke="none" 
	d="
M376.118896,292.249756 
	C378.538757,288.636108 380.300476,284.652740 385.647339,284.832794 
	C385.784302,287.974915 384.469940,289.627594 382.270874,290.764160 
	C385.988586,293.604065 386.293304,296.287109 382.765808,299.223816 
	C378.284912,302.954193 373.102936,304.922302 367.153748,304.208069 
	C369.848053,301.220245 373.973999,301.328003 377.442566,298.896301 
	C375.032593,297.233124 374.924255,294.994415 376.118896,292.249756 
z"/>
<path fill="#000000" opacity="1.000000" stroke="none" 
	d="
M328.741333,275.697723 
	C332.045898,274.586487 334.225311,271.854919 337.552887,271.662018 
	C339.379700,278.591705 332.499969,283.366974 321.037201,287.440826 
	C322.173615,282.297760 323.174011,277.848541 328.741333,275.697723 
z"/>
</svg>