<svg xmlns:xlink="http://www.w3.org/1999/xlink" version="1.1" id="Layer_1" xmlns="http://www.w3.org/2000/svg" x="0px" y="0px"
	 width="100%" viewBox="0 0 592 448" enable-background="new 0 0 592 448" xml:space="preserve">
<path fill="#000000" opacity="1.000000" stroke="none" 
	d="
M339.835205,251.678162 
	C345.651886,249.596375 349.541718,245.756409 354.228424,240.335831 
	C350.201477,240.335831 347.592407,240.511871 345.014801,240.301956 
	C338.023010,239.732605 335.658112,236.130356 337.788879,229.555618 
	C341.077057,219.409622 349.847534,213.003448 360.747620,212.678345 
	C364.909851,212.554199 366.923645,214.731735 367.266968,218.594528 
	C367.481598,221.009384 367.306885,223.458832 367.306885,226.202545 
	C374.012207,223.852448 377.836945,216.748611 385.322174,214.667999 
	C385.582489,219.856354 383.861511,223.357269 380.456116,226.139526 
	C377.233612,228.772385 374.154449,231.609100 370.758179,233.994415 
	C365.076965,237.984543 363.154572,243.680359 362.315613,250.182739 
	C361.524231,256.316223 360.489319,262.438751 358.613525,268.346069 
	C358.200470,268.286346 357.787445,268.226624 357.374390,268.166901 
	C358.530304,260.338440 359.686218,252.509995 360.842133,244.681534 
	C360.295349,244.286804 359.748535,243.892059 359.201752,243.497330 
	C355.233795,247.885071 351.341858,252.344818 347.274963,256.638885 
	C343.702026,260.411469 339.619812,263.519806 334.657379,265.352264 
	C331.223663,266.620239 327.730927,267.177063 324.622192,264.970032 
	C322.499481,263.462982 320.887939,263.742371 318.706451,264.691162 
	C307.988373,269.352875 301.314240,265.772430 299.171021,254.320541 
	C290.601471,260.459015 280.876740,264.655212 272.411011,270.915344 
	C266.033844,275.631073 266.152313,277.728363 273.231964,281.131622 
	C279.458862,284.124908 280.604095,286.146698 279.030426,292.988800 
	C276.005615,306.140350 268.816620,316.755463 258.397186,325.154633 
	C254.543457,328.261139 249.917862,329.619141 244.856125,329.353699 
	C239.300751,329.062408 235.394821,326.382538 233.641647,321.066742 
	C230.019012,310.082306 232.633179,299.674591 237.136017,289.623688 
	C240.761765,281.530487 246.186157,274.483490 251.224152,267.242828 
	C255.823227,260.632996 259.676666,253.705017 261.960907,245.931625 
	C262.494843,244.114624 262.602478,241.962463 264.784515,240.478500 
	C266.123138,242.838089 265.225372,244.999191 264.651672,247.139694 
	C261.582672,258.590240 255.641739,268.547913 248.767761,278.062683 
	C243.691544,285.089081 238.870026,292.273285 236.908890,300.962799 
	C235.421005,307.555420 236.755524,312.760162 241.034088,315.836548 
	C246.158798,319.521362 251.019852,319.410217 257.241364,315.426727 
	C263.645386,311.326477 268.904999,306.023560 273.191620,299.786987 
	C274.886780,297.320709 275.998108,294.743042 272.197113,292.767365 
	C262.702820,287.832458 261.290680,284.169586 264.124268,273.178192 
	C265.564056,267.593292 268.583344,263.352203 273.465637,260.153595 
	C280.225220,255.725113 287.836639,252.071915 290.277100,243.755646 
	C292.886017,243.112656 291.764160,245.996719 293.414642,245.950394 
	C298.194916,243.998917 298.708405,238.721222 301.231964,235.285278 
	C303.488953,234.919968 302.745728,237.458221 304.314850,237.736679 
	C308.049103,235.962814 308.058807,231.022537 312.103302,227.908646 
	C312.605347,235.845566 309.767578,241.622421 306.144501,247.181671 
	C304.959045,249.000687 302.207489,250.398102 304.065796,253.165100 
	C305.912354,255.914551 308.717560,256.896484 311.911987,256.408081 
	C316.837982,255.654938 321.126251,253.716736 324.177490,249.498291 
	C325.595428,247.537949 327.061493,245.507355 329.506622,244.375107 
	C331.905579,248.913727 327.902283,252.061447 327.487518,256.172119 
	C332.338501,256.504822 335.876221,254.034393 339.835205,251.678162 
M356.645874,229.047943 
	C358.264923,228.284821 361.263733,229.724167 361.380707,226.735214 
	C361.464966,224.581787 359.068451,223.647766 357.403351,223.683044 
	C353.383148,223.768158 349.229523,224.005722 345.779999,227.262436 
	C348.999969,230.066803 352.381958,229.855789 356.645874,229.047943 
z"/>
<path fill="#000000" opacity="1.000000" stroke="none" 
	d="
M321.743835,284.799805 
	C319.506714,285.696625 318.022095,287.747894 315.577942,286.994690 
	C316.302124,278.430847 321.166382,273.904083 331.960327,271.873688 
	C332.430145,279.158722 327.140472,281.809845 321.743835,284.799805 
z"/>
</svg>