<svg version="1.1" id="Layer_1" xmlns="http://www.w3.org/2000/svg" x="0px" y="0px"
     width="100%" viewBox="0 0 592 448" enable-background="new 0 0 592 448" xml:space="preserve">
<path fill="#000000" opacity="1.000000" stroke="none" 
	d="
M343.315491,254.061218 
	C344.937531,252.237991 344.487854,250.329437 344.681122,248.534988 
	C345.500763,240.925690 349.428802,235.112854 355.576630,230.868652 
	C359.063202,228.461670 361.380615,229.711868 362.411987,233.865906 
	C363.740845,239.218079 361.622772,243.649368 358.840027,247.922623 
	C357.773560,249.560440 356.172424,250.889587 355.902222,252.962753 
	C362.304138,257.354614 371.307251,255.982712 376.319183,249.910522 
	C375.772339,247.588837 373.352295,249.026031 372.220093,247.879059 
	C371.677704,240.141693 375.421783,235.670181 382.916321,235.743393 
	C386.714539,235.780502 391.552979,233.870377 393.971436,238.110107 
	C396.245636,242.096893 392.636658,245.184143 390.579315,248.338196 
	C388.671448,251.263123 391.278717,255.280106 395.164154,255.503220 
	C400.732300,255.822983 408.188507,248.126389 407.850739,242.463058 
	C407.667969,239.398026 407.376404,236.555801 402.472382,238.515259 
	C403.649963,232.612335 404.792877,227.620697 409.340515,223.899765 
	C412.085236,226.809357 413.170593,229.939072 413.260651,233.298706 
	C413.498322,242.168961 411.406006,250.561905 406.495026,257.941376 
	C398.684845,269.677185 388.902710,269.234589 382.120819,257.045227 
	C379.987457,257.088776 379.203186,258.999664 377.968475,260.213348 
	C370.089081,267.958679 359.550781,268.377960 351.203186,261.207336 
	C349.951599,260.132202 348.249481,258.303802 347.108795,260.390625 
	C344.601837,264.976959 340.010040,266.221344 335.933746,268.250916 
	C333.476074,269.474579 332.141205,271.163086 331.276733,273.680145 
	C328.636932,281.366272 324.019348,287.888336 318.727875,293.941376 
	C307.590454,306.681671 293.286621,306.852661 278.295410,303.845856 
	C275.794342,303.344208 272.937286,303.290314 270.405701,299.915283 
	C295.447754,302.529602 313.601532,292.318542 327.452789,272.751465 
	C326.483551,272.136993 326.213165,271.815826 325.985382,271.843658 
	C322.725525,272.241333 319.002777,273.658905 316.644226,270.525299 
	C314.174591,267.244110 316.465759,263.852905 317.883942,260.693695 
	C318.496277,259.329651 319.195953,257.986938 320.009369,256.734192 
	C323.415710,251.487900 328.214783,251.223236 332.308197,256.030243 
	C332.942657,256.775330 333.461334,257.618958 334.162720,258.597137 
	C337.580963,258.037750 340.368988,256.307617 343.315491,254.061218 
M350.415497,246.784500 
	C354.128296,246.982330 356.105682,244.756470 357.281342,241.649979 
	C357.598328,240.812408 356.691406,239.863693 355.883698,239.958176 
	C352.620605,240.339798 350.586426,242.306534 349.681183,245.430862 
	C349.609406,245.678589 349.907288,246.033417 350.415497,246.784500 
z"/>
<path fill="#000000" opacity="1.000000" stroke="none" 
	d="
M197.721619,278.867920 
	C191.108475,256.387024 206.025452,233.568619 228.713898,230.630966 
	C242.138611,228.892761 255.544464,230.089890 269.055206,229.675171 
	C268.837433,232.651489 266.998108,232.213455 265.659821,232.328781 
	C253.900116,233.342026 242.116135,234.109787 230.377258,235.318680 
	C216.859390,236.710800 204.699997,246.244263 201.949600,257.143494 
	C198.038925,272.640533 210.936432,286.085632 226.623947,282.968079 
	C238.081375,280.691132 246.810699,273.785522 255.140823,266.285675 
	C266.427460,256.124023 276.318298,244.609711 286.420837,233.310486 
	C288.968475,230.461060 291.499054,227.647263 295.668732,226.642471 
	C297.107697,230.275986 295.789276,233.121826 293.448730,235.328033 
	C281.530731,246.561874 272.078247,259.994415 260.743073,271.742493 
	C251.236115,281.595795 240.815460,289.968597 226.989059,292.873566 
	C213.959595,295.611176 203.855545,290.848969 197.721619,278.867920 
z"/>
<path fill="#000000" opacity="1.000000" stroke="none" 
	d="
M404.900879,281.963318 
	C401.516327,283.894318 398.898895,286.665558 394.972260,286.730621 
	C394.664215,278.868958 399.592987,274.062012 411.235016,270.770599 
	C412.107056,276.088837 408.892395,279.047180 404.900879,281.963318 
z"/>
<path fill="#000000" opacity="1.000000" stroke="none" 
	d="
M366.263367,212.067078 
	C362.000946,216.623779 357.117737,219.509125 351.554901,221.754745 
	C350.837097,212.759659 356.353394,210.211456 367.630310,205.730209 
	C368.607269,208.021027 367.303467,209.846878 366.263367,212.067078 
z"/>
<path fill="#000000" opacity="1.000000" stroke="none" 
	d="
M216.365646,310.028687 
	C213.359406,310.660431 211.093613,309.227722 210.701584,306.978210 
	C210.191208,304.049713 212.915771,301.988434 214.557938,299.753265 
	C215.544067,298.411041 216.896103,298.920990 218.163193,299.536743 
	C220.913223,300.873016 222.001831,302.643005 219.873749,305.407532 
	C218.760208,306.854095 217.720123,308.357208 216.365646,310.028687 
z"/>
</svg>