<?xml version="1.0" encoding="utf-8"?>
<!-- Generator: Adobe Illustrator 27.5.0, SVG Export Plug-In . SVG Version: 6.00 Build 0)  -->
<svg version="1.1" xmlns="http://www.w3.org/2000/svg" xmlns:xlink="http://www.w3.org/1999/xlink" x="0px" y="0px"
     viewBox="0 0 500 500" style="enable-background:new 0 0 500 500;" xml:space="preserve">
<g id="BACKGROUND">
	<rect x="-0.763" style="fill:transparent;" width="500" height="500"/>
</g>
    <g id="OBJECTS">
	<g>
		<path style="fill:#27A69F;" d="M433.85,294.671c-0.151,0.107-0.273,0.217-0.382,0.329c-1.592-0.261-3.16-0.629-4.686-1.141
			c2.867-0.454,5.644-1.785,8.044-3.396c2.24-1.504,4.175-3.336,5.925-5.341c2.953,0.062,8.218-4.253,9.751-5.7
			c5.271-4.978,7.085-13.279,4.373-20.003c-4.6,2.509-9.324,5.12-12.614,9.197c-3.19,3.954-4.336,9.619-3.487,14.619
			c0.078,0.459,0.22,0.819,0.409,1.1c-1.578,1.626-3.285,3.116-5.186,4.329c-3.583,2.285-7.782,3.09-11.977,2.949
			c-1.93-1.245-3.68-2.796-5.449-4.305c1.41-0.107,2.824-0.26,4.246-0.466c2.743-0.397,2.12-5.258-0.661-4.885
			c-4.007,0.537-7.912,0.591-11.788,0.259c-0.357-0.105-0.718-0.203-1.092-0.278c-0.357-0.072-0.678-0.041-0.965,0.051
			c-3.207-0.387-6.404-1.014-9.631-1.858c-5.99-1.565-12.008-2.978-18.241-2.817c-2.37,0.061-4.763,0.275-7.135,0.639
			c1.23-0.945,2.462-1.887,3.675-2.853c7.004-5.58,14.275-12.125,23.33-13.822c2.623,1.6,5.983,2.865,7.393,3.301
			c7.53,2.327,16.356-0.394,21.269-6.557c-4.834-3.012-9.831-6.087-15.45-7.021c-5.448-0.905-11.422,1.039-15.7,4.517
			c-1.036,0.842-1.216,1.73-0.854,2.61c-0.993,0.257-1.971,0.546-2.925,0.89c1.417-1.93,2.613-3.983,3.615-6.169
			c0.313-0.055,0.61-0.235,0.758-0.597c1.165-2.844,2.446-5.946,4.539-8.252c0.923-1.017,2.241-1.856,3.415-2.564
			c1.189-0.717,2.511-1.437,3.893-1.671c3.305-0.56,6.855,0.752,10.177,0.884c1.346,0.054,2.678-0.015,4.004-0.145
			c1.623,1.933,6.133,3.672,7.65,4.141c5.688,1.758,12.355-0.298,16.066-4.953c-3.652-2.275-7.426-4.598-11.671-5.303
			c-4.116-0.684-8.628,0.785-11.859,3.412c-0.368,0.299-0.587,0.607-0.695,0.918c-1.724-0.089-3.442-0.23-5.125-0.489
			c-3.572-0.548-7.141-1.277-10.753-0.583c-0.147,0.028-0.279,0.075-0.421,0.11c0.264-0.268,0.532-0.532,0.797-0.798
			c2.446-0.59,6.012-3.954,7.098-5.13c4.04-4.373,5.063-11.274,2.466-16.63c-3.628,2.312-7.353,4.715-9.82,8.239
			c-2.393,3.418-3.015,8.122-2.04,12.171c0.102,0.424,0.264,0.738,0.47,0.967c-1.106,1.115-2.212,2.229-3.31,3.351
			c-2.744,2.805-4.676,5.931-6.517,9.373c-1.687,3.153-3.803,6.087-6.313,8.638c-2.415,2.455-4.992,4.893-7.826,6.858
			c-0.211,0.146-0.364,0.318-0.473,0.501c-0.945,0.611-1.889,1.234-2.837,1.861c-8.575,5.669-16.841,11.759-25.358,17.511
			c-6.014,4.062-12.765,7.499-19.554,10.416c2.541-4.663,4.586-9.648,6.27-14.661c1.308-3.893,2.48-7.822,3.605-11.764
			c1.457-2.44,2.972-4.839,4.747-7.077c5.525-6.965,12.679-12.16,20.76-15.769c1.888-0.843,3.792-1.648,5.686-2.475
			c2.491,0.591,6.839-0.228,8.297-0.606c5.766-1.493,10.359-6.744,11.07-12.654c-4.305-0.017-8.739-0.009-12.723,1.621
			c-3.863,1.581-6.93,5.201-8.3,9.133c-0.216,0.62-0.189,1.108,0.015,1.491c-5.683,2.4-11.429,4.662-16.584,8.158
			c-3.695,2.506-7.235,5.493-10.355,8.85c0.294-1.055,0.585-2.11,0.883-3.165c1.272-4.5,2.713-8.745,5.715-12.405
			c2.393-2.917,5.043-5.451,6.958-8.733c1.048-1.795-1.642-3.333-2.768-1.618c-3.872,5.899-9.521,9.565-12.35,16.27
			c-2.934,6.952-4.368,14.568-6.727,21.73c-0.008,0.023-0.017,0.047-0.024,0.07c-0.829,1.795-1.55,3.696-2.13,5.634
			c-2.954,6.948-7.07,13.517-12.435,18.74c0.641-1.353,1.198-2.743,1.677-4.138c1.483-4.321,2.298-8.853,3.357-13.29
			c1.255-5.262,1.854-10.346,1.252-15.746c-0.053-0.476-0.113-0.953-0.174-1.43c1.466-2.071,2.111-6.748,2.219-8.311
			c0.409-5.942-3.117-11.961-8.498-14.507c-1.379,4.078-2.777,8.286-2.492,12.58c0.276,4.164,2.738,8.22,6.035,10.764
			c0.374,0.289,0.721,0.431,1.047,0.466c0.18,1.675,0.319,3.354,0.319,5.039c0,2.796-0.42,5.554-1.033,8.277
			c-1.027,4.566-2.578,8.984-4.279,13.336c-1.498,3.831-3.324,7.634-6.076,10.73c-0.687,0.773-1.423,1.443-2.191,2.072
			c-3.385,0.955-6.77,1.906-10.119,2.979c2.283-5.053,1.518-11.396-2.007-15.694c-2.991,3.097-6.054,6.304-7.633,10.309
			c-1.127,2.857-1.151,6.165-0.337,9.193c-3.472,1.577-6.816,3.377-9.988,5.413c1.142-2.586,2.132-5.234,2.888-7.961
			c0.991-3.57,1.502-7.278,2.921-10.722c1.37-3.324,3.598-6.269,6.278-8.647c0.544-0.483-0.195-1.473-0.789-1.023
			c-2.67,2.024-4.854,4.509-6.438,7.471c-1.807,3.38-2.576,7.144-3.753,10.76c-1.643,5.047-4.175,9.689-6.875,14.235
			c-3.504,2.769-6.746,5.861-9.653,9.298c-0.726-7.775-1.753-15.508-3.284-23.105c1.483-6.151,3.558-12.15,7.681-17.018
			c3.08-3.637,6.7-6.047,11.214-7.567c4.451-1.498,9.126-2.419,13.261-4.729c4.62-2.58,8.315-6.427,11.977-10.179
			c0.438-0.448-0.233-1.117-0.687-0.687c-3.562,3.379-7.22,6.779-11.537,9.183c-4.431,2.467-9.392,3.177-14.207,4.538
			c-2.115,0.598-4.167,1.393-6.09,2.419c1.001-0.967,2.037-1.916,3.093-2.861c5.726-5.124,11-10.527,16.001-16.353
			c2.341-2.727,4.421-5.63,6.384-8.611c1.913-2.222,3.699-4.556,5.643-6.758c2.791-3.163,5.965-6,9.658-8.075
			c2.059-1.157,4.301-1.698,6.582-2.124c2.139,1.295,7.179,1.255,8.803,1.13c5.94-0.459,11.385-4.823,13.123-10.516
			c-4.236-0.772-8.603-1.543-12.812-0.637c-3.816,0.821-7.243,3.529-9.342,6.845c-3.095-0.008-6.152,0.019-9.136,1.256
			c-0.103,0.042-0.196,0.098-0.298,0.143c3.459-4.108,7.47-7.48,12.287-10.527c6.15-3.889,12.917-7.144,19.482-10.686
			c6.774-2.444,13.528-4.938,20.453-6.938c1.003-0.29,2.009-0.569,3.016-0.84c6.908-0.409,13.869,1.672,20.733,2.316
			c3.759,0.352,7.64,0.521,11.438,0.16c-0.144,0.053-0.287,0.109-0.436,0.152c2.874,1.9,7.063,3.122,10.464,3.355
			c6.889,0.473,13.311-3.429,18.587-7.881c-3.923-1.124-7.936-2.258-12.009-2.043c-3.989,0.211-8.49,1.209-11.841,3.429
			c-0.283,0.188-0.562,0.386-0.839,0.586c-5.501,1.23-11.34,0.622-16.943-0.464c-3.409-0.661-6.942-1.353-10.496-1.765
			c4.512-1.052,9.041-2.029,13.564-3.067c6.945-1.594,12.804-3.992,17.886-9.105c1.153-1.16,2.216-2.391,3.214-3.671
			c2.395-0.964,4.755-2.387,6.529-3.895c5.262-4.472,7.133-11.75,7.802-18.62c-3.593,1.935-7.258,3.925-10.023,6.924
			c-2.708,2.937-5.233,6.794-6.081,10.723c-0.43,1.989-0.523,4.11-1.531,5.878c0.182-0.035,0.37-0.089,0.555-0.132
			c-0.678,0.761-1.379,1.503-2.128,2.202c-6.802,6.35-15.205,6.682-23.964,7.672c-6.76,0.764-13.615,1.841-20.403,3.258
			c0.268-0.244,0.546-0.478,0.809-0.728c6.613-6.269,10.641-14.864,13.996-23.203c1.26-3.133,2.426-6.302,3.544-9.489
			c0.354-0.557,0.72-1.106,1.091-1.651c2.866,1.507,5.814,2.913,8.998,3.423c3.6,0.577,7.806,0.55,11.223-0.788
			c1.73-0.677,3.39-1.677,5.243-1.803c-2.199-2.246-5.701-4.139-8.691-5.001c-5.06-1.457-10.414-0.122-15.283,2.081
			c0.987-1.309,2.039-2.568,3.187-3.753c1.813-1.871,3.833-3.541,6.005-4.98c2.686,1.391,5.451,2.649,8.423,3.126
			c3.6,0.577,7.806,0.55,11.223-0.788c1.73-0.677,3.39-1.677,5.243-1.803c-2.199-2.246-5.701-4.139-8.691-5.001
			c-2.029-0.584-4.105-0.712-6.178-0.524c0.782-0.342,1.56-0.69,2.33-1.055c0.148,0.052,0.31,0.078,0.499,0.032
			c2.807-0.682,5.605-1.006,8.49-1.036c1.122-0.012,2.245-0.091,3.367-0.189c2.167,1.791,5.059,3.257,7.591,3.98
			c6.059,1.731,12.533-0.532,18.09-3.502c-3.288-1.748-6.653-3.523-10.331-4.105c-3.601-0.57-7.808-0.534-11.221,0.811
			c-0.837,0.33-1.659,0.734-2.493,1.079c-1.776-0.174-3.557-0.275-5.329-0.104c-1.365,0.132-2.737,0.286-4.101,0.483
			c0.584-0.399,1.145-0.831,1.688-1.283c2.293-0.758,4.591-1.972,6.33-3.297c5.012-3.819,7.071-10.361,8.015-16.591
			c-3.368,1.589-6.803,3.224-9.469,5.823c-2.611,2.545-5.098,5.937-6.063,9.477c-0.448,1.644-0.651,3.4-1.456,4.886
			c-4.377,2.526-9.898,3.684-14.341,5.453c-3.664,1.459-6.818,3.511-9.609,6.301c-0.176,0.176-0.335,0.367-0.508,0.547
			c1.464-4.53,2.887-9.074,4.355-13.598c0.921-2.839-3.296-3.828-4.37-1.205c-4.054,9.907-8.383,19.744-11.878,29.863
			c-1.523,4.41-2.851,9.436-5.397,13.372c-0.504,0.779-1.058,1.536-1.639,2.278c0.828-2.526,1.453-5.114,1.866-7.68
			c1.13-7.02,0.707-14.145-0.047-21.182c-0.315-2.943-0.726-5.874-1.102-8.809c0.054-0.156,0.074-0.331,0.004-0.541
			c-0.058-0.173-0.092-0.345-0.139-0.517c-0.122-0.983-0.235-1.967-0.341-2.951c0.214-4.725,3.802-9.065,7.013-12.25
			c2.466-2.446,5.165-4.832,7.11-7.681c2.299,0.77,7.488-1.35,9.044-2.117c5.342-2.636,8.773-8.713,8.268-14.644
			c-4.219,0.86-8.56,1.769-12.129,4.176c-3.461,2.334-5.729,6.503-6.271,10.632c-0.063,0.48,0.003,0.851,0.144,1.153
			c-2.487,3.492-6.09,6.231-9.141,9.218c-1.749,1.713-3.365,3.687-4.483,5.839c-0.019-0.421-0.046-0.842-0.057-1.264
			c-0.117-4.272,0.188-8.582,1.445-12.586c2.501-1.22,4.999-3.2,6.695-5.167c4.114-4.773,4.777-11.599,4.413-17.889
			c-2.967,2.251-5.99,4.56-8.061,7.654c-2.028,3.029-3.761,6.863-3.973,10.526c-0.065,1.13-0.013,2.287-0.11,3.411
			c-3.268,8.792-1.939,19.088-1.619,28.291c0.191,5.514,0.118,10.986-0.281,16.465c-0.742-2.46-1.701-4.862-2.759-7.159
			c-2.418-5.249-5.275-10.324-7.682-15.588c0.719-3.145,0.801-6.777,0.323-9.724c-1.209-7.452-6.96-13.329-13.01-17.852
			c-0.22,4.454-0.43,9.005,0.813,13.289c1.216,4.196,3.398,8.742,6.595,11.764c1.618,1.53,3.55,2.82,4.634,4.765
			c0.028-0.076,0.049-0.161,0.077-0.239c2.061,4.321,4.351,8.535,6.173,12.975c2.31,5.631,3.858,11.668,3.636,17.737
			c-0.82,4.389-2.094,8.723-4.099,12.669c-0.842,1.657-1.785,3.272-2.841,4.796c-4.989,3.799-10.454,6.729-16.036,9.458
			c-0.1,0.037-0.204,0.068-0.304,0.105c-0.332,0.122-0.612,0.287-0.87,0.469c-6.865,3.319-13.859,6.419-20.305,10.564
			c-1.659,1.067-3.27,2.204-4.837,3.399c0.358-1.698,0.696-3.4,1.067-5.097c0.251-0.168,0.462-0.424,0.585-0.79
			c2.066-6.137,6.24-11.383,10.466-16.187c4.514-5.131,9.411-9.935,13.027-15.782c0.323-0.522,0.612-1.064,0.914-1.598
			c1.836-1.74,3.468-4.014,4.473-6.104c2.673-5.556,1.569-12.181-0.368-18.038c-2.23,2.88-4.497,5.83-5.668,9.28
			c-1.147,3.379-1.81,7.443-1.082,10.962c0.301,1.456,0.81,2.903,0.889,4.371c-1.889,3.014-4.103,5.831-6.631,8.438
			c-3.636,3.75-7.861,7.01-11.433,10.842c0.198-0.453,0.396-0.906,0.591-1.363c2.762-6.47,3.514-13.004,3.801-19.97
			c0.224-5.453,0.187-11.011,1.669-16.136c2.246-0.623,4.512-1.672,6.254-2.856c5.099-3.466,7.466-9.751,8.727-15.79
			c-3.373,1.374-6.815,2.788-9.558,5.186c-2.686,2.348-5.299,5.532-6.434,8.941c-0.574,1.726-0.863,3.601-1.929,5.075
			c0.318-0.026,0.645-0.072,0.973-0.123c-2.246,6.741-1.977,14.176-2.843,21.399c-1.659-5.452-6.297-9.627-11.096-12.826
			c0.017,3.642,0.047,7.363,1.25,10.802c1.178,3.368,3.158,6.979,5.899,9.302c0.642,0.544,1.334,1.045,1.991,1.576
			c-1.119,3.089-2.868,5.826-4.608,8.578c-0.059-0.383-0.127-0.757-0.206-1.117c-1.316-6.023-6.266-10.563-11.4-13.984
			c0.017,3.642,0.048,7.363,1.25,10.802c1.178,3.368,3.158,6.979,5.899,9.303c0.351,0.297,0.717,0.581,1.084,0.864
			c-1.225,2.469-2.27,5.026-3.214,7.617c-1.203,3.303-2.174,6.689-3.372,9.936c-0.077-0.804-0.195-1.582-0.353-2.305
			c-1.316-6.023-6.266-10.563-11.4-13.984c0.017,3.642,0.048,7.362,1.25,10.802c1.178,3.368,3.158,6.979,5.899,9.303
			c0.628,0.532,1.305,1.024,1.949,1.543c-0.543,0.602-1.09,1.2-1.616,1.816c-5.336,6.241-9.792,14.463-16.747,19.066
			c-3.069,2.031-6.43,3.496-9.817,4.919c1.412-2.493,2.838-4.985,4.118-7.543c1.566-3.13,2.555-6.339,2.89-9.828
			c0.299-3.121,0.279-6.269,0.897-9.338c2.098-1.54,4.061-3.692,5.334-5.728c3.269-5.228,2.9-11.935,1.619-17.971
			c-2.533,2.617-5.112,5.299-6.655,8.6c-1.512,3.232-2.619,7.199-2.283,10.777c0.13,1.38,0.444,2.773,0.418,4.145
			c-0.578,2.75-0.68,5.573-0.951,8.376c-0.361,3.728-1.404,7.066-3.19,10.357c-1.792,3.303-3.783,6.499-5.805,9.678
			c-2.849,1.232-5.649,2.565-8.237,4.316c-2.419,1.636-4.637,3.539-6.609,5.65c-1.129-4.286-2.116-8.618-2.475-13.043
			c-0.355-4.375-0.199-8.839,0.539-13.17c0.254-1.491,0.583-2.963,0.969-4.418c2.294,1.049,7.144,0.651,8.721,0.413
			c5.89-0.891,11.003-5.641,12.32-11.446c-4.28-0.461-8.693-0.911-12.824,0.3c-2.122,0.622-4.072,1.846-5.708,3.411
			c1.901-4.527,4.35-8.833,7.131-12.876c3.071-4.465,6.502-8.676,9.486-13.201c0.313-0.474-0.439-0.902-0.757-0.442
			c-2.885,4.184-6.206,8.009-9.341,12c-2.866,3.648-5.478,7.48-7.661,11.579c-3.521,6.608-6.206,13.794-7.022,21.247
			c-2.144-14.941-2.48-29.902,0.786-44.574c2.152-5.058,4.783-9.951,7.367-14.704c1.547-2.845,3.03-5.755,4.672-8.545
			c0.611-1.039,1.273-1.98,2.009-2.838c2.677-0.929,5.354-1.856,8.045-2.743c1.702-0.561,3.413-1.129,5.185-1.428
			c1.912-0.323,3.861-0.176,5.79-0.239c4.189-0.137,8.347-0.915,12.35-2.184c2.899,0.302,5.821,0.45,8.657-0.165
			c3.487-0.756,7.314-2.278,9.956-4.713c1.338-1.233,2.498-2.734,4.143-3.509c-2.8-1.264-6.664-1.741-9.696-1.461
			c-5.717,0.528-10.541,4.342-14.428,8.639c-3.995,1.079-8.154,1.513-12.37,1.326c-3.695-0.164-6.923,0.462-10.439,1.562
			c-0.3,0.094-0.603,0.182-0.903,0.275c1.911-1.031,3.845-2.016,5.699-3.158c2.569-1.583,5.028-3.334,7.483-5.086
			c1.068-0.762,2.107-1.566,3.127-2.395c2.316-0.885,4.562-1.928,6.511-3.445c2.816-2.191,5.606-5.221,6.933-8.56
			c0.672-1.69,1.067-3.546,2.215-4.957c-3.072,0.074-6.761,1.317-9.373,2.882c-5.05,3.027-7.756,8.762-9.386,14.461
			c-0.28,0.207-0.555,0.421-0.839,0.623c-5.041,3.593-10.829,5.466-16.435,7.925c-1.572,0.69-3.017,1.535-4.334,2.552
			c5.281-10.021,10.949-19.844,15.76-30.109c0.324-0.304,0.645-0.609,0.969-0.913c1.608-1.507,3.143-3.098,4.827-4.521
			c3.511-2.966,7.865-5.208,12.533-5.86c5.589-0.782,11.384-0.14,17.009-0.171c6.885-0.038,13.466-1.728,20.04-3.612
			c1.216-0.349,0.707-2.203-0.523-1.896c-6.108,1.527-12.267,3.055-18.611,2.762c-5.77-0.266-11.417-1.7-17.215-1.714
			c-2.605-0.006-5.341,0.216-7.855,0.981c1.098-1.584,2.142-3.207,3.123-4.87c1.956-1.403,4.084-2.661,6.4-3.784
			c5.135-2.49,10.324-4.578,15.282-7.293c7.444-1.874,15.344-1.139,22.963-1.687c8.429-0.606,16.607-3.055,24.106-6.93
			c1.684-0.87,3.305-1.825,4.888-2.834c2.666-0.36,5.522-1.356,7.681-2.59c5.472-3.124,8.378-9.337,10.137-15.386
			c-3.548,1.131-7.169,2.298-10.154,4.522c-2.924,2.177-5.838,5.212-7.262,8.593c-0.657,1.56-1.089,3.262-2.069,4.624
			c-4.424,2.54-9.119,4.568-14.088,5.955c-0.171,0.048-0.346,0.084-0.517,0.131c0.028-0.016,0.06-0.031,0.087-0.047
			c5.343-3.075,8.173-9.165,9.882-15.093c-3.466,1.117-7.003,2.27-9.917,4.456c-2.854,2.14-5.697,5.12-7.083,8.434
			c-0.551,1.316-0.938,2.734-1.643,3.957c-1.009,0.125-2.02,0.226-3.033,0.302c-4.46,0.333-8.935,0.201-13.401,0.326
			c-1.941,0.054-3.891,0.168-5.826,0.39c10.223-6.807,19.121-14.903,26.087-24.786c1.023-0.574,2.047-1.149,3.07-1.723
			c1.55-0.87,3.1-1.788,4.718-2.528c1.562-0.715,3.23-1.124,4.905-1.48c3.126-0.664,6.064-1.436,8.924-2.905
			c1.848-0.949,3.583-2.049,5.193-3.323c2.288-0.266,4.641-0.92,6.525-1.783c5.729-2.622,9.181-8.549,11.476-14.416
			c-3.634,0.808-7.344,1.647-10.516,3.595c-3.107,1.907-6.281,4.668-8.003,7.908c-0.872,1.64-1.481,3.48-2.805,4.782
			c0.031,0.003,0.064,0.001,0.095,0.004c-1.212,0.775-2.497,1.431-3.868,1.908c-3.259,1.135-6.72,1.186-10.081,1.825
			c-2.064,0.393-3.943,1.186-5.762,2.127c0.469-0.804,0.928-1.617,1.374-2.443c0.288-0.535,0.389-1.056,0.375-1.55
			c1.558-2.132,2.859-4.512,3.389-5.625c3.389-7.116,1.97-16.242-3.419-21.993c-3.678,4.349-7.442,8.85-9.177,14.275
			c-1.596,4.991-0.719,10.817,1.786,15.446c-1.428,2.929-3.015,5.795-4.768,8.562c-0.301,0.378-0.576,0.775-0.792,1.233
			c-5.873,8.925-13.448,16.748-22.581,22.267c-6.107,3.691-12.652,5.646-19.111,8.261c0.102-0.198,0.21-0.395,0.312-0.593
			c0.624-1.218,1.23-2.447,1.82-3.685c2.689-3.722,5.735-7.225,8.011-11.233c4.089-7.201,5.552-15.414,6.827-23.489
			c0.122-0.773,0.241-1.546,0.36-2.319c3.132-0.139,7.325-7.52,8.393-9.763c3.389-7.116,1.97-16.242-3.419-21.993
			c-3.678,4.349-7.442,8.85-9.177,14.275c-1.682,5.261-0.62,11.452,2.203,16.188c0.233,0.391,0.488,0.675,0.757,0.884
			c-0.852,4.3-1.663,8.609-2.77,12.852c-1.023,3.921-2.348,7.788-4.283,11.359c-1.082,1.997-2.362,3.862-3.705,5.683
			c0.302-0.825,0.609-1.649,0.877-2.487c3.076-9.615,3.371-19.484,0.645-29.209c-1.596-5.693-3.519-11.311-2.999-17.313
			c0.089-1.026-1.473-0.997-1.587,0c-0.567,4.974,0.468,9.91,1.412,14.772c0.381,1.961,0.731,3.916,1.005,5.877
			c-1.014-2.256-2.247-4.402-3.691-6.327c-2.001-2.667-4.279-5.205-5.833-8.085c0.958-2.586,1.406-5.696,1.291-8.261
			c-0.282-6.294-4.482-11.716-9.061-16.044c-0.613,3.672-1.227,7.425-0.611,11.097c0.603,3.595,1.973,7.573,4.331,10.384
			c1.194,1.423,2.671,2.677,3.382,4.394c0.023-0.045,0.042-0.096,0.064-0.141c1.035,2.32,2.365,4.535,3.647,6.689
			c1.426,2.396,3.024,4.692,4.382,7.128c0.314,0.563,0.588,1.137,0.836,1.719c-0.237-0.344-0.478-0.675-0.723-0.985
			c-3.822-4.837-10.26-6.748-16.374-7.574c1.611,3.266,3.268,6.597,5.856,9.161c2.534,2.511,5.896,4.889,9.378,5.777
			c1.186,0.302,2.429,0.476,3.587,0.846c-0.562,9.128-3.694,18.169-7.716,26.303c-1.29,2.61-2.753,5.119-4.255,7.606
			c-5.194,3.744-8.539,9.319-13.525,13.542c-3.398,2.877-6.772,5.835-10.092,8.855c1.996-5.427,3.517-11.025,3.999-16.706
			c2.343-1.093,4.671-2.799,6.31-4.526c4.244-4.473,5.217-11.118,5.163-17.287c-3.003,2.061-6.064,4.176-8.233,7.103
			c-1.323,1.785-2.549,3.882-3.378,6.072c-0.158-1.263-0.38-2.528-0.674-3.794c-0.671-2.889-1.644-5.938-2.654-9.071
			c2.144-1.093,4.23-2.66,5.734-4.246c4.244-4.473,5.217-11.118,5.163-17.287c-3.003,2.061-6.064,4.176-8.233,7.103
			c-1.979,2.67-3.724,6.033-4.266,9.369c-1.695-5.571-3.072-11.273-2.739-16.707c2.71-2.035,5.563-7.113,6.418-8.907
			c3.389-7.116,1.971-16.242-3.419-21.993c-3.678,4.349-7.442,8.85-9.177,14.275c-1.682,5.261-0.62,11.452,2.203,16.188
			c0.35,0.587,0.745,0.949,1.17,1.138c-0.523,2.378-0.733,4.821-0.569,7.358c0.398,6.13,3.063,11.843,3.787,17.908
			c0.102,0.854,0.17,1.709,0.211,2.563c-0.56-1.007-1.178-1.982-1.857-2.911c-4.302-5.883-9.918-10.681-14.025-16.716
			c-1.104-1.623-2.075-3.315-2.858-5.085c0.979-2.601,1.436-5.75,1.32-8.341c-0.282-6.294-4.482-11.716-9.061-16.044
			c-0.613,3.672-1.227,7.425-0.611,11.097c0.603,3.595,1.973,7.573,4.331,10.384c0.731,0.871,1.567,1.68,2.269,2.57
			c1.681,4.699,4.591,8.921,7.565,12.95c2.083,2.821,4.127,5.714,5.923,8.728c1.988,3.336,3.543,6.899,5.014,10.486
			c0.494,1.205,0.958,2.42,1.357,3.656c-0.295,2.191-0.643,4.376-0.979,6.549c-0.716,4.627-0.706,9.327-2.772,13.617
			c-3.082,6.398-8.172,11.575-11.361,17.891c-0.443,0.878-0.856,1.764-1.253,2.654c-3.011,3.381-5.824,6.921-8.135,10.671
			c-2.094,3.396-3.785,6.986-5.157,10.693c-0.596-1.175-1.21-2.338-1.855-3.475c-1.307-2.304-2.703-4.535-4.118-6.747
			c-1.127-4.576-2.203-9.185-3.161-13.804c0.347-4.134,1.974-8.302,4.679-11.433c0.451-0.522,0.953-1.024,1.474-1.52
			c2.866-1.102,5.66-2.383,8.042-4.296c3.124-2.509,6.204-5.96,7.634-9.731c0.724-1.91,1.134-4,2.398-5.604
			c-3.451,0.137-7.575,1.597-10.48,3.401c-5.541,3.438-8.475,9.792-10.211,16.129c-0.615,0.57-1.21,1.164-1.749,1.832
			c-0.984,1.222-1.8,2.523-2.467,3.884c-0.002-0.01,0.002-0.019-0.001-0.029c-1.692-7.503,1.132-14.706,3.864-21.579
			c1.441-3.626,2.644-7.192,3.18-11.072c0.527-3.814,0.683-7.58,0.513-11.425c-0.136-3.065-0.581-6.104-1.291-9.082
			c1.355-2.632,2.256-5.839,2.502-8.566c0.624-6.898-3.147-13.427-7.493-18.819c-1.211,3.909-2.436,7.907-2.309,11.997
			c0.124,4.005,1.027,8.541,3.179,11.953c1.089,1.727,2.512,3.312,3.033,5.287c0.038-0.055,0.072-0.118,0.109-0.173
			c1.115,6.096,1.027,12.401-0.681,18.398c-1.75,6.144-4.07,12.108-5.702,18.284c0.333-4.837,0.923-9.654,1.151-14.498
			c0.189-4.02,0.025-8.066-0.708-12.008c0.632-3.248,0.355-7.245-0.514-10.316c-1.886-6.664-7.745-11.41-13.733-14.89
			c0.268,4.083,0.556,8.254,2.139,12.028c1.55,3.695,4.016,7.607,7.247,10.023c1.119,0.837,2.356,1.56,3.41,2.462
			c1.968,9.47,0.474,19.559-0.813,29.01c-0.758,5.567-1.657,11.264-1.397,16.896c0.071,1.541,0.205,3.061,0.396,4.564
			c-0.952-1.777-1.855-3.587-2.645-5.476c-5.413-12.94-8.919-26.995-15.41-39.494c1.253-2.967-0.834-9.983-1.636-12.115
			c-2.773-7.378-10.33-12.688-18.211-12.796c0.58,5.666,1.21,11.5,3.914,16.513c2.522,4.677,7.427,8.116,12.577,9.485
			c5.25,11.179,7.596,23.384,10.896,35.333c-1.798-1.86-3.789-3.526-5.823-5.16c-1.528-1.227-3.12-2.446-4.696-3.705
			c-0.339-2.602-1.151-5.295-2.197-7.424c-3.054-6.216-9.671-9.831-16.188-12.176c0.998,3.969,2.032,8.02,4.268,11.447
			c2.189,3.356,5.319,6.761,8.932,8.556c1.829,0.908,3.868,1.522,5.34,2.938c0.011-0.181,0.004-0.372,0.008-0.558
			c0.583,0.53,1.164,1.061,1.737,1.597c6.264,5.858,10.865,12.938,13.71,21.033c0.099,0.281,0.243,0.504,0.413,0.682
			c1.617,4.595,3.347,9.153,5.274,13.585c2.986,6.869,6.531,13.348,9.232,20.277c-0.613,7.232-0.344,14.552,0.589,21.606
			c0.26,1.961,0.58,3.904,0.93,5.839c-2.326-3.284-4.671-6.557-7.063-9.796c-2.298-3.112-4.618-6.24-6.99-9.335
			c-3.387-5.39-7.302-10.426-11.915-14.851c-0.157-0.554-0.315-1.108-0.469-1.664c-0.919-3.321-1.865-6.641-2.701-9.984
			c-0.603-2.41-1.166-4.827-1.823-7.221c0.633-2.38,0.916-4.958,0.82-7.167c-0.301-6.921-4.911-12.893-9.939-17.662
			c-0.679,4.036-1.36,8.162-0.688,12.2c0.658,3.954,2.158,8.331,4.746,11.427c1.311,1.568,2.933,2.95,3.712,4.838
			c0.092-0.179,0.171-0.376,0.257-0.563c0.295,1.372,0.565,2.75,0.803,4.132c0.448,2.604,0.685,5.24,1.015,7.863
			c-0.51-0.428-1.017-0.86-1.534-1.28c-7.165-6.382-15.583-11.365-23.545-16.687c-0.773-1.519-1.494-3.066-2.212-4.612
			c-1.824-3.931-3.35-8.065-4.371-12.279c-1.054-4.352-1.547-8.802-1.77-13.268c-0.25-5.009,0.24-9.952,0.703-14.934
			c0.128-1.372,0.231-2.75,0.294-4.128c1.466-2.696,2.44-6.083,2.699-8.94c0.624-6.898-3.147-13.427-7.493-18.819
			c-1.212,3.909-2.436,7.907-2.309,11.997c0.124,4.005,1.027,8.541,3.179,11.953c0.863,1.368,1.927,2.649,2.594,4.102
			c-0.484,6.152-1.889,12.348-2.367,18.374c-0.647,8.157,0.129,16.951,3.054,24.698c-3.068-2.627-5.756-5.641-7.479-9.392
			c-2.892-6.294-3.419-13.466-5.742-19.973c-2.866-8.027-7.203-15.358-12.717-21.751c0.478-3.271-2.208-9.404-3.21-11.318
			c-3.654-6.983-11.803-11.33-19.638-10.474c1.268,5.553,2.606,11.266,5.903,15.911c3.093,4.36,8.428,7.167,13.738,7.876
			c5.348,6.361,9.498,13.646,12.092,21.632c0.061,0.187,0.113,0.374,0.172,0.561c-2.254-2.68-5.129-4.694-8.337-6.084
			c-3.491-1.512-7.239-2.998-10.525-5.074c-0.437-1.497-0.831-3.194-0.986-3.696c-0.739-2.391-1.388-4.844-2.845-6.922
			c-1.604-2.287-4.066-3.796-6.457-5.241c-1.761-1.064-3.553-2.141-5.541-2.672c-0.625,5.029,0.603,11.026,3.889,15.072
			c1.395,1.717,3.161,3.083,5.313,3.873c2.053,0.754,4.207,1.179,6.325,1.73c2.587,1.767,5.379,3.307,7.986,5.033
			c2.811,1.86,5.826,3.613,8.423,5.767c1.942,1.611,3.419,3.608,4.741,5.72c1.761,7.45,3.362,14.705,9.016,20.699
			c0.928,0.984,1.896,1.919,2.892,2.818c-10.617-2.69-21.269-2.334-32.547-2.331c-1.299,0-2.578-0.061-3.848-0.15
			c-1.483-0.563-2.945-1.158-4.308-2.021c-1.726-1.093-3.234-2.383-4.787-3.693c-1.441-1.216-2.79-2.504-4.069-3.859
			c-0.035-0.178-0.113-0.356-0.257-0.523c-3.688-4.254-4.535-10.341-5.042-15.754c-0.353-3.779-0.575-7.636-1.45-11.32
			c-0.232-3.049-1.242-6.404-2.564-8.935c-3.207-6.139-9.912-9.588-16.485-11.771c1.096,3.943,2.23,7.967,4.55,11.338
			c2.272,3.301,5.485,6.627,9.141,8.331c1.287,0.6,2.668,1.06,3.899,1.745c1.247,6.227,0.568,12.954,1.964,19.05
			c-2.318-3.272-4.608-6.586-7.438-9.374c-0.675-3.304-2.588-6.997-4.679-9.535c-4.404-5.346-11.675-7.34-18.557-8.121
			c1.885,3.632,3.824,7.336,6.789,10.157c2.904,2.762,6.734,5.354,10.662,6.269c1.102,0.257,2.245,0.414,3.345,0.677
			c5.171,4.302,8.358,10.397,11.702,16.174c1.782,3.078,3.794,6.576,6.628,8.812c0.358,0.282,0.724,0.539,1.092,0.794
			c-8.039-1.943-15.626-5.333-23.161-9.023c-0.741-4-5.321-9.953-6.976-11.825c-6.318-7.146-17.154-9.891-26.112-6.615
			c3.1,6.157,6.329,12.482,11.548,16.985c4.92,4.244,12.045,6.009,18.512,5.279c9.081,5.485,18.637,9.628,29.588,10.762
			c12.412,1.285,24.614-0.819,36.82,0.857c-5.062,1.493-9.804,4.489-14.471,7.041c-6.325,3.458-13.129,5.4-20.193,5.674
			c-2.843-2.227-5.794-4.37-9.188-5.565c-3.781-1.331-8.339-2.127-12.3-1.352c-2.005,0.392-3.998,1.147-6.029,0.919
			c1.937,2.859,5.353,5.593,8.419,7.11c5.616,2.78,12.249,2.093,18.351,0.379c2.627-0.074,5.246-0.363,7.831-0.88
			c4.283-0.857,8.277-2.403,12.288-4.085c8.015-3.36,16.294-6.956,25.201-5.965c0.57,0.063,1.013-0.142,1.324-0.48
			c0.823,0.302,1.64,0.614,2.442,0.946c4.97,3.712,10.009,7.341,14.086,12.194c5.42,6.451,10.706,13.08,15.916,19.741
			c-3.229-1.186-6.522-2.223-9.78-3.337c-5.098-1.744-10.716-3.196-16.123-3.427c-0.968-0.041-1.929-0.052-2.886-0.044
			c-1.08-2.197-2.323-4.297-3.958-6.109c-2.685-2.976-6.307-5.855-10.156-7.068c-1.949-0.614-4.06-0.905-5.734-2.076
			c0.334,3.437,2.028,7.472,3.995,10.271c1.615,2.298,3.748,4.076,6.161,5.473c-4.062,0.254-8.135,0.405-12.334-0.16
			c-8.766-1.181-17.209-1.289-26.037-0.728c-10.324,0.656-22.789,1.423-32.983-2.414c-3.7-3.348-5.524-8.236-7.106-12.987
			c-1.142-3.429-2.291-6.873-4.51-9.78c-0.418-0.548-0.867-1.068-1.331-1.574c0.262,0.114,0.521,0.239,0.77,0.387
			c-0.596-3.402-2.593-7.294-4.767-9.934c-4.404-5.346-11.675-7.339-18.557-8.121c1.885,3.632,3.824,7.336,6.789,10.157
			c2.904,2.762,6.733,5.354,10.662,6.269c0.819,0.191,1.66,0.326,2.491,0.49c1.192,1.357,2.271,2.816,3.097,4.426
			c1.712,3.335,2.121,7.136,3.047,10.723c0.524,2.031,1.249,4.122,2.213,6.088c-1.901-1.401-3.648-3.066-5.186-5.061
			c-1.303-1.689-4.202-0.166-2.959,1.729c5.294,8.073,13.765,12.641,22.915,14.543c-3.491,0.969-6.899,2.237-10.336,3.378
			c-4.135,1.373-8.322,2.133-12.685,1.758c-2.507-0.215-4.958-0.774-7.332-1.576c-1.883-2.308-4.493-4.428-6.918-5.745
			c-6.086-3.306-13.575-2.429-20.248-0.574c3.109,2.661,6.295,5.368,10.101,6.872c3.727,1.472,8.249,2.44,12.234,1.816
			c1.814-0.284,3.63-0.855,5.445-0.747c1.833,0.622,3.71,1.109,5.624,1.418c4.296,0.694,8.513,0.39,12.728-0.643
			c8.058-1.974,16.21-3.496,24.382-4.922c8.081-0.191,16.119-1.397,24.198-1.662c6.317-0.207,12.555,0.881,18.812,1.346
			c-2.614,1.118-5.098,2.569-7.458,4.126c-3.916,2.583-7.646,5.286-11.926,7.274c-4.483,2.082-9.467,3.379-14.406,2.429
			c-0.624-0.12-0.894,0.831-0.265,0.959c9.644,1.966,17.663-3.908,25.833-7.955c7.507-3.718,15.638-5.898,23.882-7.294
			c3.976-0.239,7.912-0.191,11.917,1.06c6.827,2.132,11.839,6.369,16.749,11.269c2.681,2.675,5.411,5.493,8.242,8.172
			c-1.753-0.29-3.538-0.248-5.309-0.141c-9.005,0.541-17.923-0.136-26.794-1.774c-0.683-0.126-0.981,0.91-0.29,1.051
			c8.661,1.762,17.351,2.319,26.155,2.785c2.035,0.108,4.098,0.259,6.013,1.019c1.927,0.765,3.549,2.074,5.285,3.176
			c2.892,1.835,6.054,3.2,9.369,4.027c1.426,2.341,2.795,4.713,4.059,7.142c5.272,10.133,7.665,20.288,10.488,31.251
			c3.862,14.998,5.008,30.428,5.703,45.893c-1.551-2.266-3.046-4.566-4.368-6.973c-3.163-5.763-6.79-10.613-11.88-14.32
			c-0.616-0.948-1.245-1.888-1.882-2.822c1.122-1.131,2.124-2.367,2.881-3.565c3.293-5.214,2.955-11.923,1.7-17.964
			c-2.546,2.606-5.138,5.278-6.697,8.572c-0.97,2.05-1.775,4.398-2.152,6.756c-0.304-0.509-0.592-1.026-0.828-1.566
			c-0.774-1.764-1.065-3.675-1.423-5.553c-0.448-2.352-1.087-4.618-1.95-6.765c-0.076-2.388-0.326-4.76-1.081-7.017
			c-1.132-3.384-3.063-7.021-5.773-9.381c-1.372-1.195-2.991-2.183-3.941-3.734c-0.951,2.923-1.004,6.817-0.395,9.8
			c1.17,5.727,5.624,10.161,10.419,13.579c0.407,1.818,0.621,3.679,0.785,5.624c0.148,1.763,0.318,3.57,0.853,5.265
			c0.523,1.657,1.338,3.179,2.19,4.685c-7.136-3.072-14.552-4.135-22.084-4.626c-0.095-0.041-0.196-0.075-0.292-0.116
			c0.669-2.212,0.996-4.66,0.934-6.746c-0.182-6.165-4.21-11.539-8.625-15.849c-0.655,3.584-1.313,7.247-0.765,10.851
			c0.521,3.431,1.754,7.219,3.904,9.991c-0.637-0.23-1.268-0.46-1.914-0.693c-3.263-1.176-6.545-2.548-9.176-4.877
			c-1.121-0.992-2.061-2.144-2.929-3.357c1.877-1.823,3.536-4.245,4.519-6.454c2.507-5.635,1.204-12.224-0.909-18.021
			c-2.143,2.946-4.322,5.964-5.39,9.448c-1.045,3.412-1.587,7.496-0.754,10.991c0.029,0.122,0.063,0.244,0.094,0.366
			c-0.348-0.533-0.698-1.063-1.062-1.58c-0.313-0.445-0.64-0.883-0.966-1.321c-0.855-2.005-1.431-4.119-2.154-6.193
			c-1.08-3.099-1.668-6.077-1.844-9.361c-0.087-1.63-0.167-3.288-0.311-4.94c1.378-2.846,2.17-6.471,2.234-9.459
			c0.149-6.927-4.064-13.187-8.773-18.274c-0.94,3.984-1.887,8.057-1.48,12.13c0.4,3.989,1.612,8.455,3.995,11.714
			c0.642,0.879,1.373,1.712,2.018,2.59c0.274,2.791,0.267,5.643,0.391,8.371c0.117,2.581,0.206,5.266,0.856,7.79
			c-2.675-2.359-5.715-4.177-7.854-7.08c0.172-2.503-0.155-5.249-0.813-7.448c-1.766-5.91-7.045-10.063-12.424-13.087
			c0.292,3.632,0.602,7.342,2.061,10.683c1.428,3.271,3.676,6.724,6.584,8.834c0.672,0.488,1.391,0.93,2.077,1.403
			c0.329,0.556,0.681,1.1,1.083,1.62c2.22,2.869,5.386,4.546,7.976,7.004c3.072,2.917,4.578,6.351,6.32,10.116
			c1.902,4.109,4.214,7.42,7.3,10.25c-2.368-0.127-4.736-0.297-7.098-0.555c-11.612-1.27-23.029-4.217-34.269-7.605
			c-1.294-0.862-2.537-1.697-3.662-2.837c-1.353-1.37-2.511-2.91-3.524-4.546c-2.248-3.629-3.761-7.622-5.404-11.543
			c-1.506-3.594-3.176-7.101-5.574-10.177c-0.753-1.445-1.652-2.805-2.589-3.909c-3.99-4.705-10.492-6.391-16.632-7.002
			c1.725,3.21,3.498,6.484,6.175,8.959c2.621,2.423,6.065,4.684,9.576,5.45c1.209,0.264,2.471,0.394,3.652,0.731
			c1.539,2.899,2.771,6.001,3.871,9.082c1.377,3.858,2.669,7.734,4.627,11.349c0.325,0.601,0.689,1.217,1.072,1.834
			c-2.231-0.706-4.455-1.417-6.672-2.124c-2.282-0.728-4.414-1.551-6.418-2.495c-0.088-0.053-0.182-0.098-0.284-0.136
			c-6.05-2.902-10.917-6.942-15.117-12.918c-2.207-3.14-4.122-6.514-5.898-9.97c-0.879-3.32-0.01-6.985,0.579-10.398
			c1.498-2.521,2.826-5.135,3.498-7.976c0.924-3.901,1.235-8.517,0.046-12.374c-0.602-1.952-1.562-3.855-1.55-5.898
			c-2.639,2.228-4.996,5.914-6.182,9.123c-2.233,6.045-0.709,12.775,1.76,18.79c-0.235,1.266-0.436,2.58-0.539,3.901
			c-1.083-2.268-2.138-4.542-3.194-6.783c-0.799-1.695-3.616-0.5-3.03,1.278c3.569,10.833,7.855,21.92,16.268,29.839
			c-2.036-0.426-3.972-0.94-5.896-1.766c-2.027-0.871-4.048-1.755-6.132-2.482c-2.138-0.746-4.307-1.439-6.507-1.984
			c-2.218-0.549-4.472-0.951-6.666-1.597c-3.523-1.038-6.88-2.647-9.898-4.742c-1.595-1.108-3.111-2.382-4.518-3.769
			c-0.587-3.149-1.353-6.267-2.878-9.066c-1.918-3.52-4.77-7.163-8.23-9.24c-1.752-1.051-3.738-1.825-5.093-3.354
			c-0.476,3.42,0.232,7.738,1.493,10.918c2.313,5.834,7.713,9.768,13.402,12.581c3.366,3.848,7.472,7.041,12.121,9.238
			c0.782,0.37,1.574,0.689,2.37,0.987c-2.636,0.411-5.259,1.163-7.87,1.874c-3.159,0.859-6.198,1.358-9.467,0.842
			c-0.049-0.008-0.097-0.019-0.146-0.027c-2.21-2.486-4.554-4.867-7.419-6.528c-3.468-2.01-7.798-3.64-11.834-3.615
			c-2.043,0.013-4.142,0.383-6.094-0.218c1.371,3.169,4.221,6.491,6.951,8.552c5.371,4.054,12.637,4.4,19.352,3.646
			c2.369,0.397,4.801,0.501,7.316,0.221c3.062-0.341,6.077-1.015,9.085-1.666c3.123-0.676,6.021-1.247,9.165-0.334
			c0.292,0.085,0.535,0.043,0.736-0.059c0.326,0.078,0.652,0.154,0.979,0.234c2.224,0.545,4.427,1.182,6.635,1.786
			c2.325,0.636,4.583,1.284,6.747,2.363c2.258,1.126,4.528,2.301,6.975,2.94c1.586,0.414,3.188,0.724,4.804,0.949
			c4.398,2.377,9.101,4.285,13.621,6.232c6.244,2.689,12.508,5.323,18.87,7.716c-6.884,1.268-13.968,2.573-20.606,4.641
			c-7.766,2.42-14.667,6.031-23.067,5.667c-2.159-0.094-4.281-0.401-6.37-0.859c-1.702-3.244-4.216-6.41-6.72-8.638
			c-6.707-5.967-16.421-7.071-25.394-6.7c3.139,4.275,6.361,8.632,10.722,11.652c4.124,2.856,9.322,5.319,14.371,5.835
			c6.92,2.82,14.55,2.97,22.253,1.532c-1.231,0.641-2.437,1.332-3.567,2.173c-3.258,2.422-6.105,5.257-8.917,8.17
			c-1.459,1.512-3.019,2.96-4.689,4.258c-3.939-0.954-8.655-0.995-12.406-0.299c-8.827,1.638-15.656,8.635-20.865,15.949
			c5.302,0.142,10.719,0.269,15.779-1.323c4.955-1.559,10.3-4.276,13.805-8.158c0.515-0.571,1.006-1.172,1.499-1.771
			c2.86-1.466,5.573-3.303,8.13-5.414c3.275-2.704,6.296-5.619,9.393-8.52c1.55-1.452,3.135-2.957,4.867-4.193
			c1.491-1.063,3.17-1.794,4.693-2.794c8.035-2.401,15.991-5.318,24.487-5.08c4.394,0.123,8.773,0.884,13.15,0.994
			c3.303,0.083,6.632-0.244,9.931-0.618c2.158,0.534,4.328,1.022,6.513,1.445c7.856,1.521,15.831,2.243,23.598,4.254
			c4.333,1.121,7.91,2.781,11.215,4.974c-3.937-0.318-8.003-0.109-12.253,0.558c-5.236,0.822-10.767,2.103-15.529,4.482
			c-5.203,2.599-9.615,6.46-14.7,9.218c-2.75,1.492-5.561,2.897-8.388,4.267c-0.278,0.036-0.555,0.077-0.834,0.102
			c-1.922,0.172-3.804,0.058-5.72-0.112c-3.842-0.342-7.822-0.713-11.575-1.623c-2.852-0.691-5.537-1.877-8.283-2.892
			c-1.745-1.585-3.879-2.956-5.839-3.799c-5.665-2.437-12.238-1.053-18.008,1.132c2.972,2.107,6.017,4.249,9.514,5.273
			c3.425,1.003,7.515,1.495,10.999,0.618c0.997-0.251,1.986-0.6,2.986-0.841c2.974,1.294,5.836,2.824,8.97,3.74
			c3.317,0.97,6.807,1.643,10.261,1.987c-2.559,1.209-5.182,2.429-7.872,3.362c-3.891-1.449-8.767-2.01-12.699-1.683
			c-8.946,0.744-16.443,7.02-22.361,13.775c5.261,0.673,10.638,1.343,15.832,0.267c5.087-1.054,10.677-3.221,14.554-6.731
			c0.564-0.51,1.106-1.052,1.65-1.593c5.633-1.011,11.069-3.557,16.321-5.854c5.392-2.358,10.802-5.397,16.565-6.659
			c5.434-1.19,10.978-1.729,16.409-2.891c7.693-1.646,15.511-1.631,23.159-0.214c-0.463,0.223-0.923,0.448-1.375,0.677
			c-4.052,2.049-7.911,4.514-11.497,7.298c-3.691,2.866-6.969,6.105-9.905,9.739c-1.523,1.885-2.988,3.823-4.757,5.49
			c-1.799,1.696-3.98,2.96-6.276,3.857c-0.339,0.132-0.683,0.239-1.025,0.357c-2.479-1.305-5.65-2.121-8.289-2.276
			c-6.157-0.362-11.865,3.177-16.547,7.196c3.512,0.969,7.104,1.946,10.741,1.719c3.562-0.223,7.574-1.153,10.553-3.164
			c0.84-0.567,1.64-1.222,2.484-1.783c0.023-0.006,0.047-0.011,0.07-0.017c4.526-1.229,8.313-3.611,11.728-6.785
			c3.48-3.235,6.73-6.642,10.502-9.556c3.637-2.809,7.598-5.223,11.784-7.119c3.268-1.48,6.648-2.525,10.051-3.537
			c6.79,2.212,12.57,6.102,17.901,10.635c1.607,2.277,3.135,4.654,4.558,7.119c-0.654,5.005-1.05,10.054-1.895,15.041
			c-1.08,6.381-1.944,12.894-3.845,19.097c-1.841,6.011-5.482,11.462-6.858,17.59c-2.387,10.629-2.312,21.755-11.125,29.452
			c-9.311,8.132-20.142,14.94-30.783,21.38c-4.843,1.771-9.692,3.51-14.552,5.153c-2.612,0.883-2.402,5.479,0.695,5.134
			c0.233-0.026,0.462-0.066,0.699-0.095c8.679-1.055,17.029-3.689,25.057-7.189c4.295-1.127,8.594-2.184,12.877-3.114
			c5.754-1.249,11.892-2.584,17.806-2.067c6.008,0.525,11.282,3.238,16.682,5.665c5.93,2.666,11.643,4.161,18.199,3.625
			c6.286-0.514,12.492-1.897,18.745-2.67c6.561-0.812,12.798-2.189,19.384-0.772c11.391,2.451,23.084,6.243,34.168,9.965
			c2.919,0.98,4.116-3.561,1.263-4.583c-21.188-7.596-43.105-20.09-52.823-41.506c-5.688-12.535-3.178-25.204-3.156-38.407
			c0.013-7.819-1.127-15.043-3.518-22.466c-1.019-3.163-1.985-6.419-3.034-9.65c0.766-1.409,1.568-2.811,2.444-4.203
			c3.63-5.764,8.335-11.152,14.299-14.544c4.076-2.318,8.53-3.796,13.003-5.227c0.722,0.601,1.787,0.757,2.5-0.117
			c1.853-2.271,5.316-1.469,7.794-0.907c4.158,0.944,8.277,1.947,12.334,3.273c2.066,0.676,4.109,1.446,6.218,1.982
			c1.944,0.494,3.934,0.724,5.921,0.966c2.348,0.286,4.57,0.804,6.685,1.63c-1.323,2.154,4.008,7.062,5.588,8.315
			c4.667,3.702,11.625,4.203,16.769,1.208c-2.581-3.446-5.259-6.981-8.961-9.177c-2.916-1.731-6.586-2.212-9.987-1.654
			c-2.986-1.585-6.204-2.474-9.632-2.918c-2.242-0.29-4.42-0.609-6.575-1.317c-2.299-0.755-4.536-1.696-6.814-2.511
			c-2.001-0.716-4.029-1.492-6.078-2.199c3.433,0.19,6.877,0.611,10.267,0.984c9.488,1.044,18.729,0.834,28.236,1.063
			c3.278,0.079,6.231,0.624,8.994,1.507c1.158,1.055,2.379,2.054,3.503,3.137c1.471,1.417,2.868,2.912,4.198,4.462
			c1.363,1.588,2.655,3.258,3.671,5.092c1.06,1.914,1.684,3.986,2.333,6.064c1.257,4.018,3.132,7.256,6.531,9.817
			c0.938,0.706,1.932,1.329,2.956,1.902c0.713,2.658,5.996,6.226,7.702,7.212c5.854,3.381,13.751,2.785,19.03-1.435
			c-3.47-3.44-7.063-6.965-11.584-8.816c-4.383-1.795-9.748-1.306-13.986,0.789c-0.083,0.041-0.152,0.086-0.226,0.129
			c-0.983-0.63-1.927-1.317-2.799-2.103c-1.377-1.241-2.545-2.687-3.335-4.372c-0.961-2.05-1.301-4.326-1.805-6.514
			c-0.785-3.408-2.245-6.52-4.288-9.297c1.759,1.161,3.526,2.394,5.348,3.666c5.7,3.98,11.795,7.093,18.627,7.364
			c2.229,2.512,8.046,4.754,10.023,5.365c7.53,2.327,16.356-0.394,21.269-6.557c-4.834-3.012-9.831-6.087-15.45-7.021
			c-5.448-0.905-11.422,1.039-15.7,4.517c-0.097,0.079-0.177,0.158-0.259,0.238c-3.668-0.65-7.063-2.23-10.29-4.214
			c2.899-0.067,5.797-0.561,8.508-1.448c2.551-0.836,4.928-2.026,7.203-3.4c2.342,0.943,7.153,0.345,8.714,0.042
			c5.847-1.136,10.755-6.095,11.826-11.95c-4.296-0.281-8.723-0.547-12.799,0.835c-3.953,1.34-7.237,4.765-8.845,8.606
			c-0.207,0.494-0.248,0.911-0.159,1.262c-1.953,0.968-3.968,1.799-6.09,2.363c-4.344,1.155-8.725,1.17-13.106,0.476
			c-2.399-1.746-4.732-3.567-7.046-5.212c-7.837-5.573-15.75-8.051-25.354-8.098c-4.782-0.023-9.549,0.455-14.334,0.288
			c-5.268-0.183-10.442-1.261-15.645-2.028c-0.321-0.047-0.643-0.092-0.964-0.137c3.742-2.232,7.297-4.752,10.863-7.694
			c5.345-4.408,10.05-9.66,15.226-14.236c0.314-0.105,0.628-0.271,0.932-0.514c1.383-1.107,2.797-2.169,4.237-3.184
			c4.881-1.071,9.789-1.9,14.859-1.511c3.219,0.247,6.218,1.168,9.15,2.307c0.186,0.178,0.375,0.353,0.55,0.544
			c1.011,1.105,1.777,2.39,2.711,3.556c0.958,1.197,1.936,2.305,2.798,3.583c0.865,1.284,1.704,2.588,2.591,3.857
			c2.855,4.083,6.431,8.149,11.226,9.758c1.766,1.843,5.993,3.468,7.452,3.919c5.688,1.758,12.355-0.298,16.066-4.953
			c-3.651-2.275-7.426-4.598-11.671-5.303c-4.115-0.684-8.628,0.785-11.859,3.412c-0.273,0.222-0.461,0.449-0.587,0.677
			c-4.275-2.057-7.344-6.223-9.893-10.152c-0.779-1.201-1.551-2.407-2.336-3.604c-0.715-1.09-1.323-2.221-2.12-3.242
			c2.587,1.109,5.189,2.193,7.913,2.933c4.152,1.129,8.448,1.686,12.748,1.724c0.614,0.005,0.605-0.911,0-0.947
			c-4.038-0.24-8.025-0.949-11.889-2.147c-3.838-1.189-7.382-2.943-10.967-4.728c-0.932-0.464-1.865-0.904-2.806-1.315
			c-0.738-0.5-1.491-0.96-2.247-1.356c-0.37-0.194-0.722-0.101-0.964,0.115c-1.559-0.522-3.156-0.936-4.826-1.18
			c-2.932-0.429-5.906-0.501-8.86-0.285c6.488-3.389,13.538-5.344,21.254-4.605c6.392,0.613,12.26,3.394,18.461,4.863
			c3.013,0.714,6.008,1.07,9.012,1.148c1.339,0.776,2.613,1.686,3.874,2.607c2.773,2.025,5.587,3.803,8.847,4.944
			c2.297,0.804,4.667,1.294,7.072,1.578c0.743,2.271,6.11,4.774,7.784,5.414c5.563,2.128,12.351,0.515,16.357-3.888
			c-3.497-2.511-7.114-5.077-11.305-6.06C441.845,291.092,437.246,292.262,433.85,294.671z M286.444,132.236
			c0.014,0.009,0.027,0.019,0.041,0.028c-0.038,0.021-0.078,0.039-0.116,0.06C286.394,132.294,286.42,132.266,286.444,132.236z"/>
        <g>
			<g>
				<circle style="fill:#27A69F;" cx="291.429" cy="261.632" r="25.868"/>
                <circle style="fill:transparent;" cx="291.429" cy="261.632" r="22.05"/>
			</g>
            <g>
				<g>
					<circle style="fill:#27A69F;" cx="157.022" cy="162.595" r="25.868"/>
                    <circle style="fill:transparent;" cx="157.022" cy="162.595" r="22.05"/>
				</g>
                <g>
					<circle style="fill:#27A69F;" cx="265.154" cy="184.828" r="25.868"/>
                    <circle style="fill:transparent;" cx="265.154" cy="184.828" r="22.05"/>
				</g>
                <g>
					<circle style="fill:#27A69F;" cx="310.63" cy="115.098" r="25.868"/>
                    <circle style="fill:transparent;" cx="310.63" cy="115.098" r="22.05"/>
				</g>
                <g>
					<circle style="fill:#27A69F;" cx="201.488" cy="230.304" r="25.868"/>
                    <circle style="fill:transparent;" cx="201.488" cy="230.304" r="22.05"/>
				</g>
                <g>
					<circle style="fill:#27A69F;" cx="134.789" cy="293.971" r="25.868"/>
                    <circle style="fill:transparent;" cx="134.789" cy="293.971" r="22.05"/>
				</g>
                <g>
					<circle style="fill:#27A69F;" cx="204.519" cy="327.32" r="25.868"/>
                    <circle style="fill:transparent;" cx="204.519" cy="327.32" r="22.05"/>
				</g>
                <g>
					<circle style="fill:#27A69F;" cx="377.329" cy="279.823" r="25.868"/>
                    <circle style="fill:transparent;" cx="377.329" cy="279.823" r="22.05"/>
				</g>
                <g>

						<ellipse transform="matrix(0.2323 -0.9726 0.9726 0.2323 -115.9751 299.5209)"
                                 style="fill:#27A69F;" cx="131.757" cy="223.23" rx="25.868" ry="25.868"/>

                    <ellipse transform="matrix(0.926 -0.3776 0.3776 0.926 -74.5356 66.2751)" style="fill:transparent;"
                             cx="131.757" cy="223.23" rx="22.05" ry="22.05"/>
				</g>
                <g>
					<circle style="fill:#27A69F;" cx="366.212" cy="204.029" r="25.868"/>
                    <circle style="fill:transparent;" cx="366.212" cy="204.029" r="22.05"/>
				</g>
                <g>
					<circle style="fill:#27A69F;" cx="317.704" cy="333.383" r="25.868"/>
                    <circle style="fill:transparent;" cx="317.704" cy="333.383" r="22.05"/>
				</g>
			</g>
		</g>
	</g>
</g>
</svg>
