<svg version="1.1" id="Layer_1" xmlns="http://www.w3.org/2000/svg" x="0px" y="0px"
	 width="100%" viewBox="0 0 736 736" enable-background="new 0 0 736 736" xml:space="preserve">
<path fill="#ffffffeb" opacity="1.000000" stroke="none"
	d="
M180.989792,171.020203 
	C188.570801,164.785599 195.968979,158.311646 203.763840,152.356979 
	C241.770554,123.322777 284.582123,105.654312 331.902374,99.007759 
	C341.431519,97.669304 351.034637,96.678795 361.328125,96.538071 
	C359.638550,90.995216 356.111267,87.275818 352.638123,83.684669 
	C344.589142,75.362251 335.045715,70.395088 323.083008,72.661140 
	C310.308807,75.080925 303.538605,84.857338 305.357635,97.643158 
	C305.445618,98.261604 305.300659,98.913193 305.266144,99.514908 
	C301.652313,99.906898 301.652313,99.906898 297.320099,96.840935 
	C292.405579,101.633659 286.899689,105.546700 279.397736,104.395668 
	C277.010925,104.029449 274.938568,103.073967 274.058716,100.013901 
	C283.001892,97.139320 288.380737,89.682518 294.916962,83.665207 
	C309.466278,70.270973 318.470215,67.067749 338.459320,68.405807 
	C332.217102,63.006462 325.015167,62.529160 317.649597,63.629204 
	C310.316711,64.724365 303.852203,68.267059 297.796753,72.308632 
	C292.292999,67.829582 296.080994,63.594784 297.484497,59.323689 
	C294.465149,60.399155 294.039154,60.732655 291.331726,65.046432 
	C289.024780,68.722061 286.771912,72.430946 283.437744,75.298416 
	C280.764313,77.597626 278.450684,78.988541 275.991669,74.609444 
	C274.022034,71.101814 270.574860,70.365143 266.946289,72.659950 
	C263.718323,74.701370 261.733887,77.364433 263.159607,81.409645 
	C264.533020,85.306435 267.527435,86.572289 271.543518,85.142471 
	C273.247559,84.535797 274.524963,82.960106 276.488373,82.959572 
	C277.782013,87.579803 276.229279,90.812256 271.796234,92.797485 
	C261.798309,97.274811 251.768539,91.007271 250.677673,79.656761 
	C249.873199,71.285873 253.112686,64.685104 259.474152,59.513592 
	C271.917999,49.397373 286.601349,45.950485 302.092377,47.118446 
	C331.993927,49.372902 352.164703,65.159889 362.584900,93.236351 
	C363.618744,96.021935 365.029938,96.941467 367.684387,96.571938 
	C370.543457,96.173927 373.773804,97.723747 375.393616,93.193054 
	C380.812195,78.037209 389.672729,65.252724 403.815857,56.994831 
	C425.163361,44.530437 447.304779,43.553341 469.809174,53.778030 
	C475.315063,56.279587 480.102081,59.955032 483.604218,65.031731 
	C488.393433,71.974190 488.728027,79.348267 485.127197,86.804527 
	C481.485321,94.345840 470.544739,96.661285 464.057404,91.433456 
	C461.434753,89.320000 459.939178,86.716331 461.070068,83.201363 
	C463.136322,82.731537 464.229279,84.354927 465.718384,84.918236 
	C469.218994,86.242485 472.273193,86.212555 474.376068,82.592598 
	C476.343201,79.206352 475.326935,75.394035 471.807068,73.053032 
	C468.519073,70.866219 465.293610,70.522041 462.410950,73.764046 
	C458.381317,78.296066 457.261414,78.441071 453.121765,73.759056 
	C450.600220,70.907143 448.642487,67.562347 446.353729,64.497040 
	C444.822784,62.446629 443.688080,59.968006 440.785156,58.503532 
	C440.327362,61.426449 442.375031,62.916073 442.873627,64.919182 
	C443.486725,67.382133 443.336182,69.683823 441.410675,71.367424 
	C439.472687,73.061951 438.027191,70.983871 436.594360,70.130180 
	C427.444641,64.678810 417.905457,61.384708 407.106445,64.250664 
	C403.858276,65.112709 400.936462,66.540077 397.611542,69.532700 
	C416.422211,64.038139 430.161926,71.911568 442.680725,83.417778 
	C446.114197,86.573509 449.427734,89.860443 452.772888,93.111298 
	C455.905212,96.155365 459.470123,98.503387 463.682098,99.752701 
	C460.685394,107.299042 451.124268,106.073837 440.739197,96.979568 
	C438.153656,97.684753 436.468964,101.538857 432.699249,99.461311 
	C432.128082,96.130600 434.201233,92.917366 433.186096,89.314583 
	C429.388184,75.835144 414.498077,68.487473 400.251160,73.683998 
	C389.404205,77.640373 382.163483,85.662399 376.285400,96.292847 
	C382.055695,97.086914 387.351654,97.055260 392.538513,97.505936 
	C442.001556,101.803749 486.780090,118.682762 527.306702,147.143204 
	C537.544067,154.332535 546.912964,162.614380 556.707031,170.857758 
	C556.993774,170.999741 556.966431,170.974884 556.966431,170.974884 
	C557.258728,171.380402 557.524475,171.808502 557.847229,172.188126 
	C564.391174,179.885254 564.399170,179.900818 573.763306,176.157715 
	C614.266663,159.967331 651.307617,184.966843 662.802856,216.180695 
	C665.306641,222.979401 666.316406,229.993439 664.430786,237.249451 
	C662.308594,245.415497 656.765320,249.977859 649.006165,251.966370 
	C641.784973,253.817001 632.955261,247.278397 632.330933,239.808731 
	C632.079163,236.795715 632.633423,233.835800 636.012329,232.131958 
	C637.673828,233.357895 637.715088,235.333771 638.475586,236.882172 
	C639.973328,239.931702 641.657898,242.453903 645.728394,241.108688 
	C649.872070,239.739304 651.543152,236.739410 651.064392,232.641495 
	C650.631897,228.940613 648.554565,226.492294 644.554321,226.311401 
	C637.312561,225.983963 636.586121,224.812225 637.283997,217.390289 
	C637.809509,211.801163 640.545410,206.509857 639.544922,200.284409 
	C637.186646,201.419586 637.323425,203.646133 636.609985,205.272949 
	C635.512268,207.775726 633.725647,209.683868 631.077759,209.703217 
	C628.014160,209.725601 628.532898,206.596771 628.026123,204.729782 
	C625.661255,196.016235 622.030884,188.126511 614.657593,182.451614 
	C610.885864,179.548721 606.581116,178.035843 600.350830,177.236526 
	C619.043457,187.062897 622.251831,203.408844 623.175720,220.844604 
	C623.378357,224.668686 623.413147,228.514038 623.275696,232.340622 
	C623.105103,237.086212 624.273682,241.488510 626.409363,245.658081 
	C618.776001,248.773346 611.964050,239.788391 612.243347,227.225235 
	C609.625977,226.452255 606.171997,227.133804 604.590576,223.827927 
	C604.876526,223.284775 604.999207,222.606903 605.338440,222.471603 
	C618.382812,217.268524 618.190063,195.006760 605.441772,185.705521 
	C593.856812,177.253006 581.212097,178.144531 568.286682,180.616608 
	C567.658081,183.344864 569.513855,184.366135 570.647400,185.617996 
	C605.278625,223.863968 627.314392,268.392578 636.884827,319.033813 
	C640.007629,335.558228 641.959167,352.273376 641.334412,369.150848 
	C641.195068,372.916229 642.358398,374.557587 646.038086,375.862152 
	C684.522095,389.505798 702.570190,434.656677 683.816406,470.502167 
	C678.469055,480.722961 670.997192,488.492340 657.949707,487.313782 
	C646.746582,486.301819 640.299316,474.968750 645.618408,465.494507 
	C647.688904,461.806549 650.695374,459.944366 655.057190,460.900269 
	C655.703552,463.049225 653.783325,463.950714 653.211609,465.423431 
	C651.883850,468.843811 651.522034,471.912292 655.161560,474.170807 
	C659.079834,476.602356 662.237000,475.133728 664.793579,472.012573 
	C667.335449,468.909363 667.523071,465.599365 664.448181,462.632141 
	C659.667847,458.019165 659.604980,457.490509 664.382202,452.937561 
	C667.410095,450.051880 670.903259,447.788696 674.444153,445.574890 
	C676.281067,444.426392 678.623718,443.582611 679.209534,440.883118 
	C676.815247,440.090607 675.585693,441.916748 673.989563,442.543701 
	C671.420776,443.552643 668.900574,443.592102 666.970947,441.700653 
	C664.743896,439.517670 667.215210,437.713867 668.213745,436.037964 
	C672.571533,428.723419 675.381287,421.057251 674.739868,412.358246 
	C674.349060,407.058868 672.524414,402.434357 668.307068,397.186890 
	C673.914001,415.773285 666.687927,429.269592 655.450134,441.491913 
	C651.616638,445.661224 647.836182,449.885620 643.856506,453.911957 
	C641.088257,456.712738 639.587769,460.150757 638.332092,463.743896 
	C630.777222,460.702789 631.898010,451.659546 641.020142,440.749817 
	C640.337280,438.223694 637.050659,436.539032 638.313171,433.063416 
	C638.866699,432.957642 639.507690,432.687164 640.121094,432.739380 
	C658.844360,434.334015 670.984985,417.894104 664.182556,399.918610 
	C660.156311,389.279053 652.266663,382.128113 641.787659,376.301697 
	C640.806824,382.220734 640.980286,387.687775 640.494324,393.022644 
	C635.451477,448.381409 615.187744,497.511688 580.563599,540.832336 
	C576.305603,546.159790 571.730408,551.233826 567.151306,556.711060 
	C567.000366,556.996765 567.020752,556.974060 567.020752,556.974060 
	C563.432922,559.739746 560.356750,563.024963 557.206787,566.719666 
	C557.003296,566.997681 556.984924,567.019775 556.984924,567.019775 
	C546.141907,575.846313 535.746765,585.212402 524.161682,593.133362 
	C486.885315,618.620056 445.979095,634.322205 401.059448,639.511658 
	C393.133423,640.427368 385.203339,641.187012 376.444672,641.536926 
	C378.180359,646.242859 381.058838,649.601624 383.969421,652.817383 
	C391.551239,661.194031 400.511871,666.722839 412.411285,665.723938 
	C422.438934,664.882141 430.732330,657.760498 433.269867,648.278564 
	C434.186951,644.851746 432.144745,641.755310 432.928986,638.329773 
	C436.314575,636.934570 438.063507,639.866638 440.863464,641.280090 
	C445.584900,635.843140 451.495667,632.540527 459.117554,633.766907 
	C461.343994,634.125122 463.189484,635.164307 463.996552,637.896484 
	C452.184875,642.291260 445.577789,653.217468 435.854980,660.359680 
	C424.500946,668.700073 412.476868,672.828979 398.442017,669.039551 
	C413.269196,679.624329 426.946594,673.973083 440.342224,665.727844 
	C445.547791,670.055786 442.341095,674.266846 440.285858,678.902527 
	C443.404633,678.724426 444.217712,676.538635 445.284149,674.916931 
	C448.031342,670.739502 450.546478,666.397461 454.305481,662.997192 
	C457.056396,660.508728 459.477661,658.889221 462.126526,663.521484 
	C464.160797,667.078979 467.685730,667.597412 471.211456,665.283386 
	C474.369751,663.210693 476.374115,660.479858 474.826202,656.462646 
	C473.377350,652.702698 470.619720,651.413086 466.832855,652.810120 
	C464.997803,653.487122 463.290894,654.511353 461.147095,655.564514 
	C459.876190,651.656616 461.210693,648.860779 463.901428,646.626038 
	C470.302673,641.309509 481.080994,643.561646 485.041565,650.954529 
	C489.234283,658.780762 487.926941,668.374756 481.839752,675.104187 
	C473.181671,684.675842 461.854248,688.762085 449.536835,690.260498 
	C415.888702,694.353943 388.965332,678.301514 376.150116,646.853516 
	C373.937439,641.423645 371.543671,640.271179 365.845337,641.436157 
	C363.007874,642.016174 362.963715,644.382507 362.209717,646.277527 
	C354.992249,664.417603 343.312195,678.477295 324.802307,685.709106 
	C303.392456,694.073792 282.356354,693.342102 262.592194,680.794617 
	C254.549423,675.688599 249.732819,668.296082 250.708893,658.153076 
	C251.794128,646.875427 262.193329,640.557251 271.954407,645.324585 
	C275.931305,647.266907 277.944153,650.369690 277.216492,654.921936 
	C274.976440,655.739380 274.068939,653.786560 272.616394,653.223755 
	C269.235535,651.913696 266.113190,651.416870 263.835632,655.064941 
	C261.739899,658.421814 262.543823,662.353516 265.877533,664.745300 
	C269.065674,667.032715 272.254333,667.533447 275.310150,664.426636 
	C279.966583,659.692566 280.909180,659.614014 285.380768,664.741028 
	C287.884918,667.612244 289.864929,670.936768 292.137024,674.015808 
	C293.379333,675.699219 294.212280,677.864807 297.288879,678.447937 
	C296.407532,676.188293 295.498413,674.331055 294.967590,672.371399 
	C294.362915,670.139160 294.874878,667.881531 296.743774,666.492615 
	C298.456787,665.219604 299.801117,667.024292 301.163422,667.818359 
	C307.556458,671.544495 314.165344,674.538696 321.751312,674.804016 
	C328.312347,675.033447 334.289398,673.552246 340.118713,668.774902 
	C333.709412,670.212952 327.939514,670.919678 322.143677,669.830078 
	C313.192230,668.147278 305.694794,663.595642 298.945618,657.711060 
	C295.431305,654.646912 292.057007,651.417175 288.701813,648.176880 
	C284.402954,644.025391 280.216125,639.747681 274.103058,638.267761 
	C277.783875,630.808350 287.432922,632.092041 296.989624,640.935425 
	C299.690491,640.469116 301.448914,636.640015 304.994568,638.392212 
	C305.123505,638.836487 305.469238,639.357849 305.362579,639.758972 
	C303.137115,648.126343 305.917664,654.913696 312.295563,660.214233 
	C319.370422,666.094177 327.677246,667.353943 336.317017,664.703796 
	C347.960571,661.132385 355.399170,652.623840 361.891235,641.827148 
	C355.587097,641.305786 350.033997,640.864319 344.484192,640.384766 
	C304.518158,636.931213 267.236053,624.931702 232.517624,604.952393 
	C215.566467,595.197571 199.871475,583.673584 185.470703,570.412231 
	C184.250595,569.288696 182.892151,568.315430 181.302094,567.137207 
	C181.006210,567.002014 181.027237,567.020203 181.027237,567.020203 
	C178.394608,563.271118 174.962433,560.306580 171.265961,557.170349 
	C171.001816,556.998474 171.031815,557.026611 171.031815,557.026611 
	C162.964737,546.861450 154.180923,537.294861 146.686996,526.640930 
	C121.202477,490.410309 104.577881,450.480560 99.144211,406.592682 
	C88.171936,317.969299 114.034515,241.193817 175.884277,176.649261 
	C177.496353,174.966965 179.064529,173.242615 180.829178,171.268524 
	C181.005173,170.999146 180.989792,171.020203 180.989792,171.020203 
M508.029419,141.528198 
	C442.082092,102.506119 371.959045,91.975143 297.910828,112.086174 
	C235.704163,128.981110 186.457275,164.883469 149.610229,217.602798 
	C129.747421,246.021713 116.265228,277.362396 108.676270,311.292236 
	C100.597435,347.412292 100.101532,383.564758 107.215630,419.807556 
	C114.494171,456.888062 128.895523,490.928345 150.759872,521.890259 
	C170.013519,549.155273 193.329056,572.214600 221.026840,590.639099 
	C255.783844,613.759399 293.837982,628.129211 335.502319,633.420471 
	C368.027740,637.551086 400.112427,635.910400 431.698364,628.191833 
	C488.620300,614.281799 536.191956,584.744385 573.741516,539.569214 
	C611.962036,493.586945 632.472168,440.509064 635.502686,380.911316 
	C637.139587,348.719116 632.836121,317.087555 622.586548,286.412903 
	C601.932312,224.599838 563.760620,176.574432 508.029419,141.528198 
z"/>
<path fill="#ffffffeb" opacity="1.000000" stroke="none"
	d="
M557.013855,566.987427 
	C558.845642,567.042297 559.495178,568.417358 560.183777,569.773865 
	C571.997009,593.045715 567.796082,623.093933 550.360596,642.657593 
	C540.420166,653.811401 528.808044,661.933838 513.983826,664.907471 
	C501.586884,667.394104 490.654358,662.067566 486.762878,651.777893 
	C483.635376,643.508362 488.633820,634.283386 497.257904,632.408447 
	C500.856415,631.626160 503.464142,632.712158 506.289124,636.304932 
	C504.867767,637.862244 502.655487,637.595642 500.980438,638.505005 
	C498.161041,640.035828 495.788330,641.785706 496.846130,645.487000 
	C498.040833,649.667175 501.018372,651.376953 505.214722,650.862732 
	C508.901276,650.411072 511.490417,648.575317 511.665619,644.527649 
	C511.963013,637.658203 513.499146,636.480225 520.581665,637.156006 
	C525.963623,637.669617 531.059937,640.391174 536.897095,639.400574 
	C536.162720,637.129883 534.188660,637.401672 532.806396,636.853455 
	C530.028931,635.751831 528.217041,633.684631 528.233459,630.881592 
	C528.251038,627.891052 531.379822,628.397766 533.254517,627.882935 
	C540.750366,625.824768 547.794861,623.014099 553.275330,617.229431 
	C557.380981,612.895874 559.954346,607.834473 560.742981,600.529236 
	C551.651489,617.750854 536.696350,622.003174 520.101379,623.069885 
	C516.280945,623.315430 512.439392,623.335266 508.609100,623.299805 
	C502.949066,623.247375 497.328308,623.276672 492.461212,626.607178 
	C488.034332,618.949280 499.754486,611.736450 510.120026,611.872620 
	C511.914764,609.762756 510.760620,605.718018 514.681824,604.613342 
	C516.306580,606.542542 517.778687,608.785461 519.715698,610.504578 
	C527.826843,617.703125 541.456848,616.436890 550.084106,607.743896 
	C555.332642,602.455383 558.206299,595.979919 558.737671,588.578735 
	C559.239746,581.585815 559.185913,574.592468 557.100708,567.390259 
	C556.984924,567.019775 557.003296,566.997681 557.013855,566.987427 
z"/>
<path fill="#ffffffeb" opacity="1.000000" stroke="none"
	d="
M180.998169,566.990967 
	C178.593338,576.488708 177.906799,586.088135 180.640182,595.586426 
	C184.305710,608.323853 194.632080,615.476807 207.550354,614.896057 
	C214.776520,614.571167 219.464020,610.487793 223.126755,604.598938 
	C226.943222,605.912964 226.710495,609.097412 226.974152,611.914551 
	C240.648788,612.524963 248.618546,618.538574 245.807327,626.453064 
	C235.244812,620.828491 223.643402,624.050659 212.521255,622.623352 
	C197.639832,620.713623 185.262985,615.501587 177.652786,601.718445 
	C178.495346,610.409607 182.926300,616.855225 189.945084,621.601868 
	C194.534256,624.705444 199.664322,626.638123 205.047974,627.990234 
	C206.802948,628.430908 209.642792,628.042114 209.706467,630.769775 
	C209.767487,633.382935 208.231949,635.396423 205.645828,636.537720 
	C204.169800,637.189026 202.273148,636.989441 200.991714,638.904663 
	C203.123993,640.451233 205.290298,639.635498 207.397400,639.209778 
	C212.278244,638.223633 217.083313,636.561829 222.158646,637.173645 
	C225.374298,637.561340 227.928146,638.240723 226.611343,642.837830 
	C225.362686,647.197083 228.062286,650.333679 232.464172,650.862305 
	C237.293625,651.442322 241.204224,648.653442 241.442917,644.335083 
	C241.576065,641.926575 240.350677,640.164185 238.190918,639.175537 
	C236.113586,638.224609 233.961761,637.436462 231.613434,636.483765 
	C233.470474,632.787964 236.611328,631.909729 240.010269,632.323730 
	C248.076370,633.306152 253.842117,642.289307 251.666626,650.123352 
	C248.471283,661.629944 237.280426,667.528320 223.741730,664.841858 
	C198.063049,659.746582 175.160690,634.777283 171.684265,608.426819 
	C169.952698,595.301941 172.415390,582.930847 177.368317,570.886963 
	C177.980469,569.398438 178.373871,567.632751 180.673416,567.086182 
	C181.027237,567.020203 181.006210,567.002014 180.998169,566.990967 
z"/>
<path fill="#ffffffeb" opacity="1.000000" stroke="none"
	d="
M557.005249,171.014206 
	C559.616211,160.672455 560.334839,150.291504 556.602905,140.072998 
	C552.555786,128.991516 542.676025,122.591103 531.030273,123.101570 
	C524.590881,123.383820 519.436279,125.837517 516.255676,131.693359 
	C515.843567,132.452011 515.366028,133.091599 514.330750,133.307465 
	C511.047943,132.073502 511.416046,128.949142 510.893921,126.003578 
	C503.810486,125.856552 497.021240,124.600945 492.559326,118.276062 
	C491.245605,116.413864 490.277008,114.174385 492.214142,111.540718 
	C497.828522,114.871193 503.960876,114.783676 510.098114,114.751945 
	C517.268250,114.714867 524.419067,114.996231 531.489136,116.351677 
	C544.016785,118.753418 554.070618,124.746605 560.383606,136.266617 
	C559.134949,125.725121 553.263733,118.660736 544.054749,114.069855 
	C540.313110,112.204567 536.333374,111.007164 532.335327,109.825111 
	C530.754333,109.357674 528.212769,109.717369 528.229187,107.081367 
	C528.242188,104.995171 529.541138,103.389412 531.222107,102.126945 
	C532.936462,100.839409 535.476746,101.172943 537.176025,98.886223 
	C534.563171,97.785698 532.267456,98.482620 529.886292,98.969353 
	C524.858215,99.997162 519.870667,101.611015 514.615112,100.535995 
	C512.059021,100.013153 510.396515,99.305756 511.239044,95.891228 
	C512.424377,91.087547 510.474213,88.224129 506.218384,87.249069 
	C501.782532,86.232765 497.796875,88.368362 496.879761,92.506546 
	C495.813141,97.319199 499.248260,98.897881 502.842560,100.221367 
	C503.905518,100.612778 505.004852,100.905373 506.396088,101.339546 
	C504.317993,105.605186 500.832001,106.152939 497.120636,105.468452 
	C489.198395,104.007362 483.931885,94.614067 486.543854,86.964760 
	C490.289154,75.996384 501.282867,70.183922 514.184998,73.253349 
	C539.717590,79.327576 556.015625,95.715797 564.034058,120.304428 
	C569.274109,136.372787 567.056396,152.199005 560.418457,167.529816 
	C559.818298,168.915894 559.351868,170.362732 557.318726,170.899811 
	C556.966431,170.974884 556.993774,170.999741 557.005249,171.014206 
z"/>
<path fill="#ffffffeb" opacity="1.000000" stroke="none"
	d="
M181.015472,170.991089 
	C179.140213,170.643448 178.381073,169.202942 177.616852,167.663071 
	C158.952377,130.055115 182.612625,81.514290 223.672729,73.208534 
	C237.346893,70.442490 248.700256,76.546921 251.812531,88.306213 
	C253.198929,93.544540 251.492035,97.894501 247.778961,101.454407 
	C244.561630,104.539024 240.835571,106.715599 236.057434,105.333878 
	C234.091980,104.765518 232.426743,103.803902 231.572449,101.429222 
	C233.442184,100.756157 235.174393,100.281639 236.773148,99.525131 
	C239.816055,98.085266 242.407272,96.071297 241.164200,92.217514 
	C239.844604,88.126442 236.598907,86.689613 232.486313,87.156593 
	C228.633469,87.594101 226.400742,89.725494 226.324554,93.705475 
	C226.199265,100.250114 224.762344,101.619347 218.161163,100.771225 
	C214.537567,100.305672 210.943939,99.547127 207.372330,98.759537 
	C205.265030,98.294846 203.265747,98.245270 200.928833,98.554893 
	C202.171448,101.128044 204.352356,100.705978 205.892761,101.486160 
	C208.224014,102.666878 209.558701,104.623680 209.711792,106.974754 
	C209.907272,109.976830 206.951157,109.345558 205.269104,109.827896 
	C196.479599,112.348343 188.255798,115.712158 182.548050,123.379585 
	C179.711395,127.190193 178.122650,131.463181 177.606186,136.355499 
	C186.742996,119.747009 202.186859,115.646088 219.314224,114.921310 
	C223.974213,114.724113 228.645416,114.650826 233.308762,114.715637 
	C237.716751,114.776886 241.764328,113.485916 245.666794,111.655273 
	C248.866898,119.290512 240.946426,125.241089 226.924622,125.984840 
	C225.990448,128.390930 227.308273,131.846893 223.766235,133.316559 
	C223.418655,133.157669 222.739655,133.071960 222.599030,132.750626 
	C216.725723,119.330009 194.788940,120.033142 185.454239,132.846588 
	C178.023148,143.047012 178.547562,154.367111 179.748428,165.911880 
	C179.902100,167.389252 180.394958,168.831345 180.860229,170.654999 
	C180.989792,171.020203 181.005173,170.999146 181.015472,170.991089 
z"/>
<path fill="#ffffffeb" opacity="1.000000" stroke="none"
	d="
M566.988403,557.006287 
	C580.107727,559.848938 593.077881,561.077820 604.874878,552.627869 
	C612.999512,546.808289 616.649963,536.707947 614.447510,527.015564 
	C613.171631,521.400574 609.411865,517.833374 604.643860,514.962097 
	C605.568054,511.125580 608.993774,511.669769 611.669312,510.441803 
	C612.745056,503.994843 613.115356,496.904724 619.529358,492.659821 
	C621.450195,491.388489 623.606262,490.247406 626.435425,492.146820 
	C621.096558,501.788635 624.134460,512.524353 622.694397,522.799255 
	C619.740662,543.874084 618.199036,547.099548 601.971680,560.525574 
	C612.027527,559.135498 618.383667,553.605713 623.030396,545.714661 
	C625.494934,541.529358 627.098511,536.986877 628.269531,532.269226 
	C628.641724,530.769836 628.442383,528.480957 630.600281,528.311218 
	C632.853882,528.133850 634.700500,529.374390 636.011597,531.326111 
	C637.170349,533.050903 636.927612,535.507080 639.115295,537.397278 
	C640.184631,534.467346 639.547119,532.157593 639.025574,529.775574 
	C637.997864,525.082031 636.589417,520.407776 637.276306,515.509277 
	C637.712830,512.396057 638.509521,509.997833 642.719849,511.466766 
	C645.657349,512.491577 648.419983,511.343872 649.920349,508.460480 
	C651.470093,505.481903 651.624084,502.309662 649.588562,499.467133 
	C646.490540,495.140808 641.089783,495.703644 638.782410,500.555725 
	C637.940491,502.326172 637.390564,504.235443 636.626526,506.300171 
	C632.881653,504.841278 632.166809,501.734283 632.292786,498.595795 
	C632.607666,490.752106 641.951233,484.180756 649.616028,486.175018 
	C661.175903,489.182709 667.439209,500.420654 664.997925,513.773987 
	C660.169189,540.186462 633.309448,564.051270 606.512146,566.463135 
	C594.198425,567.571472 582.691284,565.489319 571.455994,560.818909 
	C569.779541,560.122009 567.931519,559.645020 567.118103,557.315063 
	C567.020752,556.974060 567.000366,556.996765 566.988403,557.006287 
z"/>
<path fill="#ffffffeb" opacity="1.000000" stroke="none"
	d="
M160.836945,174.957031 
	C164.266663,176.504959 167.818649,176.946442 170.539444,179.499817 
	C168.755890,181.135452 167.199692,180.028412 165.668030,179.824570 
	C156.177536,178.561539 146.750992,178.024628 137.774338,182.380157 
	C126.898010,187.657410 121.201630,198.653030 123.420601,210.434586 
	C124.215622,214.655685 126.389519,218.161423 129.959625,220.717041 
	C131.135925,221.559067 132.812607,221.848358 133.285629,223.666275 
	C131.959641,227.144165 128.491943,226.478821 125.823517,227.112564 
	C125.673531,240.162842 119.451607,248.487411 111.667305,245.735565 
	C116.984406,235.822586 114.314087,224.904465 115.377274,214.439346 
	C116.965935,198.801926 121.856339,185.682098 136.325256,177.577911 
	C125.183830,178.955154 117.994545,185.481247 113.422661,195.188873 
	C111.804085,198.625656 110.917656,202.404190 109.644089,206.008011 
	C109.132248,207.456390 109.542854,209.733627 107.184532,209.758530 
	C105.303589,209.778412 103.503975,208.852371 102.542740,207.211929 
	C101.401390,205.264114 100.658188,203.083008 99.522964,200.504471 
	C97.372993,203.104279 98.438499,205.423447 98.887962,207.665573 
	C99.866203,212.545441 101.292953,217.388123 100.715218,222.433533 
	C100.364845,225.493362 99.551659,227.984634 95.323425,226.560516 
	C92.408760,225.578857 89.572052,226.554947 88.081429,229.472000 
	C86.567612,232.434418 86.384087,235.634232 88.371521,238.488678 
	C91.288681,242.678436 96.543648,242.407944 99.017990,237.924561 
	C100.038620,236.075226 100.546272,233.942780 101.397667,231.640488 
	C105.812836,233.774979 106.140930,237.547760 105.283455,241.301849 
	C103.377708,249.645325 93.965233,254.317429 86.017921,251.165756 
	C75.996872,247.191696 70.891289,236.893539 72.947266,224.801727 
	C77.366959,198.808182 103.636497,174.521072 129.933533,171.619644 
	C140.439621,170.460480 150.491821,171.793259 160.836945,174.957031 
z"/>
<path fill="#ffffffeb" opacity="1.000000" stroke="none"
	d="
M97.110397,297.232452 
	C98.092651,299.863892 100.823166,301.523804 99.922340,304.500977 
	C99.310371,305.489166 98.470818,305.463959 97.642044,305.342865 
	C83.773972,303.316925 72.923889,312.316132 72.219200,326.492523 
	C71.531975,340.317688 79.219872,349.547546 89.289566,357.468109 
	C91.197441,358.968842 93.773117,359.681763 94.953873,362.016785 
	C94.377792,363.248230 93.523117,362.795776 92.817924,362.523590 
	C67.040092,352.572754 51.236511,334.485992 47.639301,306.655365 
	C45.368652,289.087952 48.786087,272.823090 60.078037,258.800140 
	C66.593765,250.708557 76.638939,248.421524 85.717041,252.379059 
	C93.533669,255.786697 96.694000,265.763245 92.164780,272.943573 
	C90.151093,276.135986 87.396919,277.956268 83.342537,277.038116 
	C82.505188,275.069153 84.119354,273.919891 84.737938,272.515656 
	C86.232643,269.122589 86.526382,265.992371 82.879181,263.808258 
	C79.078018,261.531921 75.734215,262.608887 73.206596,265.903625 
	C70.846138,268.980469 70.354553,272.305420 73.490845,275.323517 
	C78.267776,279.920380 78.391777,281.051849 73.289978,285.371613 
	C70.129150,288.047913 66.529518,290.205902 63.127697,292.597717 
	C61.529835,293.721161 59.583466,294.490540 58.853333,296.967316 
	C61.071579,297.746124 62.564167,296.185303 64.204697,295.463806 
	C66.763321,294.338562 69.254440,294.527039 71.167313,296.431274 
	C73.213058,298.467834 70.858955,300.080688 69.962440,301.646362 
	C66.283615,308.070953 63.387169,314.661987 63.214336,322.280762 
	C63.068405,328.713837 64.712105,334.426453 69.189629,340.183380 
	C68.640831,337.027069 68.089508,334.619049 67.821014,332.179901 
	C66.662651,321.656219 70.215500,312.457733 76.301201,304.178131 
	C79.545036,299.764893 83.242111,295.663269 86.948189,291.616608 
	C91.857613,286.255981 97.656242,281.610809 99.922371,273.990631 
	C103.308624,275.036163 104.063362,277.363068 104.361176,280.141266 
	C105.108192,287.109863 101.761497,292.279572 97.110397,297.232452 
z"/>
<path fill="#ffffffeb" opacity="1.000000" stroke="none"
	d="
M674.578186,292.392151 
	C670.384094,289.646484 666.262207,287.399292 663.111633,283.845978 
	C660.492004,280.891479 658.810669,278.353760 663.839966,275.742798 
	C667.091675,274.054688 667.440125,270.699707 665.660645,267.463135 
	C663.835083,264.142822 661.223816,261.972687 657.144653,262.962799 
	C653.140381,263.934723 651.378784,267.011414 652.651184,270.960724 
	C653.292358,272.950775 654.453796,274.773163 655.522461,276.963379 
	C650.798035,278.148743 647.799683,276.223907 645.704529,272.659821 
	C641.308105,265.181091 644.618103,255.570801 652.632446,252.212158 
	C660.900574,248.747177 669.765259,250.650421 676.508667,257.380402 
	C684.395569,265.251556 688.062378,275.195404 689.993347,285.836700 
	C695.967224,318.758087 678.642212,349.494690 647.457153,361.593658 
	C646.262634,362.057129 645.135925,362.975464 643.633057,362.192444 
	C643.859070,359.719818 646.193665,359.347260 647.650146,358.232574 
	C658.237915,350.129425 666.523071,340.783508 665.777527,326.257172 
	C665.069580,312.461548 654.206055,303.363342 640.626221,305.228699 
	C639.994080,305.315491 639.331665,305.181824 638.543335,305.144135 
	C636.802307,301.719971 639.800354,299.976837 641.257263,297.276703 
	C636.092529,292.376801 632.595215,286.531891 633.744141,278.908630 
	C634.084839,276.647583 635.012817,274.779266 637.812744,274.026917 
	C642.157104,285.424133 652.655945,291.926422 659.707520,301.271118 
	C668.369019,312.749420 672.998108,325.029480 669.028931,339.535645 
	C677.667297,328.070038 675.663269,316.375366 669.815308,304.595856 
	C669.372314,303.703522 668.653809,302.931030 668.307922,302.010895 
	C667.613525,300.163818 664.727661,298.546265 666.893250,296.355988 
	C668.933044,294.292847 671.671143,294.377533 674.353943,295.593811 
	C675.793579,296.246521 677.030334,297.625916 679.163574,297.094971 
	C678.653687,294.603943 676.336975,293.976532 674.578186,292.392151 
z"/>
<path fill="#ffffffeb" opacity="1.000000" stroke="none"
	d="
M170.988007,556.983276 
	C170.794098,558.944214 169.315811,559.715088 167.768173,560.421936 
	C121.722023,581.453186 78.770149,547.988892 72.928215,512.365051 
	C70.888199,499.925079 77.297874,489.139801 88.404488,486.187714 
	C96.161194,484.126007 105.218658,490.730530 105.486725,498.721954 
	C105.589478,501.785126 105.034332,504.640839 101.900734,506.223877 
	C100.202042,504.911438 100.483543,503.045898 99.836639,501.582336 
	C98.373383,498.271759 96.598557,495.585938 92.353317,496.864685 
	C88.207062,498.113617 86.467575,501.144562 86.951843,505.272034 
	C87.414024,509.211304 89.626411,511.703186 93.868576,511.721313 
	C100.230507,511.748474 101.563629,513.189636 100.710052,519.798218 
	C100.242043,523.421570 99.437714,527.002258 98.762100,530.597900 
	C98.373230,532.667542 97.642235,534.738098 98.979729,537.035828 
	C101.267548,535.750122 100.831276,533.153442 102.021515,531.503418 
	C103.349251,529.662781 105.025139,528.107788 107.366051,528.382324 
	C109.477333,528.629883 109.276566,530.879028 109.692123,532.388977 
	C111.838722,540.189270 114.727310,547.565186 120.752060,553.317017 
	C125.092880,557.461182 130.137344,560.011169 137.584366,560.777893 
	C118.619858,550.635193 115.682861,533.840637 114.819374,516.023315 
	C114.429413,507.976898 116.002594,499.688202 111.565338,492.202850 
	C119.498253,489.645874 125.261208,497.281738 125.999863,510.763367 
	C128.498978,511.592865 131.778854,510.914124 133.304138,514.183105 
	C133.123947,514.578613 133.046402,515.163696 132.715302,515.415833 
	C119.420654,525.539551 119.883827,543.449646 133.674988,553.092896 
	C143.768646,560.150757 154.981979,559.664551 166.369308,558.056274 
	C167.681534,557.870972 168.959183,557.440674 170.642334,557.075317 
	C171.031815,557.026611 171.001816,556.998474 170.988007,556.983276 
z"/>
<path fill="#ffffffeb" opacity="1.000000" stroke="none"
	d="
M75.733101,455.273865 
	C78.201332,458.207764 77.802910,459.994263 74.626511,461.805481 
	C71.341675,463.678528 70.280434,466.934723 72.176872,470.407135 
	C74.033020,473.805817 76.737900,476.271362 81.081589,475.020538 
	C84.990204,473.894989 86.645142,470.767303 85.341461,466.861816 
	C84.724258,465.012878 83.649155,463.316772 82.587006,461.155701 
	C86.457291,459.926819 89.203362,461.313049 91.399681,464.024536 
	C96.661995,470.521240 94.263359,481.241943 86.777061,485.038208 
	C78.319000,489.327301 69.007294,487.804535 61.955395,480.967499 
	C53.415684,472.688080 49.604187,462.105072 47.837704,450.746582 
	C42.758358,418.086487 59.235935,389.226410 89.947845,376.595062 
	C91.407494,375.994720 92.837364,374.894836 94.878258,375.723572 
	C93.914391,377.717316 92.033279,378.469055 90.504288,379.600830 
	C80.230156,387.206085 72.202614,396.238953 72.199593,409.964355 
	C72.196289,424.999237 82.681839,434.241425 97.636902,432.653900 
	C98.257576,432.588013 98.905334,432.777313 99.525154,432.846039 
	C101.189041,436.377045 98.136299,438.090912 96.792503,440.749878 
	C102.073380,445.676758 105.434013,451.588531 104.173759,459.196686 
	C103.815514,461.359436 102.835960,463.285706 99.943169,463.871521 
	C97.065971,454.298218 88.803528,448.907196 82.735184,441.780823 
	C74.384514,431.974243 67.143768,421.779266 67.678123,408.026947 
	C67.801903,404.841461 68.350250,401.766357 69.309250,398.659119 
	C64.051300,403.555878 61.866840,412.609497 63.734932,421.354156 
	C64.933479,426.964630 67.339867,432.045410 70.297173,436.917175 
	C71.103210,438.244965 72.767441,439.636017 71.357368,441.360382 
	C70.004295,443.014954 67.936066,443.600830 65.912231,443.055511 
	C63.700188,442.459503 61.610500,441.409363 59.154320,440.958374 
	C63.278736,447.167938 71.224365,449.021576 75.733101,455.273865 
z"/>
<path fill="#ffffffeb" opacity="1.000000" stroke="none"
	d="
M611.225830,579.717529 
	C615.381653,580.483948 614.270874,583.240417 613.794678,585.562439 
	C613.283203,588.056396 611.558105,589.945679 609.405945,592.178101 
	C615.728943,597.452393 613.918396,604.585144 614.112122,611.296875 
	C614.165344,613.139832 613.292053,614.114929 611.434082,614.067017 
	C604.731262,613.894470 597.563599,615.791077 592.237732,609.309631 
	C589.069824,611.456177 586.871643,614.887268 582.640869,614.282654 
	C580.452209,613.969971 579.166260,613.266663 579.696838,610.799622 
	C582.809082,596.328552 576.772888,584.166687 569.952148,572.198975 
	C569.154724,570.799866 567.602234,569.807678 567.592896,567.640442 
	C569.897827,567.377563 571.148621,569.210266 572.683411,570.188965 
	C582.550537,576.480835 593.137085,580.523438 604.970154,580.644775 
	C606.925720,580.664795 608.887573,580.083008 611.225830,579.717529 
M589.800049,585.671021 
	C587.042786,583.975342 584.285522,582.279602 581.528320,580.583923 
	C583.957886,588.740662 588.770874,594.716736 595.738525,598.928955 
	C596.741943,599.535583 597.905945,599.979675 598.915771,598.926025 
	C599.940247,597.857117 599.235657,596.763184 598.768372,595.725891 
	C596.942017,591.671936 593.586060,588.946228 589.800049,585.671021 
z"/>
<path fill="#ffffffeb" opacity="1.000000" stroke="none"
	d="
M157.362305,137.604614 
	C159.252090,149.697693 163.793900,160.269699 171.168228,170.255905 
	C168.310501,170.595871 167.130600,169.036301 165.719757,168.116821 
	C155.776093,161.636261 145.070419,157.479004 133.044022,157.319000 
	C132.048492,157.305740 131.051834,157.416306 130.055054,157.451111 
	C128.088791,157.519791 125.701347,159.881592 124.268799,157.099701 
	C122.861343,154.366516 123.888969,151.535599 125.665871,149.161087 
	C126.443100,148.122482 127.590057,147.360535 129.121201,145.972458 
	C122.657547,141.161789 123.875931,134.142899 123.984467,127.380394 
	C124.009506,125.820923 123.982529,124.035088 126.024918,124.046371 
	C133.028061,124.085068 140.555603,122.017181 146.132278,128.961121 
	C148.411545,125.875610 150.906113,123.571739 154.810989,123.733299 
	C157.495087,123.844353 159.059357,124.825272 158.023315,127.767120 
	C156.935272,130.856689 157.435989,134.024902 157.362305,137.604614 
M156.761490,157.147354 
	C155.423141,148.929443 145.358582,138.783356 138.839813,139.080505 
	C139.358780,145.445053 145.842361,152.194214 156.761490,157.147354 
z"/>
<path fill="#ffffffeb" opacity="1.000000" stroke="none"
	d="
M363.186401,668.170044 
	C365.845062,662.217224 367.153046,656.251587 368.245239,650.245483 
	C370.548981,650.576965 370.122803,652.177673 370.361237,653.380981 
	C372.699860,665.184387 377.187836,675.953674 385.553101,684.839111 
	C386.460419,685.802917 387.648285,686.505493 388.537262,687.482788 
	C389.854462,688.930847 393.395844,688.860657 392.326752,691.856934 
	C391.312958,694.698059 388.720612,696.111389 385.656891,696.320679 
	C384.360901,696.409180 383.053864,696.335388 381.241577,696.335388 
	C382.123688,705.814819 374.319061,709.373047 369.111450,715.351196 
	C364.388824,710.097595 357.654510,706.832275 356.812073,698.954590 
	C356.617950,697.138977 355.658966,696.322815 353.832733,696.390259 
	C351.973877,696.458862 350.191376,696.129150 348.574402,695.123291 
	C344.813812,692.783813 344.729340,690.683289 348.335632,688.272156 
	C355.579376,683.428955 359.463348,676.092957 363.186401,668.170044 
M371.956299,679.394104 
	C371.560791,675.246826 370.550446,671.269348 368.892761,666.754517 
	C364.458527,682.810486 364.586945,690.325256 369.442230,694.298218 
	C372.866791,690.026245 372.664917,685.178589 371.956299,679.394104 
z"/>
<path fill="#ffffffeb" opacity="1.000000" stroke="none"
	d="
M695.673096,388.085999 
	C694.499634,390.386597 693.405029,392.227325 690.550232,392.664581 
	C681.386536,378.264954 666.470886,373.148743 650.622009,369.025879 
	C666.351318,364.824738 681.287476,359.777649 690.531555,345.257355 
	C696.269104,346.910736 696.609985,351.451782 696.596008,356.474335 
	C705.673767,356.551270 709.798279,363.418610 715.324158,369.034607 
	C709.906799,373.847473 706.483459,380.551331 698.333679,381.460022 
	C694.764893,381.857941 697.182129,385.800049 695.673096,388.085999 
M686.257996,372.034119 
	C689.248535,371.737000 692.584900,372.254364 694.643311,368.331787 
	C685.190613,363.026245 676.350708,366.618683 666.355042,368.844025 
	C673.236450,371.311890 679.176941,372.335541 686.257996,372.034119 
z"/>
<path fill="#ffffffeb" opacity="1.000000" stroke="none"
	d="
M567.780762,169.023315 
	C575.354004,158.209442 580.312988,146.752716 580.708984,133.635788 
	C580.744019,132.474106 580.625305,131.306396 580.551575,130.143143 
	C580.424805,128.144409 578.264709,125.686844 580.896667,124.286507 
	C583.590210,122.853386 586.459290,123.813057 588.782593,125.758255 
	C589.778442,126.592072 590.532104,127.715218 591.669617,129.021286 
	C597.246643,122.447319 604.524841,123.952034 611.452698,123.941826 
	C613.002380,123.939545 614.065247,124.653862 614.016052,126.317856 
	C613.813538,133.160889 616.040588,140.598846 608.602722,146.039062 
	C612.026611,148.397766 614.437683,151.042374 614.239075,155.101868 
	C614.134460,157.239960 613.487976,158.758209 610.934082,158.227295 
	C596.252930,155.175354 583.878418,161.063583 571.871826,168.322220 
	C569.664612,169.656631 569.720520,169.749084 567.780762,169.023315 
M594.942627,139.543167 
	C587.702454,143.772354 583.729065,150.608322 579.349976,158.601181 
	C587.442017,154.281815 594.142212,150.128082 598.413574,143.056793 
	C599.058594,141.988953 600.031311,140.680923 599.131104,139.377991 
	C598.131042,137.930481 596.782410,138.757812 594.942627,139.543167 
z"/>
<path fill="#ffffffeb" opacity="1.000000" stroke="none"
	d="
M140.551361,613.140381 
	C135.633423,614.991333 130.938324,613.745178 126.317764,613.964600 
	C124.954315,614.029358 124.042961,613.183594 124.045464,611.846619 
	C124.058304,604.976135 122.236107,597.661438 128.994797,592.025696 
	C126.410912,589.601440 123.751930,587.252930 123.770638,583.453491 
	C123.781433,581.261047 124.113449,579.207397 127.066719,579.828369 
	C140.577087,582.668823 152.185089,577.507507 163.534286,571.246826 
	C165.656570,570.076050 167.695480,568.754150 169.878174,567.438538 
	C170.794891,569.671143 169.125549,570.503052 168.404709,571.645386 
	C162.004944,581.787537 157.485153,592.544861 157.314468,604.764343 
	C157.300537,605.761169 157.412796,606.760132 157.391403,607.756470 
	C157.346741,609.835449 160.102463,612.479187 156.812653,613.866211 
	C153.844131,615.117798 150.921875,614.035706 148.603790,611.744080 
	C147.805862,610.955261 147.113556,610.059631 146.379379,609.220093 
	C144.437653,610.565063 142.680878,611.781921 140.551361,613.140381 
M149.040344,593.546875 
	C152.853027,589.646179 155.722107,585.151733 158.273682,579.351562 
	C149.589050,584.617004 141.199936,588.818176 137.945358,599.208923 
	C143.352554,599.621155 145.773514,596.510437 149.040344,593.546875 
z"/>
<path fill="#ffffffeb" opacity="1.000000" stroke="none"
	d="
M372.543335,75.582581 
	C371.511383,79.638184 370.604156,83.314644 369.704926,86.958603 
	C367.306671,86.927483 367.839417,85.189217 367.602112,84.062904 
	C365.374176,73.489197 361.532990,63.637268 354.470856,55.303356 
	C352.769531,53.295666 350.696777,51.538227 348.570984,49.968884 
	C344.739502,47.140366 344.461945,43.946548 348.820679,43.153568 
	C355.359650,41.963936 356.677368,37.611794 359.232300,32.896172 
	C361.329865,29.024784 365.612488,26.337278 369.216217,22.844286 
	C373.830841,27.873316 380.525940,31.229885 381.266876,39.143639 
	C381.483521,41.457481 383.037628,41.582176 384.820404,41.633045 
	C388.659058,41.742588 391.507019,43.283279 392.741272,47.526463 
	C382.044739,53.840443 376.895752,64.194351 372.543335,75.582581 
M366.589020,62.778149 
	C367.568878,65.231667 367.326538,68.127594 369.158295,70.614380 
	C373.770294,56.529202 373.525696,47.253880 368.249664,43.698399 
	C364.310883,49.504559 365.943665,55.797131 366.589020,62.778149 
z"/>
<path fill="#ffffffeb" opacity="1.000000" stroke="none"
	d="
M23.751274,367.770325 
	C28.831257,363.106689 32.513981,357.115234 40.050400,356.519043 
	C42.002254,356.364655 41.580673,354.242401 41.671341,352.810272 
	C41.890720,349.344849 43.624470,346.966156 47.064377,345.051086 
	C56.599953,359.386383 71.201462,365.068329 87.260490,368.911163 
	C71.614075,373.275940 56.499050,378.033112 47.508411,392.858032 
	C41.845516,390.898468 41.405941,386.546448 41.748806,381.338165 
	C32.720901,382.063843 28.889273,374.758026 23.486908,369.843903 
	C23.187538,369.571594 23.481634,368.646820 23.751274,367.770325 
M69.445343,368.310211 
	C60.844936,366.429840 52.187950,362.861145 43.323318,368.638397 
	C48.491310,373.716370 65.732063,373.228271 69.445343,368.310211 
z"/>
<path fill="#ffffffeb" opacity="1.000000" stroke="none"
	d="
M39.139687,388.842773 
	C39.980255,389.897095 40.722149,390.660339 40.988628,391.563812 
	C42.964634,398.263123 45.800568,399.410645 51.827713,395.919464 
	C55.580502,393.745697 58.375797,390.432617 61.511528,387.555664 
	C61.948181,387.958984 62.390873,388.220215 62.355255,388.356049 
	C59.678879,398.561890 44.779171,407.807159 34.985931,405.357758 
	C30.132845,404.143951 27.163269,401.006256 26.280401,396.148468 
	C25.732002,393.131073 27.052124,390.572601 29.491350,388.752960 
	C32.521481,386.492401 35.681660,386.691589 39.139687,388.842773 
z"/>
<path fill="#ffffffeb" opacity="1.000000" stroke="none"
	d="
M389.962921,697.789185 
	C398.557281,695.324585 399.966461,691.376709 394.719971,684.417358 
	C392.478210,681.443665 389.793030,678.804321 386.993256,675.657715 
	C395.010193,676.689087 403.570068,686.599670 405.443390,696.124695 
	C406.371796,700.845032 405.749176,705.045837 402.273132,708.563599 
	C398.411407,712.471680 393.873413,712.948730 390.238251,709.876099 
	C386.548279,706.756958 386.353088,702.796814 389.962921,697.789185 
z"/>
<path fill="#ffffffeb" opacity="1.000000" stroke="none"
	d="
M697.831299,389.980835 
	C700.953369,387.174744 704.091492,386.099487 707.633301,388.227753 
	C710.577881,389.997101 712.265930,392.654205 711.769958,396.125122 
	C711.125366,400.635315 708.309692,403.635284 704.098755,405.125519 
	C699.059326,406.908844 694.190308,405.647369 689.684143,403.335388 
	C683.108276,399.961517 678.073975,395.035675 674.901367,387.493866 
	C678.370667,388.050842 679.215088,390.560211 680.959229,391.936340 
	C683.176514,393.685760 685.234497,395.629211 687.862976,396.789062 
	C693.199890,399.144073 695.567688,397.563873 697.831299,389.980835 
z"/>
<path fill="#ffffffeb" opacity="1.000000" stroke="none"
	d="
M699.561401,349.528320 
	C697.923462,348.446472 697.263367,347.251648 696.872253,345.690399 
	C695.542297,340.380829 692.694397,339.031952 687.768127,341.242767 
	C684.372253,342.766785 681.650940,345.184601 679.087341,347.834198 
	C678.147583,348.805603 677.646362,350.588867 675.685730,350.153900 
	C677.783264,339.289062 694.078003,329.479553 704.282104,332.892853 
	C710.099792,334.838867 713.451782,341.658783 710.911438,346.380646 
	C708.731873,350.431793 704.873169,351.607513 699.561401,349.528320 
z"/>
<path fill="#ffffffeb" opacity="1.000000" stroke="none"
	d="
M44.563988,333.076355 
	C54.089996,336.915710 60.972160,343.601959 62.298435,350.086731 
	C60.535629,350.739349 60.073185,349.097687 59.216286,348.279205 
	C56.334679,345.526855 53.532768,342.656952 49.811653,341.033661 
	C45.357552,339.090637 42.245476,340.549042 41.100639,344.973663 
	C40.003166,349.215210 36.613594,351.553467 32.765045,350.723846 
	C28.556948,349.816742 25.666687,345.632782 26.365734,341.460175 
	C27.308947,335.830170 33.654499,331.398560 39.782146,332.142609 
	C41.259895,332.322052 42.715622,332.682861 44.563988,333.076355 
z"/>
<path fill="#ffffffeb" opacity="1.000000" stroke="none"
	d="
M164.689575,136.148773 
	C164.875885,131.589874 164.538361,127.451164 163.050034,123.522057 
	C161.320862,118.957123 158.041824,117.766991 154.093658,120.061256 
	C149.880249,122.509651 146.177765,121.729980 143.967331,117.928864 
	C141.603592,113.864182 142.809937,108.941963 146.915497,106.747383 
	C150.887665,104.624092 154.915985,104.871277 158.749527,107.235031 
	C167.454605,112.602570 171.194702,129.359436 165.722137,138.438370 
	C164.549591,138.247070 164.869019,137.251328 164.689575,136.148773 
z"/>
<path fill="#ffffffeb" opacity="1.000000" stroke="none"
	d="
M342.104248,51.757637 
	C345.038116,55.319416 347.792297,58.558678 350.542297,61.793011 
	C349.151855,63.279243 348.194885,62.232021 347.286407,61.717854 
	C336.945099,55.864876 330.336761,43.482796 332.847778,34.534466 
	C334.004425,30.412649 336.643494,27.614468 340.874756,26.467955 
	C344.156250,25.578798 346.774384,26.752182 348.885223,29.175749 
	C352.435822,33.252399 350.961273,39.540440 346.168579,41.032021 
	C339.616638,43.071117 338.883575,44.868065 342.104248,51.757637 
z"/>
<path fill="#ffffffeb" opacity="1.000000" stroke="none"
	d="
M398.964722,54.913132 
	C395.650299,58.368237 392.399567,61.286053 388.006927,62.923584 
	C387.284607,60.278095 389.090332,59.781124 390.104767,58.906075 
	C393.060791,56.356262 395.355804,53.305374 396.945709,49.793194 
	C398.996216,45.263485 397.554871,42.407581 392.862274,41.171505 
	C388.437103,40.005882 386.418640,36.908630 387.391357,32.776653 
	C388.442139,28.313084 392.347137,25.580563 396.615875,26.321823 
	C402.569916,27.355736 406.561096,33.500710 405.737762,40.333996 
	C405.078888,45.802071 402.712616,50.483189 398.964722,54.913132 
z"/>
<path fill="#ffffffeb" opacity="1.000000" stroke="none"
	d="
M592.708191,618.343689 
	C595.651001,621.967529 596.300232,625.554688 593.585327,629.093323 
	C590.848938,632.660034 586.960388,633.268738 582.814270,632.275513 
	C578.694824,631.288635 575.838196,628.564026 573.794617,624.975708 
	C569.220093,616.943176 568.558716,608.652954 572.134766,600.104004 
	C574.086975,603.860474 572.913208,608.014038 574.118835,611.921814 
	C576.307495,619.015442 578.139404,620.040710 584.932129,617.057983 
	C587.573792,615.898071 590.107849,616.421204 592.708191,618.343689 
z"/>
<path fill="#ffffffeb" opacity="1.000000" stroke="none"
	d="
M624.368652,573.421631 
	C631.141907,577.821350 633.532410,582.500244 632.311340,588.402771 
	C631.552307,592.071960 629.246582,594.275452 625.711426,595.031311 
	C622.515930,595.714478 619.718201,594.629272 617.882812,591.899109 
	C615.975952,589.062744 615.632568,586.228943 618.088135,583.247192 
	C620.860535,579.880798 619.030640,577.273865 615.859192,575.617249 
	C612.755127,573.995850 609.311401,573.359558 605.764343,573.296021 
	C603.651855,573.258301 601.466980,573.808044 597.984680,572.162354 
	C607.719543,568.467346 615.909424,569.317322 624.368652,573.421631 
z"/>
<path fill="#ffffffeb" opacity="1.000000" stroke="none"
	d="
M337.289551,685.400269 
	C340.827118,680.946411 344.458710,677.183411 350.187531,675.022400 
	C350.057709,677.623901 348.375244,678.537903 347.216370,679.678589 
	C344.461029,682.390808 342.082184,685.381165 340.743744,689.010254 
	C339.187164,693.230652 340.672913,695.878418 344.816101,696.828064 
	C348.978241,697.782104 351.495911,701.197510 350.804474,704.951782 
	C349.991119,709.368225 345.592285,712.466919 341.275696,711.664062 
	C335.602753,710.608887 331.456116,704.424194 332.239716,698.062378 
	C332.796570,693.541931 334.312531,689.366760 337.289551,685.400269 
z"/>
<path fill="#ffffffeb" opacity="1.000000" stroke="none"
	d="
M168.212051,611.785767 
	C167.475983,618.659119 165.664612,624.623474 160.756653,629.182556 
	C156.683990,632.965637 151.231567,633.759521 146.967529,631.328186 
	C143.006058,629.069397 141.681366,624.095276 143.973312,620.084656 
	C146.089264,616.382019 150.077744,615.591248 154.140396,618.068848 
	C157.590714,620.173035 160.760345,619.267090 162.630325,615.365479 
	C164.151794,612.191040 164.606628,608.726868 164.697662,605.203979 
	C164.747864,603.261597 164.182999,601.234375 165.460709,598.934509 
	C168.353287,602.852600 168.301529,607.091492 168.212051,611.785767 
z"/>
<path fill="#ffffffeb" opacity="1.000000" stroke="none"
	d="
M572.718872,115.004608 
	C575.976501,108.827919 580.128235,104.666664 587.418640,105.555626 
	C591.247253,106.022469 594.011108,107.960594 595.000244,111.776268 
	C595.817200,114.927795 594.964355,117.839417 592.344727,119.833527 
	C589.392395,122.080910 586.462036,121.973282 583.189514,119.795403 
	C579.745544,117.503456 576.855469,118.998528 575.046509,123.265800 
	C573.065979,127.937866 573.511963,132.991714 572.424561,137.873383 
	C568.418274,130.372040 569.554688,122.868500 572.718872,115.004608 
z"/>
<path fill="#ffffffeb" opacity="1.000000" stroke="none"
	d="
M632.629578,152.844635 
	C632.037659,158.748734 628.646667,162.246231 624.088257,164.761093 
	C616.193237,169.116730 605.477600,169.497757 599.241577,165.215759 
	C603.401917,164.801376 606.895020,164.617615 610.324890,164.050903 
	C612.418762,163.704956 614.625305,163.113007 616.407898,162.021698 
	C619.298340,160.252197 620.628479,157.444443 618.206787,154.479446 
	C615.900879,151.656265 616.072754,148.996368 617.777222,146.253540 
	C619.412170,143.622437 622.051758,142.564911 625.074097,142.919373 
	C628.490173,143.319977 630.954224,145.172058 632.004150,148.536316 
	C632.395508,149.790298 632.448059,151.150024 632.629578,152.844635 
z"/>
<path fill="#ffffffeb" opacity="1.000000" stroke="none"
	d="
M119.320358,159.820969 
	C122.613167,164.167435 127.291466,164.108398 131.692154,164.615768 
	C133.950668,164.876160 136.263962,164.661453 138.678741,164.661453 
	C138.298843,166.967789 136.822403,167.111740 135.627945,167.392578 
	C126.935020,169.436356 118.727913,168.235733 111.361626,163.090866 
	C106.238182,159.512466 104.251862,153.752457 105.983818,148.683884 
	C107.106483,145.398392 109.443054,143.358063 112.859558,142.918259 
	C115.856026,142.532501 118.535141,143.555237 120.192833,146.189224 
	C121.924988,148.941498 122.099464,151.722824 119.782219,154.439514 
	C118.557686,155.875137 117.975807,157.646439 119.320358,159.820969 
z"/>
<path fill="#ffffffeb" opacity="1.000000" stroke="none"
	d="
M105.609520,584.377014 
	C106.200401,579.055542 109.194550,575.728088 113.314522,573.579407 
	C121.447098,569.338074 129.898651,568.205444 139.283539,572.045349 
	C137.156082,573.995422 135.113007,573.315247 133.342285,573.284729 
	C129.611633,573.220215 126.027298,573.856750 122.631966,575.280212 
	C118.828033,576.874939 117.379539,580.233032 119.532585,583.202698 
	C121.828392,586.369263 122.205338,589.323669 119.793373,592.257568 
	C117.776878,594.710449 114.958115,595.793457 111.724892,594.858948 
	C107.941849,593.765625 105.902794,591.189697 105.636276,587.248901 
	C105.580254,586.420471 105.596596,585.587097 105.609520,584.377014 
z"/>
<path fill="#ffffffeb" opacity="1.000000" stroke="none"
	d="
M315.080811,109.885559 
	C333.832306,106.100777 352.371521,103.867989 371.057129,104.161926 
	C421.846252,104.960876 469.043732,118.331413 511.749786,146.183609 
	C569.429993,183.801651 607.573608,235.825562 625.211426,302.478180 
	C631.491943,326.211853 634.746521,350.553253 633.871277,375.123474 
	C631.657166,437.279572 611.263306,492.664459 570.727051,540.256409 
	C532.024353,585.695557 483.505829,615.333130 425.214508,627.559998 
	C343.661102,644.666321 269.510956,627.235229 203.807114,575.801270 
	C164.371719,544.930664 136.599869,505.309967 119.735023,458.282654 
	C106.689064,421.904236 102.286415,384.271973 105.503479,345.679352 
	C108.784164,306.323669 120.379036,269.651245 140.334579,235.695786 
	C164.115479,195.231262 196.338531,163.079514 236.991562,139.488144 
	C261.265564,125.401703 287.252075,115.802483 315.080811,109.885559 
M427.838135,114.789513 
	C395.336548,107.321861 362.584656,106.032623 329.646698,111.206116 
	C267.950043,120.896683 215.622787,148.431534 174.349701,195.388931 
	C120.617386,256.521515 99.545502,328.002228 111.380104,408.468079 
	C121.041679,474.159119 152.021332,528.579163 203.510376,570.543945 
	C263.292114,619.267578 332.003967,637.809204 408.204742,626.681641 
	C469.825378,617.683167 522.053833,589.789917 563.243408,543.047302 
	C619.673645,479.009369 640.214172,404.069580 625.179260,320.275848 
	C613.960205,257.748535 582.522888,206.301727 533.222534,166.088913 
	C502.391846,140.941177 467.477020,123.902153 427.838135,114.789513 
z"/>
</svg>